<mxfile host="app.diagrams.net" agent="Mozilla/5.0 (Windows NT 10.0; Win64; x64) AppleWebKit/537.36 (KHTML, like Gecko) Chrome/129.0.0.0 Safari/537.36" version="24.8.3">
  <diagram name="Trang-1" id="ZjQqdCFH7nUoz2EzN-g8">
    <mxGraphModel dx="3436" dy="3267" grid="1" gridSize="10" guides="1" tooltips="1" connect="1" arrows="1" fold="1" page="1" pageScale="1" pageWidth="1200" pageHeight="1920" math="0" shadow="0">
      <root>
        <mxCell id="0" />
        <mxCell id="1" parent="0" />
        <UserObject label="" plantUmlData="{&quot;data&quot;:&quot;@startuml\n\n&#39; Abstract Class\nabstract class Character {\n    - string _name\n    - int _power\n    - int _health\n    - int _maxHealth\n    - string _specialAbility\n - int _transformationLvl\n - int _maxLevel\n - string _form\n    - int _energy\n    - bool _isBlocking\n+ Character(string name, int power, int health, string specialAbility)\n+ Name &lt;&lt;property&gt;&gt; : string\n+ Power &lt;&lt;property&gt;&gt; : int\n+ Health &lt;&lt;property&gt;&gt; : int\n+ MaxHealth &lt;&lt;property&gt;&gt; : int\n+ SpecialAbility &lt;&lt;property&gt;&gt; : string\n+ TransformationLevel &lt;&lt;property&gt;&gt; : int\n+ MaxLevel &lt;&lt;property, abstract&gt;&gt; : int\n+ Form &lt;&lt;property&gt;&gt; : string\n+ Energy &lt;&lt;property&gt;&gt; : int\n+ IsBlocking &lt;&lt;property&gt;&gt; : bool\n    + Block()\n    + StopBlocking()\n    + IncreaseEnergy(int amount)\n    + ResetEnergy()\n    + OnDuplicateRecruited() &lt;&lt;virtual&gt;&gt;\n+ SetTransformationState(ITransformationState transformationState)\n+ ResetHealth()\n}\n\nclass Goku {\n+ Goku()\n+ MaxLevel &lt;&lt;property&gt;&gt; : override int\n+ OnDuplicateRecruited() : override void\n}\n\nclass Vegeta {\n+ Vegeta()\n+ MaxLevel &lt;&lt;property&gt;&gt; : override int\n+ OnDuplicateRecruited() : override void\n}\nclass Gohan {\n+ Gohan()\n+ MaxLevel &lt;&lt;property&gt;&gt; : override int\n+ OnDuplicateRecruited() : override void\n}\nclass Frieza {\n+ Frieza()\n+ MaxLevel &lt;&lt;property&gt;&gt; : override int\n}\nclass Cell {\n+ Cell()\n+ MaxLevel &lt;&lt;property&gt;&gt; : override int\n}\nclass Buu {\n+ Buu()\n+ MaxLevel &lt;&lt;property&gt;&gt; : override int\n}\nclass Black{\n+ Black()\n+ MaxLevel &lt;&lt;property&gt;&gt; : override int\n}\n\nclass Goku extends Character\nclass Vegeta extends Character\nclass Gohan extends Character\nclass Frieza extends Character\nclass Cell extends Character\nclass Buu extends Character\nclass Black extends Character\n\ninterface ITransformationState {\n    + Handle(Character character)\n}\n\nclass SuperSaiyan1 {\n+ Handle(Character character)\n}\nclass SuperSaiyan2 {\n+ Handle(Character character)\n}\nclass SuperSaiyan3 {\n+ Handle(Character character)\n}\nclass SuperSaiyanGod {\n+ Handle(Character character)\n}\nclass SuperSaiyanBlue {\n+ Handle(Character character)\n}\nclass Ultimate {\n+ Handle(Character character)\n}\nclass UltraInstinct {\n+ Handle(Character character)\n}\nclass UltraEgo {\n+ Handle(Character character)\n}\nclass Beast {\n+ Handle(Character character)\n}\n\nclass SuperSaiyan1 implements ITransformationState\nclass SuperSaiyan2 implements ITransformationState\nclass SuperSaiyan3 implements ITransformationState\nclass Ultimate implements ITransformationState\nclass SuperSaiyanGod implements ITransformationState\nclass SuperSaiyanBlue implements ITransformationState\nclass UltraInstinct implements ITransformationState\nclass UltraEgo implements ITransformationState\nclass Beast implements ITransformationState\n\nclass CharacterFactory {\n    + CreateCharacter(string characterType): Character\n}\n\nclass Player {\n    - int _zeni\n    - List&lt;Character&gt; _recruitedCharacters\n+ Player()\n+ Zeni &lt;&lt;property&gt;&gt; : int\n+ RecruitedCharacters &lt;&lt;property&gt;&gt; : List&lt;Character&gt;\n    + AddZeni(int amount)\n    + DeductZeni(int amount)\n    + AddRecruitedCharacter(Character character)\n    + GetRecruitedCharacter(string name): Character\n}\n\nclass RecruitSystem {\n    - static RecruitSystem _instance\n- List&lt;Character&gt;: _recruitedCharacters\n- Random _random\n- RecruitSystem()\n- GetAvailableCharacters(Player player): List&lt;Character&gt;\n    + static RecruitSystem Instance()\n    + RecruitRandomCharacter(Player player)\n}\n\nclass RecruitResult {\n+ Status &lt;&lt;property&gt;&gt;: RecruitStatus\n+ Character &lt;&lt;property&gt;&gt;: Character\n}\n\nenum RecruitStatus {\n      NotEnoughZeni\n  NoAvailableCharacters\n  NewCharacterRecruited\n  CharacterEvolved\n}\n\nclass VillainAI {\n    - IVillainStrategy _strategy\n+ VillainAI()\n    + Action(Character villain, Character player): VillainAction\n- SetStrategy(Character villain, Character player)\n}\n\nenum VillainAction {\n    Block\n    Attack\n}\ninterface IVillainStrategy {\n    + ChooseAction(Character villain, Character player): VillainAction\n}\n\nclass DefaultVillainStrategy {\n- Random _random\n+ ChooseAction(Character villain, Character player): VillainAction\n}\nclass AggressiveVillainStrategy {\n- Random _random\n+ ChooseAction(Character villain, Character player): VillainAction\n}\nclass DefensiveVillainStrategy {\n- Random _random\n+ ChooseAction(Character villain, Character player): VillainAction\n}\nclass DefaultVillainStrategy implements IVillainStrategy\nclass AggressiveVillainStrategy implements IVillainStrategy\nclass DefensiveVillainStrategy implements IVillainStrategy\n\nclass BattleManager {\n    - Player _player\n    - Window _window\n    + GetSelectedDifficulty(): string\n    + StartBattle(Character selectedCharacter): string\n}\n\nclass BattleUI {\n- Window _window\n- ImageManager _imageManager\n+ BattleUI(Window window, ImageManager imageManager)\n+ Window &lt;&lt;property&gt;&gt; : Window\n+ DrawBattleState(Character player, Character villain)\n    + DrawHealthBar(int x, int y, int currentHealth, int maxHealth, Color barColor, string name)\n    + DrawEnergyBar(int x, int y, int currentEnergy, int maxEnergy, Color barColor)\n}\n\nclass BattleSystem {\n- Random _random\n    - Character _player\n    - Character _villain\n    - BattleUI _battleUI\n    - MessageManager _messageManager\n    - VillainAI _villainAI\n+BattleSystem(Window window)\n    + BattleState(Character player, string difficulty): (string, int)\n- GetVillainByDifficulty(string difficulty): Character\n    - ExecuteTurn()\n    - VillainTurn()\n- HandlePlayerAttack()\n- HandlePlayerBlock()\n- HandleVillainAttack()\n- HandleVillainBlock()\n- RefreshBattleUIWithDelay()\n- GetRewardByDifficulty() : int\n}\n\nclass GameMenu {\n     - Window _menuWindow\n - int _currentCharacterIndex\n - ImageManager _imageManager\n - Player _player\n - InputHandler _inputHandler\n - BattleManager _battleManager\n - MessageManager _messageManager\n+ GameMenu(Player player)\n    + Run()\n+ DrawCharacterInfo()\n+ NavigateLeft()\n+ NavigateRight()\n    + RecruitCharacter()\n    + Battle()\n}\n\nclass ImageManager {\n    - Dictionary&lt;string, Dictionary&lt;int, Bitmap&gt;&gt; _characterImages\n+ ImageManager()\n    + GetCharacterImage(Character character): Bitmap\n}\n\nclass MessageManager {\n    - List&lt;(string message, DateTime time)&gt; _messages\n    - Font _font\n    + AddMessage(string message)\n    + DrawMessages()\n}\n\nclass InputHandler {\n    + HandleMouseClick(Point2D mousePosition, GameMenu menu)\n}\n\nCharacter --* ITransformationState\nCharacterFactory --&gt; Character\nPlayer \&quot;1\&quot; --* \&quot;*\&quot; Character\nRecruitSystem --&gt; Player\nRecruitResult --&gt; RecruitSystem\nRecruitSystem --&gt; RecruitStatus\nRecruitResult --&gt; RecruitStatus\nVillainAI --* IVillainStrategy\nIVillainStrategy --&gt; VillainAction\nVillainAI --&gt; VillainAction\nBattleManager --&gt; BattleSystem\nBattleManager --&gt; Player\nBattleSystem --&gt; VillainAI\nBattleSystem --&gt; BattleUI\nBattleSystem --&gt; MessageManager\nGameMenu --&gt; Player\nGameMenu --&gt; BattleManager\nGameMenu --&gt; RecruitSystem\nGameMenu --&gt; ImageManager\nGameMenu --&gt; MessageManager\nMessageManager --&gt; BattleSystem\nInputHandler --&gt; GameMenu\nBattleSystem --&gt; Character\nImageManager --&gt; Character\n\n@enduml\n&quot;,&quot;format&quot;:&quot;svg&quot;}" id="sXZLrubnnxJ79Z8p6Ubs-2">
          <mxCell style="shape=image;noLabel=1;verticalAlign=top;aspect=fixed;imageAspect=0;image=data:image/svg+xml,PD94bWwgdmVyc2lvbj0iMS4wIiBlbmNvZGluZz0idXMtYXNjaWkiIHN0YW5kYWxvbmU9Im5vIj8+PHN2ZyB4bWxucz0iaHR0cDovL3d3dy53My5vcmcvMjAwMC9zdmciIHhtbG5zOnhsaW5rPSJodHRwOi8vd3d3LnczLm9yZy8xOTk5L3hsaW5rIiBjb250ZW50U3R5bGVUeXBlPSJ0ZXh0L2NzcyIgaGVpZ2h0PSIxNzg5cHgiIHByZXNlcnZlQXNwZWN0UmF0aW89Im5vbmUiIHN0eWxlPSJ3aWR0aDo0MTUzcHg7aGVpZ2h0OjE3ODlweDtiYWNrZ3JvdW5kOiNGRkZGRkY7IiB2ZXJzaW9uPSIxLjEiIHZpZXdCb3g9IjAgMCA0MTUzIDE3ODkiIHdpZHRoPSI0MTUzcHgiIHpvb21BbmRQYW49Im1hZ25pZnkiPjxkZWZzLz48Zz48IS0tY2xhc3MgQ2hhcmFjdGVyLS0+PGcgaWQ9ImVsZW1fQ2hhcmFjdGVyIj48cmVjdCBjb2RlTGluZT0iMiIgZmlsbD0iI0YxRjFGMSIgaGVpZ2h0PSI0NjcuNTYyNSIgaWQ9IkNoYXJhY3RlciIgcng9IjIuNSIgcnk9IjIuNSIgc3R5bGU9InN0cm9rZTojMTgxODE4O3N0cm9rZS13aWR0aDowLjU7IiB3aWR0aD0iNTA2IiB4PSIxMzI1LjUiIHk9IjEwMjQiLz48ZWxsaXBzZSBjeD0iMTU0Mi43NSIgY3k9IjEwNDAiIGZpbGw9IiNBOURDREYiIHJ4PSIxMSIgcnk9IjExIiBzdHlsZT0ic3Ryb2tlOiMxODE4MTg7c3Ryb2tlLXdpZHRoOjEuMDsiLz48cGF0aCBkPSJNMTUzOS4zMTI1LDEwMzcuNjI1IEwxNTM5LjMxMjUsMTA0NS43NSBMMTU0MS4wNjI1LDEwNDUuNzUgUTE1NDEuMDYyNSwxMDQ1Ljc1IDE1NDEuMDYyNSwxMDQxLjUgTDE1NDQuNjI1LDEwNDEuNSBRMTU0NC42MjUsMTA0MS41IDE1NDQuNjI1LDEwNDUuNzUgTDE1NDYuMzc1LDEwNDUuNzUgTDE1NDYuMzc1LDEwMzcuNjI1IEwxNTQ0LjYyNSwxMDM3LjYyNSBRMTU0NC42MjUsMTAzNy42MjUgMTU0NC42MjUsMTAzOS43NSBMMTU0MS4wNjI1LDEwMzkuNzUgUTE1NDEuMDYyNSwxMDM5Ljc1IDE1NDEuMDYyNSwxMDM3LjYyNSBMMTUzOS4zMTI1LDEwMzcuNjI1IFogTTE1NDAuMzc1LDEwMzguMzEyNSBMMTU0Mi4xMjUsMTAzOC4zMTI1IFExNTQyLjEyNSwxMDM4LjMxMjUgMTU0Mi4xMjUsMTAzNS41IEwxNTQwLjM3NSwxMDM1LjUgUTE1NDAuMzc1LDEwMzUuNSAxNTQwLjM3NSwxMDM4LjMxMjUgWiBNMTU0NS4zMTI1LDEwMzguMzEyNSBRMTU0NS4zMTI1LDEwMzguMzEyNSAxNTQ1LjMxMjUsMTAzNS41IEwxNTQzLjU2MjUsMTAzNS41IFExNTQzLjU2MjUsMTAzNS41IDE1NDMuNTYyNSwxMDM4LjMxMjUgTDE1NDUuMzEyNSwxMDM4LjMxMjUgWiBNMTU0MS40Mzc1LDEwMzYuMTg3NSBMMTU0NC4yNSwxMDM2LjE4NzUgTDE1NDQuMjUsMTAzNC40Mzc1IEwxNTQxLjQzNzUsMTAzNC40Mzc1IEwxNTQxLjQzNzUsMTAzNi4xODc1IFogIiBmaWxsPSIjMDAwMDAwIi8+PHRleHQgZmlsbD0iIzAwMDAwMCIgZm9udC1mYW1pbHk9InNhbnMtc2VyaWYiIGZvbnQtc2l6ZT0iMTQiIGZvbnQtc3R5bGU9Iml0YWxpYyIgbGVuZ3RoQWRqdXN0PSJzcGFjaW5nIiB0ZXh0TGVuZ3RoPSI2MyIgeD0iMTU2My4yNSIgeT0iMTA0NS43NDIyIj5DaGFyYWN0ZXI8L3RleHQ+PGxpbmUgc3R5bGU9InN0cm9rZTojMTgxODE4O3N0cm9rZS13aWR0aDowLjU7IiB4MT0iMTMyNi41IiB4Mj0iMTgzMC41IiB5MT0iMTA1NiIgeTI9IjEwNTYiLz48cmVjdCBmaWxsPSJub25lIiBoZWlnaHQ9IjYiIHN0eWxlPSJzdHJva2U6I0M4MjkzMDtzdHJva2Utd2lkdGg6MS4wOyIgd2lkdGg9IjYiIHg9IjEzMzMuNSIgeT0iMTA2NS45OTIyIi8+PHRleHQgZmlsbD0iIzAwMDAwMCIgZm9udC1mYW1pbHk9InNhbnMtc2VyaWYiIGZvbnQtc2l6ZT0iMTQiIGxlbmd0aEFkanVzdD0ic3BhY2luZyIgdGV4dExlbmd0aD0iODUiIHg9IjEzNDUuNSIgeT0iMTA3My4yMzQ0Ij5zdHJpbmcgX25hbWU8L3RleHQ+PHJlY3QgZmlsbD0ibm9uZSIgaGVpZ2h0PSI2IiBzdHlsZT0ic3Ryb2tlOiNDODI5MzA7c3Ryb2tlLXdpZHRoOjEuMDsiIHdpZHRoPSI2IiB4PSIxMzMzLjUiIHk9IjEwODAuOTc2NiIvPjx0ZXh0IGZpbGw9IiMwMDAwMDAiIGZvbnQtZmFtaWx5PSJzYW5zLXNlcmlmIiBmb250LXNpemU9IjE0IiBsZW5ndGhBZGp1c3Q9InNwYWNpbmciIHRleHRMZW5ndGg9IjcxIiB4PSIxMzQ1LjUiIHk9IjEwODguMjE4OCI+aW50IF9wb3dlcjwvdGV4dD48cmVjdCBmaWxsPSJub25lIiBoZWlnaHQ9IjYiIHN0eWxlPSJzdHJva2U6I0M4MjkzMDtzdHJva2Utd2lkdGg6MS4wOyIgd2lkdGg9IjYiIHg9IjEzMzMuNSIgeT0iMTA5NS45NjA5Ii8+PHRleHQgZmlsbD0iIzAwMDAwMCIgZm9udC1mYW1pbHk9InNhbnMtc2VyaWYiIGZvbnQtc2l6ZT0iMTQiIGxlbmd0aEFkanVzdD0ic3BhY2luZyIgdGV4dExlbmd0aD0iNzciIHg9IjEzNDUuNSIgeT0iMTEwMy4yMDMxIj5pbnQgX2hlYWx0aDwvdGV4dD48cmVjdCBmaWxsPSJub25lIiBoZWlnaHQ9IjYiIHN0eWxlPSJzdHJva2U6I0M4MjkzMDtzdHJva2Utd2lkdGg6MS4wOyIgd2lkdGg9IjYiIHg9IjEzMzMuNSIgeT0iMTExMC45NDUzIi8+PHRleHQgZmlsbD0iIzAwMDAwMCIgZm9udC1mYW1pbHk9InNhbnMtc2VyaWYiIGZvbnQtc2l6ZT0iMTQiIGxlbmd0aEFkanVzdD0ic3BhY2luZyIgdGV4dExlbmd0aD0iOTkiIHg9IjEzNDUuNSIgeT0iMTExOC4xODc1Ij5pbnQgX21heEhlYWx0aDwvdGV4dD48cmVjdCBmaWxsPSJub25lIiBoZWlnaHQ9IjYiIHN0eWxlPSJzdHJva2U6I0M4MjkzMDtzdHJva2Utd2lkdGg6MS4wOyIgd2lkdGg9IjYiIHg9IjEzMzMuNSIgeT0iMTEyNS45Mjk3Ii8+PHRleHQgZmlsbD0iIzAwMDAwMCIgZm9udC1mYW1pbHk9InNhbnMtc2VyaWYiIGZvbnQtc2l6ZT0iMTQiIGxlbmd0aEFkanVzdD0ic3BhY2luZyIgdGV4dExlbmd0aD0iMTU0IiB4PSIxMzQ1LjUiIHk9IjExMzMuMTcxOSI+c3RyaW5nIF9zcGVjaWFsQWJpbGl0eTwvdGV4dD48cmVjdCBmaWxsPSJub25lIiBoZWlnaHQ9IjYiIHN0eWxlPSJzdHJva2U6I0M4MjkzMDtzdHJva2Utd2lkdGg6MS4wOyIgd2lkdGg9IjYiIHg9IjEzMzMuNSIgeT0iMTE0MC45MTQxIi8+PHRleHQgZmlsbD0iIzAwMDAwMCIgZm9udC1mYW1pbHk9InNhbnMtc2VyaWYiIGZvbnQtc2l6ZT0iMTQiIGxlbmd0aEFkanVzdD0ic3BhY2luZyIgdGV4dExlbmd0aD0iMTU1IiB4PSIxMzQ1LjUiIHk9IjExNDguMTU2MyI+aW50IF90cmFuc2Zvcm1hdGlvbkx2bDwvdGV4dD48cmVjdCBmaWxsPSJub25lIiBoZWlnaHQ9IjYiIHN0eWxlPSJzdHJva2U6I0M4MjkzMDtzdHJva2Utd2lkdGg6MS4wOyIgd2lkdGg9IjYiIHg9IjEzMzMuNSIgeT0iMTE1NS44OTg0Ii8+PHRleHQgZmlsbD0iIzAwMDAwMCIgZm9udC1mYW1pbHk9InNhbnMtc2VyaWYiIGZvbnQtc2l6ZT0iMTQiIGxlbmd0aEFkanVzdD0ic3BhY2luZyIgdGV4dExlbmd0aD0iOTIiIHg9IjEzNDUuNSIgeT0iMTE2My4xNDA2Ij5pbnQgX21heExldmVsPC90ZXh0PjxyZWN0IGZpbGw9Im5vbmUiIGhlaWdodD0iNiIgc3R5bGU9InN0cm9rZTojQzgyOTMwO3N0cm9rZS13aWR0aDoxLjA7IiB3aWR0aD0iNiIgeD0iMTMzMy41IiB5PSIxMTcwLjg4MjgiLz48dGV4dCBmaWxsPSIjMDAwMDAwIiBmb250LWZhbWlseT0ic2Fucy1zZXJpZiIgZm9udC1zaXplPSIxNCIgbGVuZ3RoQWRqdXN0PSJzcGFjaW5nIiB0ZXh0TGVuZ3RoPSI4NSIgeD0iMTM0NS41IiB5PSIxMTc4LjEyNSI+c3RyaW5nIF9mb3JtPC90ZXh0PjxyZWN0IGZpbGw9Im5vbmUiIGhlaWdodD0iNiIgc3R5bGU9InN0cm9rZTojQzgyOTMwO3N0cm9rZS13aWR0aDoxLjA7IiB3aWR0aD0iNiIgeD0iMTMzMy41IiB5PSIxMTg1Ljg2NzIiLz48dGV4dCBmaWxsPSIjMDAwMDAwIiBmb250LWZhbWlseT0ic2Fucy1zZXJpZiIgZm9udC1zaXplPSIxNCIgbGVuZ3RoQWRqdXN0PSJzcGFjaW5nIiB0ZXh0TGVuZ3RoPSI3NyIgeD0iMTM0NS41IiB5PSIxMTkzLjEwOTQiPmludCBfZW5lcmd5PC90ZXh0PjxyZWN0IGZpbGw9Im5vbmUiIGhlaWdodD0iNiIgc3R5bGU9InN0cm9rZTojQzgyOTMwO3N0cm9rZS13aWR0aDoxLjA7IiB3aWR0aD0iNiIgeD0iMTMzMy41IiB5PSIxMjAwLjg1MTYiLz48dGV4dCBmaWxsPSIjMDAwMDAwIiBmb250LWZhbWlseT0ic2Fucy1zZXJpZiIgZm9udC1zaXplPSIxNCIgbGVuZ3RoQWRqdXN0PSJzcGFjaW5nIiB0ZXh0TGVuZ3RoPSIxMTIiIHg9IjEzNDUuNSIgeT0iMTIwOC4wOTM4Ij5ib29sIF9pc0Jsb2NraW5nPC90ZXh0PjxlbGxpcHNlIGN4PSIxMzM2LjUiIGN5PSIxMjE4LjgzNTkiIGZpbGw9Im5vbmUiIHJ4PSIzIiByeT0iMyIgc3R5bGU9InN0cm9rZTojMDM4MDQ4O3N0cm9rZS13aWR0aDoxLjA7Ii8+PHRleHQgZmlsbD0iIzAwMDAwMCIgZm9udC1mYW1pbHk9InNhbnMtc2VyaWYiIGZvbnQtc2l6ZT0iMTQiIGxlbmd0aEFkanVzdD0ic3BhY2luZyIgdGV4dExlbmd0aD0iMTcxIiB4PSIxMzQ1LjUiIHk9IjEyMjMuMDc4MSI+TmFtZSAmIzE3MTtwcm9wZXJ0eSYjMTg3OyA6IHN0cmluZzwvdGV4dD48ZWxsaXBzZSBjeD0iMTMzNi41IiBjeT0iMTIzMy44MjAzIiBmaWxsPSJub25lIiByeD0iMyIgcnk9IjMiIHN0eWxlPSJzdHJva2U6IzAzODA0ODtzdHJva2Utd2lkdGg6MS4wOyIvPjx0ZXh0IGZpbGw9IiMwMDAwMDAiIGZvbnQtZmFtaWx5PSJzYW5zLXNlcmlmIiBmb250LXNpemU9IjE0IiBsZW5ndGhBZGp1c3Q9InNwYWNpbmciIHRleHRMZW5ndGg9IjE1NyIgeD0iMTM0NS41IiB5PSIxMjM4LjA2MjUiPlBvd2VyICYjMTcxO3Byb3BlcnR5JiMxODc7IDogaW50PC90ZXh0PjxlbGxpcHNlIGN4PSIxMzM2LjUiIGN5PSIxMjQ4LjgwNDciIGZpbGw9Im5vbmUiIHJ4PSIzIiByeT0iMyIgc3R5bGU9InN0cm9rZTojMDM4MDQ4O3N0cm9rZS13aWR0aDoxLjA7Ii8+PHRleHQgZmlsbD0iIzAwMDAwMCIgZm9udC1mYW1pbHk9InNhbnMtc2VyaWYiIGZvbnQtc2l6ZT0iMTQiIGxlbmd0aEFkanVzdD0ic3BhY2luZyIgdGV4dExlbmd0aD0iMTYzIiB4PSIxMzQ1LjUiIHk9IjEyNTMuMDQ2OSI+SGVhbHRoICYjMTcxO3Byb3BlcnR5JiMxODc7IDogaW50PC90ZXh0PjxlbGxpcHNlIGN4PSIxMzM2LjUiIGN5PSIxMjYzLjc4OTEiIGZpbGw9Im5vbmUiIHJ4PSIzIiByeT0iMyIgc3R5bGU9InN0cm9rZTojMDM4MDQ4O3N0cm9rZS13aWR0aDoxLjA7Ii8+PHRleHQgZmlsbD0iIzAwMDAwMCIgZm9udC1mYW1pbHk9InNhbnMtc2VyaWYiIGZvbnQtc2l6ZT0iMTQiIGxlbmd0aEFkanVzdD0ic3BhY2luZyIgdGV4dExlbmd0aD0iMTg0IiB4PSIxMzQ1LjUiIHk9IjEyNjguMDMxMyI+TWF4SGVhbHRoICYjMTcxO3Byb3BlcnR5JiMxODc7IDogaW50PC90ZXh0PjxlbGxpcHNlIGN4PSIxMzM2LjUiIGN5PSIxMjc4Ljc3MzQiIGZpbGw9Im5vbmUiIHJ4PSIzIiByeT0iMyIgc3R5bGU9InN0cm9rZTojMDM4MDQ4O3N0cm9rZS13aWR0aDoxLjA7Ii8+PHRleHQgZmlsbD0iIzAwMDAwMCIgZm9udC1mYW1pbHk9InNhbnMtc2VyaWYiIGZvbnQtc2l6ZT0iMTQiIGxlbmd0aEFkanVzdD0ic3BhY2luZyIgdGV4dExlbmd0aD0iMjQwIiB4PSIxMzQ1LjUiIHk9IjEyODMuMDE1NiI+U3BlY2lhbEFiaWxpdHkgJiMxNzE7cHJvcGVydHkmIzE4NzsgOiBzdHJpbmc8L3RleHQ+PGVsbGlwc2UgY3g9IjEzMzYuNSIgY3k9IjEyOTMuNzU3OCIgZmlsbD0ibm9uZSIgcng9IjMiIHJ5PSIzIiBzdHlsZT0ic3Ryb2tlOiMwMzgwNDg7c3Ryb2tlLXdpZHRoOjEuMDsiLz48dGV4dCBmaWxsPSIjMDAwMDAwIiBmb250LWZhbWlseT0ic2Fucy1zZXJpZiIgZm9udC1zaXplPSIxNCIgbGVuZ3RoQWRqdXN0PSJzcGFjaW5nIiB0ZXh0TGVuZ3RoPSIyNTUiIHg9IjEzNDUuNSIgeT0iMTI5OCI+VHJhbnNmb3JtYXRpb25MZXZlbCAmIzE3MTtwcm9wZXJ0eSYjMTg3OyA6IGludDwvdGV4dD48ZWxsaXBzZSBjeD0iMTMzNi41IiBjeT0iMTMwOC43NDIyIiBmaWxsPSJub25lIiByeD0iMyIgcnk9IjMiIHN0eWxlPSJzdHJva2U6IzAzODA0ODtzdHJva2Utd2lkdGg6MS4wOyIvPjx0ZXh0IGZpbGw9IiMwMDAwMDAiIGZvbnQtZmFtaWx5PSJzYW5zLXNlcmlmIiBmb250LXNpemU9IjE0IiBsZW5ndGhBZGp1c3Q9InNwYWNpbmciIHRleHRMZW5ndGg9IjI0NyIgeD0iMTM0NS41IiB5PSIxMzEyLjk4NDQiPk1heExldmVsICYjMTcxO3Byb3BlcnR5LCBhYnN0cmFjdCYjMTg3OyA6IGludDwvdGV4dD48ZWxsaXBzZSBjeD0iMTMzNi41IiBjeT0iMTMyMy43MjY2IiBmaWxsPSJub25lIiByeD0iMyIgcnk9IjMiIHN0eWxlPSJzdHJva2U6IzAzODA0ODtzdHJva2Utd2lkdGg6MS4wOyIvPjx0ZXh0IGZpbGw9IiMwMDAwMDAiIGZvbnQtZmFtaWx5PSJzYW5zLXNlcmlmIiBmb250LXNpemU9IjE0IiBsZW5ndGhBZGp1c3Q9InNwYWNpbmciIHRleHRMZW5ndGg9IjE3MSIgeD0iMTM0NS41IiB5PSIxMzI3Ljk2ODgiPkZvcm0gJiMxNzE7cHJvcGVydHkmIzE4NzsgOiBzdHJpbmc8L3RleHQ+PGVsbGlwc2UgY3g9IjEzMzYuNSIgY3k9IjEzMzguNzEwOSIgZmlsbD0ibm9uZSIgcng9IjMiIHJ5PSIzIiBzdHlsZT0ic3Ryb2tlOiMwMzgwNDg7c3Ryb2tlLXdpZHRoOjEuMDsiLz48dGV4dCBmaWxsPSIjMDAwMDAwIiBmb250LWZhbWlseT0ic2Fucy1zZXJpZiIgZm9udC1zaXplPSIxNCIgbGVuZ3RoQWRqdXN0PSJzcGFjaW5nIiB0ZXh0TGVuZ3RoPSIxNjMiIHg9IjEzNDUuNSIgeT0iMTM0Mi45NTMxIj5FbmVyZ3kgJiMxNzE7cHJvcGVydHkmIzE4NzsgOiBpbnQ8L3RleHQ+PGVsbGlwc2UgY3g9IjEzMzYuNSIgY3k9IjEzNTMuNjk1MyIgZmlsbD0ibm9uZSIgcng9IjMiIHJ5PSIzIiBzdHlsZT0ic3Ryb2tlOiMwMzgwNDg7c3Ryb2tlLXdpZHRoOjEuMDsiLz48dGV4dCBmaWxsPSIjMDAwMDAwIiBmb250LWZhbWlseT0ic2Fucy1zZXJpZiIgZm9udC1zaXplPSIxNCIgbGVuZ3RoQWRqdXN0PSJzcGFjaW5nIiB0ZXh0TGVuZ3RoPSIxOTgiIHg9IjEzNDUuNSIgeT0iMTM1Ny45Mzc1Ij5Jc0Jsb2NraW5nICYjMTcxO3Byb3BlcnR5JiMxODc7IDogYm9vbDwvdGV4dD48bGluZSBzdHlsZT0ic3Ryb2tlOiMxODE4MTg7c3Ryb2tlLXdpZHRoOjAuNTsiIHgxPSIxMzI2LjUiIHgyPSIxODMwLjUiIHkxPSIxMzYzLjY4NzUiIHkyPSIxMzYzLjY4NzUiLz48ZWxsaXBzZSBjeD0iMTMzNi41IiBjeT0iMTM3Ni42Nzk3IiBmaWxsPSIjODRCRTg0IiByeD0iMyIgcnk9IjMiIHN0eWxlPSJzdHJva2U6IzAzODA0ODtzdHJva2Utd2lkdGg6MS4wOyIvPjx0ZXh0IGZpbGw9IiMwMDAwMDAiIGZvbnQtZmFtaWx5PSJzYW5zLXNlcmlmIiBmb250LXNpemU9IjE0IiBsZW5ndGhBZGp1c3Q9InNwYWNpbmciIHRleHRMZW5ndGg9IjQ4MCIgeD0iMTM0NS41IiB5PSIxMzgwLjkyMTkiPkNoYXJhY3RlcihzdHJpbmcgbmFtZSwgaW50IHBvd2VyLCBpbnQgaGVhbHRoLCBzdHJpbmcgc3BlY2lhbEFiaWxpdHkpPC90ZXh0PjxlbGxpcHNlIGN4PSIxMzM2LjUiIGN5PSIxMzkxLjY2NDEiIGZpbGw9IiM4NEJFODQiIHJ4PSIzIiByeT0iMyIgc3R5bGU9InN0cm9rZTojMDM4MDQ4O3N0cm9rZS13aWR0aDoxLjA7Ii8+PHRleHQgZmlsbD0iIzAwMDAwMCIgZm9udC1mYW1pbHk9InNhbnMtc2VyaWYiIGZvbnQtc2l6ZT0iMTQiIGxlbmd0aEFkanVzdD0ic3BhY2luZyIgdGV4dExlbmd0aD0iNTEiIHg9IjEzNDUuNSIgeT0iMTM5NS45MDYzIj5CbG9jaygpPC90ZXh0PjxlbGxpcHNlIGN4PSIxMzM2LjUiIGN5PSIxNDA2LjY0ODQiIGZpbGw9IiM4NEJFODQiIHJ4PSIzIiByeT0iMyIgc3R5bGU9InN0cm9rZTojMDM4MDQ4O3N0cm9rZS13aWR0aDoxLjA7Ii8+PHRleHQgZmlsbD0iIzAwMDAwMCIgZm9udC1mYW1pbHk9InNhbnMtc2VyaWYiIGZvbnQtc2l6ZT0iMTQiIGxlbmd0aEFkanVzdD0ic3BhY2luZyIgdGV4dExlbmd0aD0iMTAwIiB4PSIxMzQ1LjUiIHk9IjE0MTAuODkwNiI+U3RvcEJsb2NraW5nKCk8L3RleHQ+PGVsbGlwc2UgY3g9IjEzMzYuNSIgY3k9IjE0MjEuNjMyOCIgZmlsbD0iIzg0QkU4NCIgcng9IjMiIHJ5PSIzIiBzdHlsZT0ic3Ryb2tlOiMwMzgwNDg7c3Ryb2tlLXdpZHRoOjEuMDsiLz48dGV4dCBmaWxsPSIjMDAwMDAwIiBmb250LWZhbWlseT0ic2Fucy1zZXJpZiIgZm9udC1zaXplPSIxNCIgbGVuZ3RoQWRqdXN0PSJzcGFjaW5nIiB0ZXh0TGVuZ3RoPSIxODUiIHg9IjEzNDUuNSIgeT0iMTQyNS44NzUiPkluY3JlYXNlRW5lcmd5KGludCBhbW91bnQpPC90ZXh0PjxlbGxpcHNlIGN4PSIxMzM2LjUiIGN5PSIxNDM2LjYxNzIiIGZpbGw9IiM4NEJFODQiIHJ4PSIzIiByeT0iMyIgc3R5bGU9InN0cm9rZTojMDM4MDQ4O3N0cm9rZS13aWR0aDoxLjA7Ii8+PHRleHQgZmlsbD0iIzAwMDAwMCIgZm9udC1mYW1pbHk9InNhbnMtc2VyaWYiIGZvbnQtc2l6ZT0iMTQiIGxlbmd0aEFkanVzdD0ic3BhY2luZyIgdGV4dExlbmd0aD0iOTMiIHg9IjEzNDUuNSIgeT0iMTQ0MC44NTk0Ij5SZXNldEVuZXJneSgpPC90ZXh0PjxlbGxpcHNlIGN4PSIxMzM2LjUiIGN5PSIxNDUxLjYwMTYiIGZpbGw9IiM4NEJFODQiIHJ4PSIzIiByeT0iMyIgc3R5bGU9InN0cm9rZTojMDM4MDQ4O3N0cm9rZS13aWR0aDoxLjA7Ii8+PHRleHQgZmlsbD0iIzAwMDAwMCIgZm9udC1mYW1pbHk9InNhbnMtc2VyaWYiIGZvbnQtc2l6ZT0iMTQiIGxlbmd0aEFkanVzdD0ic3BhY2luZyIgdGV4dExlbmd0aD0iMjI4IiB4PSIxMzQ1LjUiIHk9IjE0NTUuODQzOCI+T25EdXBsaWNhdGVSZWNydWl0ZWQoKSAmIzE3MTt2aXJ0dWFsJiMxODc7PC90ZXh0PjxlbGxpcHNlIGN4PSIxMzM2LjUiIGN5PSIxNDY2LjU4NTkiIGZpbGw9IiM4NEJFODQiIHJ4PSIzIiByeT0iMyIgc3R5bGU9InN0cm9rZTojMDM4MDQ4O3N0cm9rZS13aWR0aDoxLjA7Ii8+PHRleHQgZmlsbD0iIzAwMDAwMCIgZm9udC1mYW1pbHk9InNhbnMtc2VyaWYiIGZvbnQtc2l6ZT0iMTQiIGxlbmd0aEFkanVzdD0ic3BhY2luZyIgdGV4dExlbmd0aD0iNDUzIiB4PSIxMzQ1LjUiIHk9IjE0NzAuODI4MSI+U2V0VHJhbnNmb3JtYXRpb25TdGF0ZShJVHJhbnNmb3JtYXRpb25TdGF0ZSB0cmFuc2Zvcm1hdGlvblN0YXRlKTwvdGV4dD48ZWxsaXBzZSBjeD0iMTMzNi41IiBjeT0iMTQ4MS41NzAzIiBmaWxsPSIjODRCRTg0IiByeD0iMyIgcnk9IjMiIHN0eWxlPSJzdHJva2U6IzAzODA0ODtzdHJva2Utd2lkdGg6MS4wOyIvPjx0ZXh0IGZpbGw9IiMwMDAwMDAiIGZvbnQtZmFtaWx5PSJzYW5zLXNlcmlmIiBmb250LXNpemU9IjE0IiBsZW5ndGhBZGp1c3Q9InNwYWNpbmciIHRleHRMZW5ndGg9IjkzIiB4PSIxMzQ1LjUiIHk9IjE0ODUuODEyNSI+UmVzZXRIZWFsdGgoKTwvdGV4dD48L2c+PCEtLWNsYXNzIEdva3UtLT48ZyBpZD0iZWxlbV9Hb2t1Ij48cmVjdCBjb2RlTGluZT0iNjYiIGZpbGw9IiNGMUYxRjEiIGhlaWdodD0iOTIuOTUzMSIgaWQ9Ikdva3UiIHJ4PSIyLjUiIHJ5PSIyLjUiIHN0eWxlPSJzdHJva2U6IzE4MTgxODtzdHJva2Utd2lkdGg6MC41OyIgd2lkdGg9IjI5NCIgeD0iMTI2Ny41IiB5PSIxNTUyIi8+PGVsbGlwc2UgY3g9IjEzOTYuMjUiIGN5PSIxNTY4IiBmaWxsPSIjQUREMUIyIiByeD0iMTEiIHJ5PSIxMSIgc3R5bGU9InN0cm9rZTojMTgxODE4O3N0cm9rZS13aWR0aDoxLjA7Ii8+PHBhdGggZD0iTTEzOTMuODc1LDE1NzIuMjUgTDEzOTMuODc1LDE1NzQgTDEzOTguODEyNSwxNTc0IEwxMzk4LjgxMjUsMTU3Mi4yNSBMMTM5My44NzUsMTU3Mi4yNSBaIE0xMzk0LjU2MjUsMTU3Mi45Mzc1IFExMzk0LjU2MjUsMTU3Mi45Mzc1IDEzOTQuNTYyNSwxNTYzLjc1IEwxMzkyLjgxMjUsMTU2My43NSBRMTM5Mi44MTI1LDE1NjMuNzUgMTM5Mi44MTI1LDE1NzIuOTM3NSBMMTM5NC41NjI1LDE1NzIuOTM3NSBaIE0xMzk4LjEyNSwxNTcyLjkzNzUgTDEzOTkuODc1LDE1NzIuOTM3NSBRMTM5OS44NzUsMTU3Mi45Mzc1IDEzOTkuODc1LDE1NzAuMTI1IEwxMzk4LjEyNSwxNTcwLjEyNSBRMTM5OC4xMjUsMTU3MC4xMjUgMTM5OC4xMjUsMTU3Mi45Mzc1IFogTTEzOTguMTI1LDE1NjMuNzUgUTEzOTguMTI1LDE1NjMuNzUgMTM5OC4xMjUsMTU2Ni41NjI1IEwxMzk5Ljg3NSwxNTY2LjU2MjUgUTEzOTkuODc1LDE1NjYuNTYyNSAxMzk5Ljg3NSwxNTYzLjc1IEwxMzk4LjEyNSwxNTYzLjc1IFogTTEzOTMuODc1LDE1NjQuNDM3NSBMMTM5OC44MTI1LDE1NjQuNDM3NSBMMTM5OC44MTI1LDE1NjIuNjg3NSBMMTM5My44NzUsMTU2Mi42ODc1IEwxMzkzLjg3NSwxNTY0LjQzNzUgWiAiIGZpbGw9IiMwMDAwMDAiLz48dGV4dCBmaWxsPSIjMDAwMDAwIiBmb250LWZhbWlseT0ic2Fucy1zZXJpZiIgZm9udC1zaXplPSIxNCIgbGVuZ3RoQWRqdXN0PSJzcGFjaW5nIiB0ZXh0TGVuZ3RoPSIyOCIgeD0iMTQxNi43NSIgeT0iMTU3My43NDIyIj5Hb2t1PC90ZXh0PjxsaW5lIHN0eWxlPSJzdHJva2U6IzE4MTgxODtzdHJva2Utd2lkdGg6MC41OyIgeDE9IjEyNjguNSIgeDI9IjE1NjAuNSIgeTE9IjE1ODQiIHkyPSIxNTg0Ii8+PGVsbGlwc2UgY3g9IjEyNzguNSIgY3k9IjE1OTYuOTkyMiIgZmlsbD0ibm9uZSIgcng9IjMiIHJ5PSIzIiBzdHlsZT0ic3Ryb2tlOiMwMzgwNDg7c3Ryb2tlLXdpZHRoOjEuMDsiLz48dGV4dCBmaWxsPSIjMDAwMDAwIiBmb250LWZhbWlseT0ic2Fucy1zZXJpZiIgZm9udC1zaXplPSIxNCIgbGVuZ3RoQWRqdXN0PSJzcGFjaW5nIiB0ZXh0TGVuZ3RoPSIyNDAiIHg9IjEyODcuNSIgeT0iMTYwMS4yMzQ0Ij5NYXhMZXZlbCAmIzE3MTtwcm9wZXJ0eSYjMTg3OyA6IG92ZXJyaWRlIGludDwvdGV4dD48bGluZSBzdHlsZT0ic3Ryb2tlOiMxODE4MTg7c3Ryb2tlLXdpZHRoOjAuNTsiIHgxPSIxMjY4LjUiIHgyPSIxNTYwLjUiIHkxPSIxNjA2Ljk4NDQiIHkyPSIxNjA2Ljk4NDQiLz48ZWxsaXBzZSBjeD0iMTI3OC41IiBjeT0iMTYxOS45NzY2IiBmaWxsPSIjODRCRTg0IiByeD0iMyIgcnk9IjMiIHN0eWxlPSJzdHJva2U6IzAzODA0ODtzdHJva2Utd2lkdGg6MS4wOyIvPjx0ZXh0IGZpbGw9IiMwMDAwMDAiIGZvbnQtZmFtaWx5PSJzYW5zLXNlcmlmIiBmb250LXNpemU9IjE0IiBsZW5ndGhBZGp1c3Q9InNwYWNpbmciIHRleHRMZW5ndGg9IjQ0IiB4PSIxMjg3LjUiIHk9IjE2MjQuMjE4OCI+R29rdSgpPC90ZXh0PjxlbGxpcHNlIGN4PSIxMjc4LjUiIGN5PSIxNjM0Ljk2MDkiIGZpbGw9IiM4NEJFODQiIHJ4PSIzIiByeT0iMyIgc3R5bGU9InN0cm9rZTojMDM4MDQ4O3N0cm9rZS13aWR0aDoxLjA7Ii8+PHRleHQgZmlsbD0iIzAwMDAwMCIgZm9udC1mYW1pbHk9InNhbnMtc2VyaWYiIGZvbnQtc2l6ZT0iMTQiIGxlbmd0aEFkanVzdD0ic3BhY2luZyIgdGV4dExlbmd0aD0iMjY4IiB4PSIxMjg3LjUiIHk9IjE2MzkuMjAzMSI+T25EdXBsaWNhdGVSZWNydWl0ZWQoKSA6IG92ZXJyaWRlIHZvaWQ8L3RleHQ+PC9nPjwhLS1jbGFzcyBWZWdldGEtLT48ZyBpZD0iZWxlbV9WZWdldGEiPjxyZWN0IGNvZGVMaW5lPSI2NyIgZmlsbD0iI0YxRjFGMSIgaGVpZ2h0PSI5Mi45NTMxIiBpZD0iVmVnZXRhIiByeD0iMi41IiByeT0iMi41IiBzdHlsZT0ic3Ryb2tlOiMxODE4MTg7c3Ryb2tlLXdpZHRoOjAuNTsiIHdpZHRoPSIyOTQiIHg9IjE1OTYuNSIgeT0iMTU1MiIvPjxlbGxpcHNlIGN4PSIxNzE4LjI1IiBjeT0iMTU2OCIgZmlsbD0iI0FERDFCMiIgcng9IjExIiByeT0iMTEiIHN0eWxlPSJzdHJva2U6IzE4MTgxODtzdHJva2Utd2lkdGg6MS4wOyIvPjxwYXRoIGQ9Ik0xNzE1Ljg3NSwxNTcyLjI1IEwxNzE1Ljg3NSwxNTc0IEwxNzIwLjgxMjUsMTU3NCBMMTcyMC44MTI1LDE1NzIuMjUgTDE3MTUuODc1LDE1NzIuMjUgWiBNMTcxNi41NjI1LDE1NzIuOTM3NSBRMTcxNi41NjI1LDE1NzIuOTM3NSAxNzE2LjU2MjUsMTU2My43NSBMMTcxNC44MTI1LDE1NjMuNzUgUTE3MTQuODEyNSwxNTYzLjc1IDE3MTQuODEyNSwxNTcyLjkzNzUgTDE3MTYuNTYyNSwxNTcyLjkzNzUgWiBNMTcyMC4xMjUsMTU3Mi45Mzc1IEwxNzIxLjg3NSwxNTcyLjkzNzUgUTE3MjEuODc1LDE1NzIuOTM3NSAxNzIxLjg3NSwxNTcwLjEyNSBMMTcyMC4xMjUsMTU3MC4xMjUgUTE3MjAuMTI1LDE1NzAuMTI1IDE3MjAuMTI1LDE1NzIuOTM3NSBaIE0xNzIwLjEyNSwxNTYzLjc1IFExNzIwLjEyNSwxNTYzLjc1IDE3MjAuMTI1LDE1NjYuNTYyNSBMMTcyMS44NzUsMTU2Ni41NjI1IFExNzIxLjg3NSwxNTY2LjU2MjUgMTcyMS44NzUsMTU2My43NSBMMTcyMC4xMjUsMTU2My43NSBaIE0xNzE1Ljg3NSwxNTY0LjQzNzUgTDE3MjAuODEyNSwxNTY0LjQzNzUgTDE3MjAuODEyNSwxNTYyLjY4NzUgTDE3MTUuODc1LDE1NjIuNjg3NSBMMTcxNS44NzUsMTU2NC40Mzc1IFogIiBmaWxsPSIjMDAwMDAwIi8+PHRleHQgZmlsbD0iIzAwMDAwMCIgZm9udC1mYW1pbHk9InNhbnMtc2VyaWYiIGZvbnQtc2l6ZT0iMTQiIGxlbmd0aEFkanVzdD0ic3BhY2luZyIgdGV4dExlbmd0aD0iNDIiIHg9IjE3MzguNzUiIHk9IjE1NzMuNzQyMiI+VmVnZXRhPC90ZXh0PjxsaW5lIHN0eWxlPSJzdHJva2U6IzE4MTgxODtzdHJva2Utd2lkdGg6MC41OyIgeDE9IjE1OTcuNSIgeDI9IjE4ODkuNSIgeTE9IjE1ODQiIHkyPSIxNTg0Ii8+PGVsbGlwc2UgY3g9IjE2MDcuNSIgY3k9IjE1OTYuOTkyMiIgZmlsbD0ibm9uZSIgcng9IjMiIHJ5PSIzIiBzdHlsZT0ic3Ryb2tlOiMwMzgwNDg7c3Ryb2tlLXdpZHRoOjEuMDsiLz48dGV4dCBmaWxsPSIjMDAwMDAwIiBmb250LWZhbWlseT0ic2Fucy1zZXJpZiIgZm9udC1zaXplPSIxNCIgbGVuZ3RoQWRqdXN0PSJzcGFjaW5nIiB0ZXh0TGVuZ3RoPSIyNDAiIHg9IjE2MTYuNSIgeT0iMTYwMS4yMzQ0Ij5NYXhMZXZlbCAmIzE3MTtwcm9wZXJ0eSYjMTg3OyA6IG92ZXJyaWRlIGludDwvdGV4dD48bGluZSBzdHlsZT0ic3Ryb2tlOiMxODE4MTg7c3Ryb2tlLXdpZHRoOjAuNTsiIHgxPSIxNTk3LjUiIHgyPSIxODg5LjUiIHkxPSIxNjA2Ljk4NDQiIHkyPSIxNjA2Ljk4NDQiLz48ZWxsaXBzZSBjeD0iMTYwNy41IiBjeT0iMTYxOS45NzY2IiBmaWxsPSIjODRCRTg0IiByeD0iMyIgcnk9IjMiIHN0eWxlPSJzdHJva2U6IzAzODA0ODtzdHJva2Utd2lkdGg6MS4wOyIvPjx0ZXh0IGZpbGw9IiMwMDAwMDAiIGZvbnQtZmFtaWx5PSJzYW5zLXNlcmlmIiBmb250LXNpemU9IjE0IiBsZW5ndGhBZGp1c3Q9InNwYWNpbmciIHRleHRMZW5ndGg9IjU4IiB4PSIxNjE2LjUiIHk9IjE2MjQuMjE4OCI+VmVnZXRhKCk8L3RleHQ+PGVsbGlwc2UgY3g9IjE2MDcuNSIgY3k9IjE2MzQuOTYwOSIgZmlsbD0iIzg0QkU4NCIgcng9IjMiIHJ5PSIzIiBzdHlsZT0ic3Ryb2tlOiMwMzgwNDg7c3Ryb2tlLXdpZHRoOjEuMDsiLz48dGV4dCBmaWxsPSIjMDAwMDAwIiBmb250LWZhbWlseT0ic2Fucy1zZXJpZiIgZm9udC1zaXplPSIxNCIgbGVuZ3RoQWRqdXN0PSJzcGFjaW5nIiB0ZXh0TGVuZ3RoPSIyNjgiIHg9IjE2MTYuNSIgeT0iMTYzOS4yMDMxIj5PbkR1cGxpY2F0ZVJlY3J1aXRlZCgpIDogb3ZlcnJpZGUgdm9pZDwvdGV4dD48L2c+PCEtLWNsYXNzIEdvaGFuLS0+PGcgaWQ9ImVsZW1fR29oYW4iPjxyZWN0IGNvZGVMaW5lPSI2OCIgZmlsbD0iI0YxRjFGMSIgaGVpZ2h0PSI5Mi45NTMxIiBpZD0iR29oYW4iIHJ4PSIyLjUiIHJ5PSIyLjUiIHN0eWxlPSJzdHJva2U6IzE4MTgxODtzdHJva2Utd2lkdGg6MC41OyIgd2lkdGg9IjI5NCIgeD0iMTkyNS41IiB5PSIxNTUyIi8+PGVsbGlwc2UgY3g9IjIwNTAuNzUiIGN5PSIxNTY4IiBmaWxsPSIjQUREMUIyIiByeD0iMTEiIHJ5PSIxMSIgc3R5bGU9InN0cm9rZTojMTgxODE4O3N0cm9rZS13aWR0aDoxLjA7Ii8+PHBhdGggZD0iTTIwNDguMzc1LDE1NzIuMjUgTDIwNDguMzc1LDE1NzQgTDIwNTMuMzEyNSwxNTc0IEwyMDUzLjMxMjUsMTU3Mi4yNSBMMjA0OC4zNzUsMTU3Mi4yNSBaIE0yMDQ5LjA2MjUsMTU3Mi45Mzc1IFEyMDQ5LjA2MjUsMTU3Mi45Mzc1IDIwNDkuMDYyNSwxNTYzLjc1IEwyMDQ3LjMxMjUsMTU2My43NSBRMjA0Ny4zMTI1LDE1NjMuNzUgMjA0Ny4zMTI1LDE1NzIuOTM3NSBMMjA0OS4wNjI1LDE1NzIuOTM3NSBaIE0yMDUyLjYyNSwxNTcyLjkzNzUgTDIwNTQuMzc1LDE1NzIuOTM3NSBRMjA1NC4zNzUsMTU3Mi45Mzc1IDIwNTQuMzc1LDE1NzAuMTI1IEwyMDUyLjYyNSwxNTcwLjEyNSBRMjA1Mi42MjUsMTU3MC4xMjUgMjA1Mi42MjUsMTU3Mi45Mzc1IFogTTIwNTIuNjI1LDE1NjMuNzUgUTIwNTIuNjI1LDE1NjMuNzUgMjA1Mi42MjUsMTU2Ni41NjI1IEwyMDU0LjM3NSwxNTY2LjU2MjUgUTIwNTQuMzc1LDE1NjYuNTYyNSAyMDU0LjM3NSwxNTYzLjc1IEwyMDUyLjYyNSwxNTYzLjc1IFogTTIwNDguMzc1LDE1NjQuNDM3NSBMMjA1My4zMTI1LDE1NjQuNDM3NSBMMjA1My4zMTI1LDE1NjIuNjg3NSBMMjA0OC4zNzUsMTU2Mi42ODc1IEwyMDQ4LjM3NSwxNTY0LjQzNzUgWiAiIGZpbGw9IiMwMDAwMDAiLz48dGV4dCBmaWxsPSIjMDAwMDAwIiBmb250LWZhbWlseT0ic2Fucy1zZXJpZiIgZm9udC1zaXplPSIxNCIgbGVuZ3RoQWRqdXN0PSJzcGFjaW5nIiB0ZXh0TGVuZ3RoPSIzNSIgeD0iMjA3MS4yNSIgeT0iMTU3My43NDIyIj5Hb2hhbjwvdGV4dD48bGluZSBzdHlsZT0ic3Ryb2tlOiMxODE4MTg7c3Ryb2tlLXdpZHRoOjAuNTsiIHgxPSIxOTI2LjUiIHgyPSIyMjE4LjUiIHkxPSIxNTg0IiB5Mj0iMTU4NCIvPjxlbGxpcHNlIGN4PSIxOTM2LjUiIGN5PSIxNTk2Ljk5MjIiIGZpbGw9Im5vbmUiIHJ4PSIzIiByeT0iMyIgc3R5bGU9InN0cm9rZTojMDM4MDQ4O3N0cm9rZS13aWR0aDoxLjA7Ii8+PHRleHQgZmlsbD0iIzAwMDAwMCIgZm9udC1mYW1pbHk9InNhbnMtc2VyaWYiIGZvbnQtc2l6ZT0iMTQiIGxlbmd0aEFkanVzdD0ic3BhY2luZyIgdGV4dExlbmd0aD0iMjQwIiB4PSIxOTQ1LjUiIHk9IjE2MDEuMjM0NCI+TWF4TGV2ZWwgJiMxNzE7cHJvcGVydHkmIzE4NzsgOiBvdmVycmlkZSBpbnQ8L3RleHQ+PGxpbmUgc3R5bGU9InN0cm9rZTojMTgxODE4O3N0cm9rZS13aWR0aDowLjU7IiB4MT0iMTkyNi41IiB4Mj0iMjIxOC41IiB5MT0iMTYwNi45ODQ0IiB5Mj0iMTYwNi45ODQ0Ii8+PGVsbGlwc2UgY3g9IjE5MzYuNSIgY3k9IjE2MTkuOTc2NiIgZmlsbD0iIzg0QkU4NCIgcng9IjMiIHJ5PSIzIiBzdHlsZT0ic3Ryb2tlOiMwMzgwNDg7c3Ryb2tlLXdpZHRoOjEuMDsiLz48dGV4dCBmaWxsPSIjMDAwMDAwIiBmb250LWZhbWlseT0ic2Fucy1zZXJpZiIgZm9udC1zaXplPSIxNCIgbGVuZ3RoQWRqdXN0PSJzcGFjaW5nIiB0ZXh0TGVuZ3RoPSI1MSIgeD0iMTk0NS41IiB5PSIxNjI0LjIxODgiPkdvaGFuKCk8L3RleHQ+PGVsbGlwc2UgY3g9IjE5MzYuNSIgY3k9IjE2MzQuOTYwOSIgZmlsbD0iIzg0QkU4NCIgcng9IjMiIHJ5PSIzIiBzdHlsZT0ic3Ryb2tlOiMwMzgwNDg7c3Ryb2tlLXdpZHRoOjEuMDsiLz48dGV4dCBmaWxsPSIjMDAwMDAwIiBmb250LWZhbWlseT0ic2Fucy1zZXJpZiIgZm9udC1zaXplPSIxNCIgbGVuZ3RoQWRqdXN0PSJzcGFjaW5nIiB0ZXh0TGVuZ3RoPSIyNjgiIHg9IjE5NDUuNSIgeT0iMTYzOS4yMDMxIj5PbkR1cGxpY2F0ZVJlY3J1aXRlZCgpIDogb3ZlcnJpZGUgdm9pZDwvdGV4dD48L2c+PCEtLWNsYXNzIEZyaWV6YS0tPjxnIGlkPSJlbGVtX0ZyaWV6YSI+PHJlY3QgY29kZUxpbmU9IjY5IiBmaWxsPSIjRjFGMUYxIiBoZWlnaHQ9Ijc3Ljk2ODgiIGlkPSJGcmllemEiIHJ4PSIyLjUiIHJ5PSIyLjUiIHN0eWxlPSJzdHJva2U6IzE4MTgxODtzdHJva2Utd2lkdGg6MC41OyIgd2lkdGg9IjI2NiIgeD0iMjI1NC41IiB5PSIxNTU5LjUiLz48ZWxsaXBzZSBjeD0iMjM2Mi4yNSIgY3k9IjE1NzUuNSIgZmlsbD0iI0FERDFCMiIgcng9IjExIiByeT0iMTEiIHN0eWxlPSJzdHJva2U6IzE4MTgxODtzdHJva2Utd2lkdGg6MS4wOyIvPjxwYXRoIGQ9Ik0yMzU5Ljg3NSwxNTc5Ljc1IEwyMzU5Ljg3NSwxNTgxLjUgTDIzNjQuODEyNSwxNTgxLjUgTDIzNjQuODEyNSwxNTc5Ljc1IEwyMzU5Ljg3NSwxNTc5Ljc1IFogTTIzNjAuNTYyNSwxNTgwLjQzNzUgUTIzNjAuNTYyNSwxNTgwLjQzNzUgMjM2MC41NjI1LDE1NzEuMjUgTDIzNTguODEyNSwxNTcxLjI1IFEyMzU4LjgxMjUsMTU3MS4yNSAyMzU4LjgxMjUsMTU4MC40Mzc1IEwyMzYwLjU2MjUsMTU4MC40Mzc1IFogTTIzNjQuMTI1LDE1ODAuNDM3NSBMMjM2NS44NzUsMTU4MC40Mzc1IFEyMzY1Ljg3NSwxNTgwLjQzNzUgMjM2NS44NzUsMTU3Ny42MjUgTDIzNjQuMTI1LDE1NzcuNjI1IFEyMzY0LjEyNSwxNTc3LjYyNSAyMzY0LjEyNSwxNTgwLjQzNzUgWiBNMjM2NC4xMjUsMTU3MS4yNSBRMjM2NC4xMjUsMTU3MS4yNSAyMzY0LjEyNSwxNTc0LjA2MjUgTDIzNjUuODc1LDE1NzQuMDYyNSBRMjM2NS44NzUsMTU3NC4wNjI1IDIzNjUuODc1LDE1NzEuMjUgTDIzNjQuMTI1LDE1NzEuMjUgWiBNMjM1OS44NzUsMTU3MS45Mzc1IEwyMzY0LjgxMjUsMTU3MS45Mzc1IEwyMzY0LjgxMjUsMTU3MC4xODc1IEwyMzU5Ljg3NSwxNTcwLjE4NzUgTDIzNTkuODc1LDE1NzEuOTM3NSBaICIgZmlsbD0iIzAwMDAwMCIvPjx0ZXh0IGZpbGw9IiMwMDAwMDAiIGZvbnQtZmFtaWx5PSJzYW5zLXNlcmlmIiBmb250LXNpemU9IjE0IiBsZW5ndGhBZGp1c3Q9InNwYWNpbmciIHRleHRMZW5ndGg9IjQyIiB4PSIyMzgyLjc1IiB5PSIxNTgxLjI0MjIiPkZyaWV6YTwvdGV4dD48bGluZSBzdHlsZT0ic3Ryb2tlOiMxODE4MTg7c3Ryb2tlLXdpZHRoOjAuNTsiIHgxPSIyMjU1LjUiIHgyPSIyNTE5LjUiIHkxPSIxNTkxLjUiIHkyPSIxNTkxLjUiLz48ZWxsaXBzZSBjeD0iMjI2NS41IiBjeT0iMTYwNC40OTIyIiBmaWxsPSJub25lIiByeD0iMyIgcnk9IjMiIHN0eWxlPSJzdHJva2U6IzAzODA0ODtzdHJva2Utd2lkdGg6MS4wOyIvPjx0ZXh0IGZpbGw9IiMwMDAwMDAiIGZvbnQtZmFtaWx5PSJzYW5zLXNlcmlmIiBmb250LXNpemU9IjE0IiBsZW5ndGhBZGp1c3Q9InNwYWNpbmciIHRleHRMZW5ndGg9IjI0MCIgeD0iMjI3NC41IiB5PSIxNjA4LjczNDQiPk1heExldmVsICYjMTcxO3Byb3BlcnR5JiMxODc7IDogb3ZlcnJpZGUgaW50PC90ZXh0PjxsaW5lIHN0eWxlPSJzdHJva2U6IzE4MTgxODtzdHJva2Utd2lkdGg6MC41OyIgeDE9IjIyNTUuNSIgeDI9IjI1MTkuNSIgeTE9IjE2MTQuNDg0NCIgeTI9IjE2MTQuNDg0NCIvPjxlbGxpcHNlIGN4PSIyMjY1LjUiIGN5PSIxNjI3LjQ3NjYiIGZpbGw9IiM4NEJFODQiIHJ4PSIzIiByeT0iMyIgc3R5bGU9InN0cm9rZTojMDM4MDQ4O3N0cm9rZS13aWR0aDoxLjA7Ii8+PHRleHQgZmlsbD0iIzAwMDAwMCIgZm9udC1mYW1pbHk9InNhbnMtc2VyaWYiIGZvbnQtc2l6ZT0iMTQiIGxlbmd0aEFkanVzdD0ic3BhY2luZyIgdGV4dExlbmd0aD0iNTgiIHg9IjIyNzQuNSIgeT0iMTYzMS43MTg4Ij5GcmllemEoKTwvdGV4dD48L2c+PCEtLWNsYXNzIENlbGwtLT48ZyBpZD0iZWxlbV9DZWxsIj48cmVjdCBjb2RlTGluZT0iNzAiIGZpbGw9IiNGMUYxRjEiIGhlaWdodD0iNzcuOTY4OCIgaWQ9IkNlbGwiIHJ4PSIyLjUiIHJ5PSIyLjUiIHN0eWxlPSJzdHJva2U6IzE4MTgxODtzdHJva2Utd2lkdGg6MC41OyIgd2lkdGg9IjI2NiIgeD0iMTExLjUiIHk9IjE1NTkuNSIvPjxlbGxpcHNlIGN4PSIyMjYuMjUiIGN5PSIxNTc1LjUiIGZpbGw9IiNBREQxQjIiIHJ4PSIxMSIgcnk9IjExIiBzdHlsZT0ic3Ryb2tlOiMxODE4MTg7c3Ryb2tlLXdpZHRoOjEuMDsiLz48cGF0aCBkPSJNMjIzLjg3NSwxNTc5Ljc1IEwyMjMuODc1LDE1ODEuNSBMMjI4LjgxMjUsMTU4MS41IEwyMjguODEyNSwxNTc5Ljc1IEwyMjMuODc1LDE1NzkuNzUgWiBNMjI0LjU2MjUsMTU4MC40Mzc1IFEyMjQuNTYyNSwxNTgwLjQzNzUgMjI0LjU2MjUsMTU3MS4yNSBMMjIyLjgxMjUsMTU3MS4yNSBRMjIyLjgxMjUsMTU3MS4yNSAyMjIuODEyNSwxNTgwLjQzNzUgTDIyNC41NjI1LDE1ODAuNDM3NSBaIE0yMjguMTI1LDE1ODAuNDM3NSBMMjI5Ljg3NSwxNTgwLjQzNzUgUTIyOS44NzUsMTU4MC40Mzc1IDIyOS44NzUsMTU3Ny42MjUgTDIyOC4xMjUsMTU3Ny42MjUgUTIyOC4xMjUsMTU3Ny42MjUgMjI4LjEyNSwxNTgwLjQzNzUgWiBNMjI4LjEyNSwxNTcxLjI1IFEyMjguMTI1LDE1NzEuMjUgMjI4LjEyNSwxNTc0LjA2MjUgTDIyOS44NzUsMTU3NC4wNjI1IFEyMjkuODc1LDE1NzQuMDYyNSAyMjkuODc1LDE1NzEuMjUgTDIyOC4xMjUsMTU3MS4yNSBaIE0yMjMuODc1LDE1NzEuOTM3NSBMMjI4LjgxMjUsMTU3MS45Mzc1IEwyMjguODEyNSwxNTcwLjE4NzUgTDIyMy44NzUsMTU3MC4xODc1IEwyMjMuODc1LDE1NzEuOTM3NSBaICIgZmlsbD0iIzAwMDAwMCIvPjx0ZXh0IGZpbGw9IiMwMDAwMDAiIGZvbnQtZmFtaWx5PSJzYW5zLXNlcmlmIiBmb250LXNpemU9IjE0IiBsZW5ndGhBZGp1c3Q9InNwYWNpbmciIHRleHRMZW5ndGg9IjI4IiB4PSIyNDYuNzUiIHk9IjE1ODEuMjQyMiI+Q2VsbDwvdGV4dD48bGluZSBzdHlsZT0ic3Ryb2tlOiMxODE4MTg7c3Ryb2tlLXdpZHRoOjAuNTsiIHgxPSIxMTIuNSIgeDI9IjM3Ni41IiB5MT0iMTU5MS41IiB5Mj0iMTU5MS41Ii8+PGVsbGlwc2UgY3g9IjEyMi41IiBjeT0iMTYwNC40OTIyIiBmaWxsPSJub25lIiByeD0iMyIgcnk9IjMiIHN0eWxlPSJzdHJva2U6IzAzODA0ODtzdHJva2Utd2lkdGg6MS4wOyIvPjx0ZXh0IGZpbGw9IiMwMDAwMDAiIGZvbnQtZmFtaWx5PSJzYW5zLXNlcmlmIiBmb250LXNpemU9IjE0IiBsZW5ndGhBZGp1c3Q9InNwYWNpbmciIHRleHRMZW5ndGg9IjI0MCIgeD0iMTMxLjUiIHk9IjE2MDguNzM0NCI+TWF4TGV2ZWwgJiMxNzE7cHJvcGVydHkmIzE4NzsgOiBvdmVycmlkZSBpbnQ8L3RleHQ+PGxpbmUgc3R5bGU9InN0cm9rZTojMTgxODE4O3N0cm9rZS13aWR0aDowLjU7IiB4MT0iMTEyLjUiIHgyPSIzNzYuNSIgeTE9IjE2MTQuNDg0NCIgeTI9IjE2MTQuNDg0NCIvPjxlbGxpcHNlIGN4PSIxMjIuNSIgY3k9IjE2MjcuNDc2NiIgZmlsbD0iIzg0QkU4NCIgcng9IjMiIHJ5PSIzIiBzdHlsZT0ic3Ryb2tlOiMwMzgwNDg7c3Ryb2tlLXdpZHRoOjEuMDsiLz48dGV4dCBmaWxsPSIjMDAwMDAwIiBmb250LWZhbWlseT0ic2Fucy1zZXJpZiIgZm9udC1zaXplPSIxNCIgbGVuZ3RoQWRqdXN0PSJzcGFjaW5nIiB0ZXh0TGVuZ3RoPSI0NCIgeD0iMTMxLjUiIHk9IjE2MzEuNzE4OCI+Q2VsbCgpPC90ZXh0PjwvZz48IS0tY2xhc3MgQnV1LS0+PGcgaWQ9ImVsZW1fQnV1Ij48cmVjdCBjb2RlTGluZT0iNzEiIGZpbGw9IiNGMUYxRjEiIGhlaWdodD0iNzcuOTY4OCIgaWQ9IkJ1dSIgcng9IjIuNSIgcnk9IjIuNSIgc3R5bGU9InN0cm9rZTojMTgxODE4O3N0cm9rZS13aWR0aDowLjU7IiB3aWR0aD0iMjY2IiB4PSI0MTIuNSIgeT0iMTU1OS41Ii8+PGVsbGlwc2UgY3g9IjUzMC43NSIgY3k9IjE1NzUuNSIgZmlsbD0iI0FERDFCMiIgcng9IjExIiByeT0iMTEiIHN0eWxlPSJzdHJva2U6IzE4MTgxODtzdHJva2Utd2lkdGg6MS4wOyIvPjxwYXRoIGQ9Ik01MjguMzc1LDE1NzkuNzUgTDUyOC4zNzUsMTU4MS41IEw1MzMuMzEyNSwxNTgxLjUgTDUzMy4zMTI1LDE1NzkuNzUgTDUyOC4zNzUsMTU3OS43NSBaIE01MjkuMDYyNSwxNTgwLjQzNzUgUTUyOS4wNjI1LDE1ODAuNDM3NSA1MjkuMDYyNSwxNTcxLjI1IEw1MjcuMzEyNSwxNTcxLjI1IFE1MjcuMzEyNSwxNTcxLjI1IDUyNy4zMTI1LDE1ODAuNDM3NSBMNTI5LjA2MjUsMTU4MC40Mzc1IFogTTUzMi42MjUsMTU4MC40Mzc1IEw1MzQuMzc1LDE1ODAuNDM3NSBRNTM0LjM3NSwxNTgwLjQzNzUgNTM0LjM3NSwxNTc3LjYyNSBMNTMyLjYyNSwxNTc3LjYyNSBRNTMyLjYyNSwxNTc3LjYyNSA1MzIuNjI1LDE1ODAuNDM3NSBaIE01MzIuNjI1LDE1NzEuMjUgUTUzMi42MjUsMTU3MS4yNSA1MzIuNjI1LDE1NzQuMDYyNSBMNTM0LjM3NSwxNTc0LjA2MjUgUTUzNC4zNzUsMTU3NC4wNjI1IDUzNC4zNzUsMTU3MS4yNSBMNTMyLjYyNSwxNTcxLjI1IFogTTUyOC4zNzUsMTU3MS45Mzc1IEw1MzMuMzEyNSwxNTcxLjkzNzUgTDUzMy4zMTI1LDE1NzAuMTg3NSBMNTI4LjM3NSwxNTcwLjE4NzUgTDUyOC4zNzUsMTU3MS45Mzc1IFogIiBmaWxsPSIjMDAwMDAwIi8+PHRleHQgZmlsbD0iIzAwMDAwMCIgZm9udC1mYW1pbHk9InNhbnMtc2VyaWYiIGZvbnQtc2l6ZT0iMTQiIGxlbmd0aEFkanVzdD0ic3BhY2luZyIgdGV4dExlbmd0aD0iMjEiIHg9IjU1MS4yNSIgeT0iMTU4MS4yNDIyIj5CdXU8L3RleHQ+PGxpbmUgc3R5bGU9InN0cm9rZTojMTgxODE4O3N0cm9rZS13aWR0aDowLjU7IiB4MT0iNDEzLjUiIHgyPSI2NzcuNSIgeTE9IjE1OTEuNSIgeTI9IjE1OTEuNSIvPjxlbGxpcHNlIGN4PSI0MjMuNSIgY3k9IjE2MDQuNDkyMiIgZmlsbD0ibm9uZSIgcng9IjMiIHJ5PSIzIiBzdHlsZT0ic3Ryb2tlOiMwMzgwNDg7c3Ryb2tlLXdpZHRoOjEuMDsiLz48dGV4dCBmaWxsPSIjMDAwMDAwIiBmb250LWZhbWlseT0ic2Fucy1zZXJpZiIgZm9udC1zaXplPSIxNCIgbGVuZ3RoQWRqdXN0PSJzcGFjaW5nIiB0ZXh0TGVuZ3RoPSIyNDAiIHg9IjQzMi41IiB5PSIxNjA4LjczNDQiPk1heExldmVsICYjMTcxO3Byb3BlcnR5JiMxODc7IDogb3ZlcnJpZGUgaW50PC90ZXh0PjxsaW5lIHN0eWxlPSJzdHJva2U6IzE4MTgxODtzdHJva2Utd2lkdGg6MC41OyIgeDE9IjQxMy41IiB4Mj0iNjc3LjUiIHkxPSIxNjE0LjQ4NDQiIHkyPSIxNjE0LjQ4NDQiLz48ZWxsaXBzZSBjeD0iNDIzLjUiIGN5PSIxNjI3LjQ3NjYiIGZpbGw9IiM4NEJFODQiIHJ4PSIzIiByeT0iMyIgc3R5bGU9InN0cm9rZTojMDM4MDQ4O3N0cm9rZS13aWR0aDoxLjA7Ii8+PHRleHQgZmlsbD0iIzAwMDAwMCIgZm9udC1mYW1pbHk9InNhbnMtc2VyaWYiIGZvbnQtc2l6ZT0iMTQiIGxlbmd0aEFkanVzdD0ic3BhY2luZyIgdGV4dExlbmd0aD0iMzciIHg9IjQzMi41IiB5PSIxNjMxLjcxODgiPkJ1dSgpPC90ZXh0PjwvZz48IS0tY2xhc3MgQmxhY2stLT48ZyBpZD0iZWxlbV9CbGFjayI+PHJlY3QgY29kZUxpbmU9IjcyIiBmaWxsPSIjRjFGMUYxIiBoZWlnaHQ9Ijc3Ljk2ODgiIGlkPSJCbGFjayIgcng9IjIuNSIgcnk9IjIuNSIgc3R5bGU9InN0cm9rZTojMTgxODE4O3N0cm9rZS13aWR0aDowLjU7IiB3aWR0aD0iMjY2IiB4PSI3MTMuNSIgeT0iMTU1OS41Ii8+PGVsbGlwc2UgY3g9IjgyNC43NSIgY3k9IjE1NzUuNSIgZmlsbD0iI0FERDFCMiIgcng9IjExIiByeT0iMTEiIHN0eWxlPSJzdHJva2U6IzE4MTgxODtzdHJva2Utd2lkdGg6MS4wOyIvPjxwYXRoIGQ9Ik04MjIuMzc1LDE1NzkuNzUgTDgyMi4zNzUsMTU4MS41IEw4MjcuMzEyNSwxNTgxLjUgTDgyNy4zMTI1LDE1NzkuNzUgTDgyMi4zNzUsMTU3OS43NSBaIE04MjMuMDYyNSwxNTgwLjQzNzUgUTgyMy4wNjI1LDE1ODAuNDM3NSA4MjMuMDYyNSwxNTcxLjI1IEw4MjEuMzEyNSwxNTcxLjI1IFE4MjEuMzEyNSwxNTcxLjI1IDgyMS4zMTI1LDE1ODAuNDM3NSBMODIzLjA2MjUsMTU4MC40Mzc1IFogTTgyNi42MjUsMTU4MC40Mzc1IEw4MjguMzc1LDE1ODAuNDM3NSBRODI4LjM3NSwxNTgwLjQzNzUgODI4LjM3NSwxNTc3LjYyNSBMODI2LjYyNSwxNTc3LjYyNSBRODI2LjYyNSwxNTc3LjYyNSA4MjYuNjI1LDE1ODAuNDM3NSBaIE04MjYuNjI1LDE1NzEuMjUgUTgyNi42MjUsMTU3MS4yNSA4MjYuNjI1LDE1NzQuMDYyNSBMODI4LjM3NSwxNTc0LjA2MjUgUTgyOC4zNzUsMTU3NC4wNjI1IDgyOC4zNzUsMTU3MS4yNSBMODI2LjYyNSwxNTcxLjI1IFogTTgyMi4zNzUsMTU3MS45Mzc1IEw4MjcuMzEyNSwxNTcxLjkzNzUgTDgyNy4zMTI1LDE1NzAuMTg3NSBMODIyLjM3NSwxNTcwLjE4NzUgTDgyMi4zNzUsMTU3MS45Mzc1IFogIiBmaWxsPSIjMDAwMDAwIi8+PHRleHQgZmlsbD0iIzAwMDAwMCIgZm9udC1mYW1pbHk9InNhbnMtc2VyaWYiIGZvbnQtc2l6ZT0iMTQiIGxlbmd0aEFkanVzdD0ic3BhY2luZyIgdGV4dExlbmd0aD0iMzUiIHg9Ijg0NS4yNSIgeT0iMTU4MS4yNDIyIj5CbGFjazwvdGV4dD48bGluZSBzdHlsZT0ic3Ryb2tlOiMxODE4MTg7c3Ryb2tlLXdpZHRoOjAuNTsiIHgxPSI3MTQuNSIgeDI9Ijk3OC41IiB5MT0iMTU5MS41IiB5Mj0iMTU5MS41Ii8+PGVsbGlwc2UgY3g9IjcyNC41IiBjeT0iMTYwNC40OTIyIiBmaWxsPSJub25lIiByeD0iMyIgcnk9IjMiIHN0eWxlPSJzdHJva2U6IzAzODA0ODtzdHJva2Utd2lkdGg6MS4wOyIvPjx0ZXh0IGZpbGw9IiMwMDAwMDAiIGZvbnQtZmFtaWx5PSJzYW5zLXNlcmlmIiBmb250LXNpemU9IjE0IiBsZW5ndGhBZGp1c3Q9InNwYWNpbmciIHRleHRMZW5ndGg9IjI0MCIgeD0iNzMzLjUiIHk9IjE2MDguNzM0NCI+TWF4TGV2ZWwgJiMxNzE7cHJvcGVydHkmIzE4NzsgOiBvdmVycmlkZSBpbnQ8L3RleHQ+PGxpbmUgc3R5bGU9InN0cm9rZTojMTgxODE4O3N0cm9rZS13aWR0aDowLjU7IiB4MT0iNzE0LjUiIHgyPSI5NzguNSIgeTE9IjE2MTQuNDg0NCIgeTI9IjE2MTQuNDg0NCIvPjxlbGxpcHNlIGN4PSI3MjQuNSIgY3k9IjE2MjcuNDc2NiIgZmlsbD0iIzg0QkU4NCIgcng9IjMiIHJ5PSIzIiBzdHlsZT0ic3Ryb2tlOiMwMzgwNDg7c3Ryb2tlLXdpZHRoOjEuMDsiLz48dGV4dCBmaWxsPSIjMDAwMDAwIiBmb250LWZhbWlseT0ic2Fucy1zZXJpZiIgZm9udC1zaXplPSIxNCIgbGVuZ3RoQWRqdXN0PSJzcGFjaW5nIiB0ZXh0TGVuZ3RoPSI1MSIgeD0iNzMzLjUiIHk9IjE2MzEuNzE4OCI+QmxhY2soKTwvdGV4dD48L2c+PCEtLWNsYXNzIElUcmFuc2Zvcm1hdGlvblN0YXRlLS0+PGcgaWQ9ImVsZW1fSVRyYW5zZm9ybWF0aW9uU3RhdGUiPjxyZWN0IGNvZGVMaW5lPSI3NCIgZmlsbD0iI0YxRjFGMSIgaGVpZ2h0PSI2Mi45ODQ0IiBpZD0iSVRyYW5zZm9ybWF0aW9uU3RhdGUiIHJ4PSIyLjUiIHJ5PSIyLjUiIHN0eWxlPSJzdHJva2U6IzE4MTgxODtzdHJva2Utd2lkdGg6MC41OyIgd2lkdGg9IjIxNyIgeD0iMTAxNSIgeT0iMTU2NyIvPjxlbGxpcHNlIGN4PSIxMDQ5LjgiIGN5PSIxNTgzIiBmaWxsPSIjQjRBN0U1IiByeD0iMTEiIHJ5PSIxMSIgc3R5bGU9InN0cm9rZTojMTgxODE4O3N0cm9rZS13aWR0aDoxLjA7Ii8+PHBhdGggZD0iTTEwNTIuOTI1LDE1ODkgTDEwNTIuOTI1LDE1ODcuMjUgTDEwNTAuOCwxNTg3LjI1IFExMDUwLjgsMTU4Ny4yNSAxMDUwLjgsMTU3OS40Mzc1IEwxMDUyLjkyNSwxNTc5LjQzNzUgTDEwNTIuOTI1LDE1NzcuNjg3NSBMMTA0Ni45MjUsMTU3Ny42ODc1IEwxMDQ2LjkyNSwxNTc5LjQzNzUgTDEwNDkuMDUsMTU3OS40Mzc1IFExMDQ5LjA1LDE1NzkuNDM3NSAxMDQ5LjA1LDE1ODcuMjUgTDEwNDYuOTI1LDE1ODcuMjUgTDEwNDYuOTI1LDE1ODkgTDEwNTIuOTI1LDE1ODkgWiAiIGZpbGw9IiMwMDAwMDAiLz48dGV4dCBmaWxsPSIjMDAwMDAwIiBmb250LWZhbWlseT0ic2Fucy1zZXJpZiIgZm9udC1zaXplPSIxNCIgZm9udC1zdHlsZT0iaXRhbGljIiBsZW5ndGhBZGp1c3Q9InNwYWNpbmciIHRleHRMZW5ndGg9IjE0MSIgeD0iMTA2OC4yIiB5PSIxNTg4Ljc0MjIiPklUcmFuc2Zvcm1hdGlvblN0YXRlPC90ZXh0PjxsaW5lIHN0eWxlPSJzdHJva2U6IzE4MTgxODtzdHJva2Utd2lkdGg6MC41OyIgeDE9IjEwMTYiIHgyPSIxMjMxIiB5MT0iMTU5OSIgeTI9IjE1OTkiLz48bGluZSBzdHlsZT0ic3Ryb2tlOiMxODE4MTg7c3Ryb2tlLXdpZHRoOjAuNTsiIHgxPSIxMDE2IiB4Mj0iMTIzMSIgeTE9IjE2MDciIHkyPSIxNjA3Ii8+PGVsbGlwc2UgY3g9IjEwMjYiIGN5PSIxNjE5Ljk5MjIiIGZpbGw9IiM4NEJFODQiIHJ4PSIzIiByeT0iMyIgc3R5bGU9InN0cm9rZTojMDM4MDQ4O3N0cm9rZS13aWR0aDoxLjA7Ii8+PHRleHQgZmlsbD0iIzAwMDAwMCIgZm9udC1mYW1pbHk9InNhbnMtc2VyaWYiIGZvbnQtc2l6ZT0iMTQiIGxlbmd0aEFkanVzdD0ic3BhY2luZyIgdGV4dExlbmd0aD0iMTkxIiB4PSIxMDM1IiB5PSIxNjI0LjIzNDQiPkhhbmRsZShDaGFyYWN0ZXIgY2hhcmFjdGVyKTwvdGV4dD48L2c+PCEtLWNsYXNzIFN1cGVyU2FpeWFuMS0tPjxnIGlkPSJlbGVtX1N1cGVyU2FpeWFuMSI+PHJlY3QgY29kZUxpbmU9IjEwNiIgZmlsbD0iI0YxRjFGMSIgaGVpZ2h0PSI2Mi45ODQ0IiBpZD0iU3VwZXJTYWl5YW4xIiByeD0iMi41IiByeT0iMi41IiBzdHlsZT0ic3Ryb2tlOiMxODE4MTg7c3Ryb2tlLXdpZHRoOjAuNTsiIHdpZHRoPSIyMTciIHg9IjI1OSIgeT0iMTcxMi41Ii8+PGVsbGlwc2UgY3g9IjMyMS4yNSIgY3k9IjE3MjguNSIgZmlsbD0iI0FERDFCMiIgcng9IjExIiByeT0iMTEiIHN0eWxlPSJzdHJva2U6IzE4MTgxODtzdHJva2Utd2lkdGg6MS4wOyIvPjxwYXRoIGQ9Ik0zMTguODc1LDE3MzIuNzUgTDMxOC44NzUsMTczNC41IEwzMjMuODEyNSwxNzM0LjUgTDMyMy44MTI1LDE3MzIuNzUgTDMxOC44NzUsMTczMi43NSBaIE0zMTkuNTYyNSwxNzMzLjQzNzUgUTMxOS41NjI1LDE3MzMuNDM3NSAzMTkuNTYyNSwxNzI0LjI1IEwzMTcuODEyNSwxNzI0LjI1IFEzMTcuODEyNSwxNzI0LjI1IDMxNy44MTI1LDE3MzMuNDM3NSBMMzE5LjU2MjUsMTczMy40Mzc1IFogTTMyMy4xMjUsMTczMy40Mzc1IEwzMjQuODc1LDE3MzMuNDM3NSBRMzI0Ljg3NSwxNzMzLjQzNzUgMzI0Ljg3NSwxNzMwLjYyNSBMMzIzLjEyNSwxNzMwLjYyNSBRMzIzLjEyNSwxNzMwLjYyNSAzMjMuMTI1LDE3MzMuNDM3NSBaIE0zMjMuMTI1LDE3MjQuMjUgUTMyMy4xMjUsMTcyNC4yNSAzMjMuMTI1LDE3MjcuMDYyNSBMMzI0Ljg3NSwxNzI3LjA2MjUgUTMyNC44NzUsMTcyNy4wNjI1IDMyNC44NzUsMTcyNC4yNSBMMzIzLjEyNSwxNzI0LjI1IFogTTMxOC44NzUsMTcyNC45Mzc1IEwzMjMuODEyNSwxNzI0LjkzNzUgTDMyMy44MTI1LDE3MjMuMTg3NSBMMzE4Ljg3NSwxNzIzLjE4NzUgTDMxOC44NzUsMTcyNC45Mzc1IFogIiBmaWxsPSIjMDAwMDAwIi8+PHRleHQgZmlsbD0iIzAwMDAwMCIgZm9udC1mYW1pbHk9InNhbnMtc2VyaWYiIGZvbnQtc2l6ZT0iMTQiIGxlbmd0aEFkanVzdD0ic3BhY2luZyIgdGV4dExlbmd0aD0iODQiIHg9IjM0MS43NSIgeT0iMTczNC4yNDIyIj5TdXBlclNhaXlhbjE8L3RleHQ+PGxpbmUgc3R5bGU9InN0cm9rZTojMTgxODE4O3N0cm9rZS13aWR0aDowLjU7IiB4MT0iMjYwIiB4Mj0iNDc1IiB5MT0iMTc0NC41IiB5Mj0iMTc0NC41Ii8+PGxpbmUgc3R5bGU9InN0cm9rZTojMTgxODE4O3N0cm9rZS13aWR0aDowLjU7IiB4MT0iMjYwIiB4Mj0iNDc1IiB5MT0iMTc1Mi41IiB5Mj0iMTc1Mi41Ii8+PGVsbGlwc2UgY3g9IjI3MCIgY3k9IjE3NjUuNDkyMiIgZmlsbD0iIzg0QkU4NCIgcng9IjMiIHJ5PSIzIiBzdHlsZT0ic3Ryb2tlOiMwMzgwNDg7c3Ryb2tlLXdpZHRoOjEuMDsiLz48dGV4dCBmaWxsPSIjMDAwMDAwIiBmb250LWZhbWlseT0ic2Fucy1zZXJpZiIgZm9udC1zaXplPSIxNCIgbGVuZ3RoQWRqdXN0PSJzcGFjaW5nIiB0ZXh0TGVuZ3RoPSIxOTEiIHg9IjI3OSIgeT0iMTc2OS43MzQ0Ij5IYW5kbGUoQ2hhcmFjdGVyIGNoYXJhY3Rlcik8L3RleHQ+PC9nPjwhLS1jbGFzcyBTdXBlclNhaXlhbjItLT48ZyBpZD0iZWxlbV9TdXBlclNhaXlhbjIiPjxyZWN0IGNvZGVMaW5lPSIxMDciIGZpbGw9IiNGMUYxRjEiIGhlaWdodD0iNjIuOTg0NCIgaWQ9IlN1cGVyU2FpeWFuMiIgcng9IjIuNSIgcnk9IjIuNSIgc3R5bGU9InN0cm9rZTojMTgxODE4O3N0cm9rZS13aWR0aDowLjU7IiB3aWR0aD0iMjE3IiB4PSI1MTEiIHk9IjE3MTIuNSIvPjxlbGxpcHNlIGN4PSI1NzMuMjUiIGN5PSIxNzI4LjUiIGZpbGw9IiNBREQxQjIiIHJ4PSIxMSIgcnk9IjExIiBzdHlsZT0ic3Ryb2tlOiMxODE4MTg7c3Ryb2tlLXdpZHRoOjEuMDsiLz48cGF0aCBkPSJNNTcwLjg3NSwxNzMyLjc1IEw1NzAuODc1LDE3MzQuNSBMNTc1LjgxMjUsMTczNC41IEw1NzUuODEyNSwxNzMyLjc1IEw1NzAuODc1LDE3MzIuNzUgWiBNNTcxLjU2MjUsMTczMy40Mzc1IFE1NzEuNTYyNSwxNzMzLjQzNzUgNTcxLjU2MjUsMTcyNC4yNSBMNTY5LjgxMjUsMTcyNC4yNSBRNTY5LjgxMjUsMTcyNC4yNSA1NjkuODEyNSwxNzMzLjQzNzUgTDU3MS41NjI1LDE3MzMuNDM3NSBaIE01NzUuMTI1LDE3MzMuNDM3NSBMNTc2Ljg3NSwxNzMzLjQzNzUgUTU3Ni44NzUsMTczMy40Mzc1IDU3Ni44NzUsMTczMC42MjUgTDU3NS4xMjUsMTczMC42MjUgUTU3NS4xMjUsMTczMC42MjUgNTc1LjEyNSwxNzMzLjQzNzUgWiBNNTc1LjEyNSwxNzI0LjI1IFE1NzUuMTI1LDE3MjQuMjUgNTc1LjEyNSwxNzI3LjA2MjUgTDU3Ni44NzUsMTcyNy4wNjI1IFE1NzYuODc1LDE3MjcuMDYyNSA1NzYuODc1LDE3MjQuMjUgTDU3NS4xMjUsMTcyNC4yNSBaIE01NzAuODc1LDE3MjQuOTM3NSBMNTc1LjgxMjUsMTcyNC45Mzc1IEw1NzUuODEyNSwxNzIzLjE4NzUgTDU3MC44NzUsMTcyMy4xODc1IEw1NzAuODc1LDE3MjQuOTM3NSBaICIgZmlsbD0iIzAwMDAwMCIvPjx0ZXh0IGZpbGw9IiMwMDAwMDAiIGZvbnQtZmFtaWx5PSJzYW5zLXNlcmlmIiBmb250LXNpemU9IjE0IiBsZW5ndGhBZGp1c3Q9InNwYWNpbmciIHRleHRMZW5ndGg9Ijg0IiB4PSI1OTMuNzUiIHk9IjE3MzQuMjQyMiI+U3VwZXJTYWl5YW4yPC90ZXh0PjxsaW5lIHN0eWxlPSJzdHJva2U6IzE4MTgxODtzdHJva2Utd2lkdGg6MC41OyIgeDE9IjUxMiIgeDI9IjcyNyIgeTE9IjE3NDQuNSIgeTI9IjE3NDQuNSIvPjxsaW5lIHN0eWxlPSJzdHJva2U6IzE4MTgxODtzdHJva2Utd2lkdGg6MC41OyIgeDE9IjUxMiIgeDI9IjcyNyIgeTE9IjE3NTIuNSIgeTI9IjE3NTIuNSIvPjxlbGxpcHNlIGN4PSI1MjIiIGN5PSIxNzY1LjQ5MjIiIGZpbGw9IiM4NEJFODQiIHJ4PSIzIiByeT0iMyIgc3R5bGU9InN0cm9rZTojMDM4MDQ4O3N0cm9rZS13aWR0aDoxLjA7Ii8+PHRleHQgZmlsbD0iIzAwMDAwMCIgZm9udC1mYW1pbHk9InNhbnMtc2VyaWYiIGZvbnQtc2l6ZT0iMTQiIGxlbmd0aEFkanVzdD0ic3BhY2luZyIgdGV4dExlbmd0aD0iMTkxIiB4PSI1MzEiIHk9IjE3NjkuNzM0NCI+SGFuZGxlKENoYXJhY3RlciBjaGFyYWN0ZXIpPC90ZXh0PjwvZz48IS0tY2xhc3MgU3VwZXJTYWl5YW4zLS0+PGcgaWQ9ImVsZW1fU3VwZXJTYWl5YW4zIj48cmVjdCBjb2RlTGluZT0iMTA4IiBmaWxsPSIjRjFGMUYxIiBoZWlnaHQ9IjYyLjk4NDQiIGlkPSJTdXBlclNhaXlhbjMiIHJ4PSIyLjUiIHJ5PSIyLjUiIHN0eWxlPSJzdHJva2U6IzE4MTgxODtzdHJva2Utd2lkdGg6MC41OyIgd2lkdGg9IjIxNyIgeD0iNzYzIiB5PSIxNzEyLjUiLz48ZWxsaXBzZSBjeD0iODI1LjI1IiBjeT0iMTcyOC41IiBmaWxsPSIjQUREMUIyIiByeD0iMTEiIHJ5PSIxMSIgc3R5bGU9InN0cm9rZTojMTgxODE4O3N0cm9rZS13aWR0aDoxLjA7Ii8+PHBhdGggZD0iTTgyMi44NzUsMTczMi43NSBMODIyLjg3NSwxNzM0LjUgTDgyNy44MTI1LDE3MzQuNSBMODI3LjgxMjUsMTczMi43NSBMODIyLjg3NSwxNzMyLjc1IFogTTgyMy41NjI1LDE3MzMuNDM3NSBRODIzLjU2MjUsMTczMy40Mzc1IDgyMy41NjI1LDE3MjQuMjUgTDgyMS44MTI1LDE3MjQuMjUgUTgyMS44MTI1LDE3MjQuMjUgODIxLjgxMjUsMTczMy40Mzc1IEw4MjMuNTYyNSwxNzMzLjQzNzUgWiBNODI3LjEyNSwxNzMzLjQzNzUgTDgyOC44NzUsMTczMy40Mzc1IFE4MjguODc1LDE3MzMuNDM3NSA4MjguODc1LDE3MzAuNjI1IEw4MjcuMTI1LDE3MzAuNjI1IFE4MjcuMTI1LDE3MzAuNjI1IDgyNy4xMjUsMTczMy40Mzc1IFogTTgyNy4xMjUsMTcyNC4yNSBRODI3LjEyNSwxNzI0LjI1IDgyNy4xMjUsMTcyNy4wNjI1IEw4MjguODc1LDE3MjcuMDYyNSBRODI4Ljg3NSwxNzI3LjA2MjUgODI4Ljg3NSwxNzI0LjI1IEw4MjcuMTI1LDE3MjQuMjUgWiBNODIyLjg3NSwxNzI0LjkzNzUgTDgyNy44MTI1LDE3MjQuOTM3NSBMODI3LjgxMjUsMTcyMy4xODc1IEw4MjIuODc1LDE3MjMuMTg3NSBMODIyLjg3NSwxNzI0LjkzNzUgWiAiIGZpbGw9IiMwMDAwMDAiLz48dGV4dCBmaWxsPSIjMDAwMDAwIiBmb250LWZhbWlseT0ic2Fucy1zZXJpZiIgZm9udC1zaXplPSIxNCIgbGVuZ3RoQWRqdXN0PSJzcGFjaW5nIiB0ZXh0TGVuZ3RoPSI4NCIgeD0iODQ1Ljc1IiB5PSIxNzM0LjI0MjIiPlN1cGVyU2FpeWFuMzwvdGV4dD48bGluZSBzdHlsZT0ic3Ryb2tlOiMxODE4MTg7c3Ryb2tlLXdpZHRoOjAuNTsiIHgxPSI3NjQiIHgyPSI5NzkiIHkxPSIxNzQ0LjUiIHkyPSIxNzQ0LjUiLz48bGluZSBzdHlsZT0ic3Ryb2tlOiMxODE4MTg7c3Ryb2tlLXdpZHRoOjAuNTsiIHgxPSI3NjQiIHgyPSI5NzkiIHkxPSIxNzUyLjUiIHkyPSIxNzUyLjUiLz48ZWxsaXBzZSBjeD0iNzc0IiBjeT0iMTc2NS40OTIyIiBmaWxsPSIjODRCRTg0IiByeD0iMyIgcnk9IjMiIHN0eWxlPSJzdHJva2U6IzAzODA0ODtzdHJva2Utd2lkdGg6MS4wOyIvPjx0ZXh0IGZpbGw9IiMwMDAwMDAiIGZvbnQtZmFtaWx5PSJzYW5zLXNlcmlmIiBmb250LXNpemU9IjE0IiBsZW5ndGhBZGp1c3Q9InNwYWNpbmciIHRleHRMZW5ndGg9IjE5MSIgeD0iNzgzIiB5PSIxNzY5LjczNDQiPkhhbmRsZShDaGFyYWN0ZXIgY2hhcmFjdGVyKTwvdGV4dD48L2c+PCEtLWNsYXNzIFN1cGVyU2FpeWFuR29kLS0+PGcgaWQ9ImVsZW1fU3VwZXJTYWl5YW5Hb2QiPjxyZWN0IGNvZGVMaW5lPSIxMTAiIGZpbGw9IiNGMUYxRjEiIGhlaWdodD0iNjIuOTg0NCIgaWQ9IlN1cGVyU2FpeWFuR29kIiByeD0iMi41IiByeT0iMi41IiBzdHlsZT0ic3Ryb2tlOiMxODE4MTg7c3Ryb2tlLXdpZHRoOjAuNTsiIHdpZHRoPSIyMTciIHg9IjEwMTUiIHk9IjE3MTIuNSIvPjxlbGxpcHNlIGN4PSIxMDcwLjI1IiBjeT0iMTcyOC41IiBmaWxsPSIjQUREMUIyIiByeD0iMTEiIHJ5PSIxMSIgc3R5bGU9InN0cm9rZTojMTgxODE4O3N0cm9rZS13aWR0aDoxLjA7Ii8+PHBhdGggZD0iTTEwNjcuODc1LDE3MzIuNzUgTDEwNjcuODc1LDE3MzQuNSBMMTA3Mi44MTI1LDE3MzQuNSBMMTA3Mi44MTI1LDE3MzIuNzUgTDEwNjcuODc1LDE3MzIuNzUgWiBNMTA2OC41NjI1LDE3MzMuNDM3NSBRMTA2OC41NjI1LDE3MzMuNDM3NSAxMDY4LjU2MjUsMTcyNC4yNSBMMTA2Ni44MTI1LDE3MjQuMjUgUTEwNjYuODEyNSwxNzI0LjI1IDEwNjYuODEyNSwxNzMzLjQzNzUgTDEwNjguNTYyNSwxNzMzLjQzNzUgWiBNMTA3Mi4xMjUsMTczMy40Mzc1IEwxMDczLjg3NSwxNzMzLjQzNzUgUTEwNzMuODc1LDE3MzMuNDM3NSAxMDczLjg3NSwxNzMwLjYyNSBMMTA3Mi4xMjUsMTczMC42MjUgUTEwNzIuMTI1LDE3MzAuNjI1IDEwNzIuMTI1LDE3MzMuNDM3NSBaIE0xMDcyLjEyNSwxNzI0LjI1IFExMDcyLjEyNSwxNzI0LjI1IDEwNzIuMTI1LDE3MjcuMDYyNSBMMTA3My44NzUsMTcyNy4wNjI1IFExMDczLjg3NSwxNzI3LjA2MjUgMTA3My44NzUsMTcyNC4yNSBMMTA3Mi4xMjUsMTcyNC4yNSBaIE0xMDY3Ljg3NSwxNzI0LjkzNzUgTDEwNzIuODEyNSwxNzI0LjkzNzUgTDEwNzIuODEyNSwxNzIzLjE4NzUgTDEwNjcuODc1LDE3MjMuMTg3NSBMMTA2Ny44NzUsMTcyNC45Mzc1IFogIiBmaWxsPSIjMDAwMDAwIi8+PHRleHQgZmlsbD0iIzAwMDAwMCIgZm9udC1mYW1pbHk9InNhbnMtc2VyaWYiIGZvbnQtc2l6ZT0iMTQiIGxlbmd0aEFkanVzdD0ic3BhY2luZyIgdGV4dExlbmd0aD0iOTgiIHg9IjEwOTAuNzUiIHk9IjE3MzQuMjQyMiI+U3VwZXJTYWl5YW5Hb2Q8L3RleHQ+PGxpbmUgc3R5bGU9InN0cm9rZTojMTgxODE4O3N0cm9rZS13aWR0aDowLjU7IiB4MT0iMTAxNiIgeDI9IjEyMzEiIHkxPSIxNzQ0LjUiIHkyPSIxNzQ0LjUiLz48bGluZSBzdHlsZT0ic3Ryb2tlOiMxODE4MTg7c3Ryb2tlLXdpZHRoOjAuNTsiIHgxPSIxMDE2IiB4Mj0iMTIzMSIgeTE9IjE3NTIuNSIgeTI9IjE3NTIuNSIvPjxlbGxpcHNlIGN4PSIxMDI2IiBjeT0iMTc2NS40OTIyIiBmaWxsPSIjODRCRTg0IiByeD0iMyIgcnk9IjMiIHN0eWxlPSJzdHJva2U6IzAzODA0ODtzdHJva2Utd2lkdGg6MS4wOyIvPjx0ZXh0IGZpbGw9IiMwMDAwMDAiIGZvbnQtZmFtaWx5PSJzYW5zLXNlcmlmIiBmb250LXNpemU9IjE0IiBsZW5ndGhBZGp1c3Q9InNwYWNpbmciIHRleHRMZW5ndGg9IjE5MSIgeD0iMTAzNSIgeT0iMTc2OS43MzQ0Ij5IYW5kbGUoQ2hhcmFjdGVyIGNoYXJhY3Rlcik8L3RleHQ+PC9nPjwhLS1jbGFzcyBTdXBlclNhaXlhbkJsdWUtLT48ZyBpZD0iZWxlbV9TdXBlclNhaXlhbkJsdWUiPjxyZWN0IGNvZGVMaW5lPSIxMTEiIGZpbGw9IiNGMUYxRjEiIGhlaWdodD0iNjIuOTg0NCIgaWQ9IlN1cGVyU2FpeWFuQmx1ZSIgcng9IjIuNSIgcnk9IjIuNSIgc3R5bGU9InN0cm9rZTojMTgxODE4O3N0cm9rZS13aWR0aDowLjU7IiB3aWR0aD0iMjE3IiB4PSIxMjY3IiB5PSIxNzEyLjUiLz48ZWxsaXBzZSBjeD0iMTMxOC43NSIgY3k9IjE3MjguNSIgZmlsbD0iI0FERDFCMiIgcng9IjExIiByeT0iMTEiIHN0eWxlPSJzdHJva2U6IzE4MTgxODtzdHJva2Utd2lkdGg6MS4wOyIvPjxwYXRoIGQ9Ik0xMzE2LjM3NSwxNzMyLjc1IEwxMzE2LjM3NSwxNzM0LjUgTDEzMjEuMzEyNSwxNzM0LjUgTDEzMjEuMzEyNSwxNzMyLjc1IEwxMzE2LjM3NSwxNzMyLjc1IFogTTEzMTcuMDYyNSwxNzMzLjQzNzUgUTEzMTcuMDYyNSwxNzMzLjQzNzUgMTMxNy4wNjI1LDE3MjQuMjUgTDEzMTUuMzEyNSwxNzI0LjI1IFExMzE1LjMxMjUsMTcyNC4yNSAxMzE1LjMxMjUsMTczMy40Mzc1IEwxMzE3LjA2MjUsMTczMy40Mzc1IFogTTEzMjAuNjI1LDE3MzMuNDM3NSBMMTMyMi4zNzUsMTczMy40Mzc1IFExMzIyLjM3NSwxNzMzLjQzNzUgMTMyMi4zNzUsMTczMC42MjUgTDEzMjAuNjI1LDE3MzAuNjI1IFExMzIwLjYyNSwxNzMwLjYyNSAxMzIwLjYyNSwxNzMzLjQzNzUgWiBNMTMyMC42MjUsMTcyNC4yNSBRMTMyMC42MjUsMTcyNC4yNSAxMzIwLjYyNSwxNzI3LjA2MjUgTDEzMjIuMzc1LDE3MjcuMDYyNSBRMTMyMi4zNzUsMTcyNy4wNjI1IDEzMjIuMzc1LDE3MjQuMjUgTDEzMjAuNjI1LDE3MjQuMjUgWiBNMTMxNi4zNzUsMTcyNC45Mzc1IEwxMzIxLjMxMjUsMTcyNC45Mzc1IEwxMzIxLjMxMjUsMTcyMy4xODc1IEwxMzE2LjM3NSwxNzIzLjE4NzUgTDEzMTYuMzc1LDE3MjQuOTM3NSBaICIgZmlsbD0iIzAwMDAwMCIvPjx0ZXh0IGZpbGw9IiMwMDAwMDAiIGZvbnQtZmFtaWx5PSJzYW5zLXNlcmlmIiBmb250LXNpemU9IjE0IiBsZW5ndGhBZGp1c3Q9InNwYWNpbmciIHRleHRMZW5ndGg9IjEwNSIgeD0iMTMzOS4yNSIgeT0iMTczNC4yNDIyIj5TdXBlclNhaXlhbkJsdWU8L3RleHQ+PGxpbmUgc3R5bGU9InN0cm9rZTojMTgxODE4O3N0cm9rZS13aWR0aDowLjU7IiB4MT0iMTI2OCIgeDI9IjE0ODMiIHkxPSIxNzQ0LjUiIHkyPSIxNzQ0LjUiLz48bGluZSBzdHlsZT0ic3Ryb2tlOiMxODE4MTg7c3Ryb2tlLXdpZHRoOjAuNTsiIHgxPSIxMjY4IiB4Mj0iMTQ4MyIgeTE9IjE3NTIuNSIgeTI9IjE3NTIuNSIvPjxlbGxpcHNlIGN4PSIxMjc4IiBjeT0iMTc2NS40OTIyIiBmaWxsPSIjODRCRTg0IiByeD0iMyIgcnk9IjMiIHN0eWxlPSJzdHJva2U6IzAzODA0ODtzdHJva2Utd2lkdGg6MS4wOyIvPjx0ZXh0IGZpbGw9IiMwMDAwMDAiIGZvbnQtZmFtaWx5PSJzYW5zLXNlcmlmIiBmb250LXNpemU9IjE0IiBsZW5ndGhBZGp1c3Q9InNwYWNpbmciIHRleHRMZW5ndGg9IjE5MSIgeD0iMTI4NyIgeT0iMTc2OS43MzQ0Ij5IYW5kbGUoQ2hhcmFjdGVyIGNoYXJhY3Rlcik8L3RleHQ+PC9nPjwhLS1jbGFzcyBVbHRpbWF0ZS0tPjxnIGlkPSJlbGVtX1VsdGltYXRlIj48cmVjdCBjb2RlTGluZT0iMTA5IiBmaWxsPSIjRjFGMUYxIiBoZWlnaHQ9IjYyLjk4NDQiIGlkPSJVbHRpbWF0ZSIgcng9IjIuNSIgcnk9IjIuNSIgc3R5bGU9InN0cm9rZTojMTgxODE4O3N0cm9rZS13aWR0aDowLjU7IiB3aWR0aD0iMjE3IiB4PSIxNTE5IiB5PSIxNzEyLjUiLz48ZWxsaXBzZSBjeD0iMTU5NC43NSIgY3k9IjE3MjguNSIgZmlsbD0iI0FERDFCMiIgcng9IjExIiByeT0iMTEiIHN0eWxlPSJzdHJva2U6IzE4MTgxODtzdHJva2Utd2lkdGg6MS4wOyIvPjxwYXRoIGQ9Ik0xNTkyLjM3NSwxNzMyLjc1IEwxNTkyLjM3NSwxNzM0LjUgTDE1OTcuMzEyNSwxNzM0LjUgTDE1OTcuMzEyNSwxNzMyLjc1IEwxNTkyLjM3NSwxNzMyLjc1IFogTTE1OTMuMDYyNSwxNzMzLjQzNzUgUTE1OTMuMDYyNSwxNzMzLjQzNzUgMTU5My4wNjI1LDE3MjQuMjUgTDE1OTEuMzEyNSwxNzI0LjI1IFExNTkxLjMxMjUsMTcyNC4yNSAxNTkxLjMxMjUsMTczMy40Mzc1IEwxNTkzLjA2MjUsMTczMy40Mzc1IFogTTE1OTYuNjI1LDE3MzMuNDM3NSBMMTU5OC4zNzUsMTczMy40Mzc1IFExNTk4LjM3NSwxNzMzLjQzNzUgMTU5OC4zNzUsMTczMC42MjUgTDE1OTYuNjI1LDE3MzAuNjI1IFExNTk2LjYyNSwxNzMwLjYyNSAxNTk2LjYyNSwxNzMzLjQzNzUgWiBNMTU5Ni42MjUsMTcyNC4yNSBRMTU5Ni42MjUsMTcyNC4yNSAxNTk2LjYyNSwxNzI3LjA2MjUgTDE1OTguMzc1LDE3MjcuMDYyNSBRMTU5OC4zNzUsMTcyNy4wNjI1IDE1OTguMzc1LDE3MjQuMjUgTDE1OTYuNjI1LDE3MjQuMjUgWiBNMTU5Mi4zNzUsMTcyNC45Mzc1IEwxNTk3LjMxMjUsMTcyNC45Mzc1IEwxNTk3LjMxMjUsMTcyMy4xODc1IEwxNTkyLjM3NSwxNzIzLjE4NzUgTDE1OTIuMzc1LDE3MjQuOTM3NSBaICIgZmlsbD0iIzAwMDAwMCIvPjx0ZXh0IGZpbGw9IiMwMDAwMDAiIGZvbnQtZmFtaWx5PSJzYW5zLXNlcmlmIiBmb250LXNpemU9IjE0IiBsZW5ndGhBZGp1c3Q9InNwYWNpbmciIHRleHRMZW5ndGg9IjU3IiB4PSIxNjE1LjI1IiB5PSIxNzM0LjI0MjIiPlVsdGltYXRlPC90ZXh0PjxsaW5lIHN0eWxlPSJzdHJva2U6IzE4MTgxODtzdHJva2Utd2lkdGg6MC41OyIgeDE9IjE1MjAiIHgyPSIxNzM1IiB5MT0iMTc0NC41IiB5Mj0iMTc0NC41Ii8+PGxpbmUgc3R5bGU9InN0cm9rZTojMTgxODE4O3N0cm9rZS13aWR0aDowLjU7IiB4MT0iMTUyMCIgeDI9IjE3MzUiIHkxPSIxNzUyLjUiIHkyPSIxNzUyLjUiLz48ZWxsaXBzZSBjeD0iMTUzMCIgY3k9IjE3NjUuNDkyMiIgZmlsbD0iIzg0QkU4NCIgcng9IjMiIHJ5PSIzIiBzdHlsZT0ic3Ryb2tlOiMwMzgwNDg7c3Ryb2tlLXdpZHRoOjEuMDsiLz48dGV4dCBmaWxsPSIjMDAwMDAwIiBmb250LWZhbWlseT0ic2Fucy1zZXJpZiIgZm9udC1zaXplPSIxNCIgbGVuZ3RoQWRqdXN0PSJzcGFjaW5nIiB0ZXh0TGVuZ3RoPSIxOTEiIHg9IjE1MzkiIHk9IjE3NjkuNzM0NCI+SGFuZGxlKENoYXJhY3RlciBjaGFyYWN0ZXIpPC90ZXh0PjwvZz48IS0tY2xhc3MgVWx0cmFJbnN0aW5jdC0tPjxnIGlkPSJlbGVtX1VsdHJhSW5zdGluY3QiPjxyZWN0IGNvZGVMaW5lPSIxMTIiIGZpbGw9IiNGMUYxRjEiIGhlaWdodD0iNjIuOTg0NCIgaWQ9IlVsdHJhSW5zdGluY3QiIHJ4PSIyLjUiIHJ5PSIyLjUiIHN0eWxlPSJzdHJva2U6IzE4MTgxODtzdHJva2Utd2lkdGg6MC41OyIgd2lkdGg9IjIxNyIgeD0iMTc3MSIgeT0iMTcxMi41Ii8+PGVsbGlwc2UgY3g9IjE4MjkuNzUiIGN5PSIxNzI4LjUiIGZpbGw9IiNBREQxQjIiIHJ4PSIxMSIgcnk9IjExIiBzdHlsZT0ic3Ryb2tlOiMxODE4MTg7c3Ryb2tlLXdpZHRoOjEuMDsiLz48cGF0aCBkPSJNMTgyNy4zNzUsMTczMi43NSBMMTgyNy4zNzUsMTczNC41IEwxODMyLjMxMjUsMTczNC41IEwxODMyLjMxMjUsMTczMi43NSBMMTgyNy4zNzUsMTczMi43NSBaIE0xODI4LjA2MjUsMTczMy40Mzc1IFExODI4LjA2MjUsMTczMy40Mzc1IDE4MjguMDYyNSwxNzI0LjI1IEwxODI2LjMxMjUsMTcyNC4yNSBRMTgyNi4zMTI1LDE3MjQuMjUgMTgyNi4zMTI1LDE3MzMuNDM3NSBMMTgyOC4wNjI1LDE3MzMuNDM3NSBaIE0xODMxLjYyNSwxNzMzLjQzNzUgTDE4MzMuMzc1LDE3MzMuNDM3NSBRMTgzMy4zNzUsMTczMy40Mzc1IDE4MzMuMzc1LDE3MzAuNjI1IEwxODMxLjYyNSwxNzMwLjYyNSBRMTgzMS42MjUsMTczMC42MjUgMTgzMS42MjUsMTczMy40Mzc1IFogTTE4MzEuNjI1LDE3MjQuMjUgUTE4MzEuNjI1LDE3MjQuMjUgMTgzMS42MjUsMTcyNy4wNjI1IEwxODMzLjM3NSwxNzI3LjA2MjUgUTE4MzMuMzc1LDE3MjcuMDYyNSAxODMzLjM3NSwxNzI0LjI1IEwxODMxLjYyNSwxNzI0LjI1IFogTTE4MjcuMzc1LDE3MjQuOTM3NSBMMTgzMi4zMTI1LDE3MjQuOTM3NSBMMTgzMi4zMTI1LDE3MjMuMTg3NSBMMTgyNy4zNzUsMTcyMy4xODc1IEwxODI3LjM3NSwxNzI0LjkzNzUgWiAiIGZpbGw9IiMwMDAwMDAiLz48dGV4dCBmaWxsPSIjMDAwMDAwIiBmb250LWZhbWlseT0ic2Fucy1zZXJpZiIgZm9udC1zaXplPSIxNCIgbGVuZ3RoQWRqdXN0PSJzcGFjaW5nIiB0ZXh0TGVuZ3RoPSI5MSIgeD0iMTg1MC4yNSIgeT0iMTczNC4yNDIyIj5VbHRyYUluc3RpbmN0PC90ZXh0PjxsaW5lIHN0eWxlPSJzdHJva2U6IzE4MTgxODtzdHJva2Utd2lkdGg6MC41OyIgeDE9IjE3NzIiIHgyPSIxOTg3IiB5MT0iMTc0NC41IiB5Mj0iMTc0NC41Ii8+PGxpbmUgc3R5bGU9InN0cm9rZTojMTgxODE4O3N0cm9rZS13aWR0aDowLjU7IiB4MT0iMTc3MiIgeDI9IjE5ODciIHkxPSIxNzUyLjUiIHkyPSIxNzUyLjUiLz48ZWxsaXBzZSBjeD0iMTc4MiIgY3k9IjE3NjUuNDkyMiIgZmlsbD0iIzg0QkU4NCIgcng9IjMiIHJ5PSIzIiBzdHlsZT0ic3Ryb2tlOiMwMzgwNDg7c3Ryb2tlLXdpZHRoOjEuMDsiLz48dGV4dCBmaWxsPSIjMDAwMDAwIiBmb250LWZhbWlseT0ic2Fucy1zZXJpZiIgZm9udC1zaXplPSIxNCIgbGVuZ3RoQWRqdXN0PSJzcGFjaW5nIiB0ZXh0TGVuZ3RoPSIxOTEiIHg9IjE3OTEiIHk9IjE3NjkuNzM0NCI+SGFuZGxlKENoYXJhY3RlciBjaGFyYWN0ZXIpPC90ZXh0PjwvZz48IS0tY2xhc3MgVWx0cmFFZ28tLT48ZyBpZD0iZWxlbV9VbHRyYUVnbyI+PHJlY3QgY29kZUxpbmU9IjExMyIgZmlsbD0iI0YxRjFGMSIgaGVpZ2h0PSI2Mi45ODQ0IiBpZD0iVWx0cmFFZ28iIHJ4PSIyLjUiIHJ5PSIyLjUiIHN0eWxlPSJzdHJva2U6IzE4MTgxODtzdHJva2Utd2lkdGg6MC41OyIgd2lkdGg9IjIxNyIgeD0iMjAyMyIgeT0iMTcxMi41Ii8+PGVsbGlwc2UgY3g9IjIwOTkuMjUiIGN5PSIxNzI4LjUiIGZpbGw9IiNBREQxQjIiIHJ4PSIxMSIgcnk9IjExIiBzdHlsZT0ic3Ryb2tlOiMxODE4MTg7c3Ryb2tlLXdpZHRoOjEuMDsiLz48cGF0aCBkPSJNMjA5Ni44NzUsMTczMi43NSBMMjA5Ni44NzUsMTczNC41IEwyMTAxLjgxMjUsMTczNC41IEwyMTAxLjgxMjUsMTczMi43NSBMMjA5Ni44NzUsMTczMi43NSBaIE0yMDk3LjU2MjUsMTczMy40Mzc1IFEyMDk3LjU2MjUsMTczMy40Mzc1IDIwOTcuNTYyNSwxNzI0LjI1IEwyMDk1LjgxMjUsMTcyNC4yNSBRMjA5NS44MTI1LDE3MjQuMjUgMjA5NS44MTI1LDE3MzMuNDM3NSBMMjA5Ny41NjI1LDE3MzMuNDM3NSBaIE0yMTAxLjEyNSwxNzMzLjQzNzUgTDIxMDIuODc1LDE3MzMuNDM3NSBRMjEwMi44NzUsMTczMy40Mzc1IDIxMDIuODc1LDE3MzAuNjI1IEwyMTAxLjEyNSwxNzMwLjYyNSBRMjEwMS4xMjUsMTczMC42MjUgMjEwMS4xMjUsMTczMy40Mzc1IFogTTIxMDEuMTI1LDE3MjQuMjUgUTIxMDEuMTI1LDE3MjQuMjUgMjEwMS4xMjUsMTcyNy4wNjI1IEwyMTAyLjg3NSwxNzI3LjA2MjUgUTIxMDIuODc1LDE3MjcuMDYyNSAyMTAyLjg3NSwxNzI0LjI1IEwyMTAxLjEyNSwxNzI0LjI1IFogTTIwOTYuODc1LDE3MjQuOTM3NSBMMjEwMS44MTI1LDE3MjQuOTM3NSBMMjEwMS44MTI1LDE3MjMuMTg3NSBMMjA5Ni44NzUsMTcyMy4xODc1IEwyMDk2Ljg3NSwxNzI0LjkzNzUgWiAiIGZpbGw9IiMwMDAwMDAiLz48dGV4dCBmaWxsPSIjMDAwMDAwIiBmb250LWZhbWlseT0ic2Fucy1zZXJpZiIgZm9udC1zaXplPSIxNCIgbGVuZ3RoQWRqdXN0PSJzcGFjaW5nIiB0ZXh0TGVuZ3RoPSI1NiIgeD0iMjExOS43NSIgeT0iMTczNC4yNDIyIj5VbHRyYUVnbzwvdGV4dD48bGluZSBzdHlsZT0ic3Ryb2tlOiMxODE4MTg7c3Ryb2tlLXdpZHRoOjAuNTsiIHgxPSIyMDI0IiB4Mj0iMjIzOSIgeTE9IjE3NDQuNSIgeTI9IjE3NDQuNSIvPjxsaW5lIHN0eWxlPSJzdHJva2U6IzE4MTgxODtzdHJva2Utd2lkdGg6MC41OyIgeDE9IjIwMjQiIHgyPSIyMjM5IiB5MT0iMTc1Mi41IiB5Mj0iMTc1Mi41Ii8+PGVsbGlwc2UgY3g9IjIwMzQiIGN5PSIxNzY1LjQ5MjIiIGZpbGw9IiM4NEJFODQiIHJ4PSIzIiByeT0iMyIgc3R5bGU9InN0cm9rZTojMDM4MDQ4O3N0cm9rZS13aWR0aDoxLjA7Ii8+PHRleHQgZmlsbD0iIzAwMDAwMCIgZm9udC1mYW1pbHk9InNhbnMtc2VyaWYiIGZvbnQtc2l6ZT0iMTQiIGxlbmd0aEFkanVzdD0ic3BhY2luZyIgdGV4dExlbmd0aD0iMTkxIiB4PSIyMDQzIiB5PSIxNzY5LjczNDQiPkhhbmRsZShDaGFyYWN0ZXIgY2hhcmFjdGVyKTwvdGV4dD48L2c+PCEtLWNsYXNzIEJlYXN0LS0+PGcgaWQ9ImVsZW1fQmVhc3QiPjxyZWN0IGNvZGVMaW5lPSIxMTQiIGZpbGw9IiNGMUYxRjEiIGhlaWdodD0iNjIuOTg0NCIgaWQ9IkJlYXN0IiByeD0iMi41IiByeT0iMi41IiBzdHlsZT0ic3Ryb2tlOiMxODE4MTg7c3Ryb2tlLXdpZHRoOjAuNTsiIHdpZHRoPSIyMTciIHg9IjciIHk9IjE3MTIuNSIvPjxlbGxpcHNlIGN4PSI5My43NSIgY3k9IjE3MjguNSIgZmlsbD0iI0FERDFCMiIgcng9IjExIiByeT0iMTEiIHN0eWxlPSJzdHJva2U6IzE4MTgxODtzdHJva2Utd2lkdGg6MS4wOyIvPjxwYXRoIGQ9Ik05MS4zNzUsMTczMi43NSBMOTEuMzc1LDE3MzQuNSBMOTYuMzEyNSwxNzM0LjUgTDk2LjMxMjUsMTczMi43NSBMOTEuMzc1LDE3MzIuNzUgWiBNOTIuMDYyNSwxNzMzLjQzNzUgUTkyLjA2MjUsMTczMy40Mzc1IDkyLjA2MjUsMTcyNC4yNSBMOTAuMzEyNSwxNzI0LjI1IFE5MC4zMTI1LDE3MjQuMjUgOTAuMzEyNSwxNzMzLjQzNzUgTDkyLjA2MjUsMTczMy40Mzc1IFogTTk1LjYyNSwxNzMzLjQzNzUgTDk3LjM3NSwxNzMzLjQzNzUgUTk3LjM3NSwxNzMzLjQzNzUgOTcuMzc1LDE3MzAuNjI1IEw5NS42MjUsMTczMC42MjUgUTk1LjYyNSwxNzMwLjYyNSA5NS42MjUsMTczMy40Mzc1IFogTTk1LjYyNSwxNzI0LjI1IFE5NS42MjUsMTcyNC4yNSA5NS42MjUsMTcyNy4wNjI1IEw5Ny4zNzUsMTcyNy4wNjI1IFE5Ny4zNzUsMTcyNy4wNjI1IDk3LjM3NSwxNzI0LjI1IEw5NS42MjUsMTcyNC4yNSBaIE05MS4zNzUsMTcyNC45Mzc1IEw5Ni4zMTI1LDE3MjQuOTM3NSBMOTYuMzEyNSwxNzIzLjE4NzUgTDkxLjM3NSwxNzIzLjE4NzUgTDkxLjM3NSwxNzI0LjkzNzUgWiAiIGZpbGw9IiMwMDAwMDAiLz48dGV4dCBmaWxsPSIjMDAwMDAwIiBmb250LWZhbWlseT0ic2Fucy1zZXJpZiIgZm9udC1zaXplPSIxNCIgbGVuZ3RoQWRqdXN0PSJzcGFjaW5nIiB0ZXh0TGVuZ3RoPSIzNSIgeD0iMTE0LjI1IiB5PSIxNzM0LjI0MjIiPkJlYXN0PC90ZXh0PjxsaW5lIHN0eWxlPSJzdHJva2U6IzE4MTgxODtzdHJva2Utd2lkdGg6MC41OyIgeDE9IjgiIHgyPSIyMjMiIHkxPSIxNzQ0LjUiIHkyPSIxNzQ0LjUiLz48bGluZSBzdHlsZT0ic3Ryb2tlOiMxODE4MTg7c3Ryb2tlLXdpZHRoOjAuNTsiIHgxPSI4IiB4Mj0iMjIzIiB5MT0iMTc1Mi41IiB5Mj0iMTc1Mi41Ii8+PGVsbGlwc2UgY3g9IjE4IiBjeT0iMTc2NS40OTIyIiBmaWxsPSIjODRCRTg0IiByeD0iMyIgcnk9IjMiIHN0eWxlPSJzdHJva2U6IzAzODA0ODtzdHJva2Utd2lkdGg6MS4wOyIvPjx0ZXh0IGZpbGw9IiMwMDAwMDAiIGZvbnQtZmFtaWx5PSJzYW5zLXNlcmlmIiBmb250LXNpemU9IjE0IiBsZW5ndGhBZGp1c3Q9InNwYWNpbmciIHRleHRMZW5ndGg9IjE5MSIgeD0iMjciIHk9IjE3NjkuNzM0NCI+SGFuZGxlKENoYXJhY3RlciBjaGFyYWN0ZXIpPC90ZXh0PjwvZz48IS0tY2xhc3MgQ2hhcmFjdGVyRmFjdG9yeS0tPjxnIGlkPSJlbGVtX0NoYXJhY3RlckZhY3RvcnkiPjxyZWN0IGNvZGVMaW5lPSIxMTYiIGZpbGw9IiNGMUYxRjEiIGhlaWdodD0iNjIuOTg0NCIgaWQ9IkNoYXJhY3RlckZhY3RvcnkiIHJ4PSIyLjUiIHJ5PSIyLjUiIHN0eWxlPSJzdHJva2U6IzE4MTgxODtzdHJva2Utd2lkdGg6MC41OyIgd2lkdGg9IjM2NCIgeD0iMTc5NS41IiB5PSI3ODEiLz48ZWxsaXBzZSBjeD0iMTkxNy4yNSIgY3k9Ijc5NyIgZmlsbD0iI0FERDFCMiIgcng9IjExIiByeT0iMTEiIHN0eWxlPSJzdHJva2U6IzE4MTgxODtzdHJva2Utd2lkdGg6MS4wOyIvPjxwYXRoIGQ9Ik0xOTE0Ljg3NSw4MDEuMjUgTDE5MTQuODc1LDgwMyBMMTkxOS44MTI1LDgwMyBMMTkxOS44MTI1LDgwMS4yNSBMMTkxNC44NzUsODAxLjI1IFogTTE5MTUuNTYyNSw4MDEuOTM3NSBRMTkxNS41NjI1LDgwMS45Mzc1IDE5MTUuNTYyNSw3OTIuNzUgTDE5MTMuODEyNSw3OTIuNzUgUTE5MTMuODEyNSw3OTIuNzUgMTkxMy44MTI1LDgwMS45Mzc1IEwxOTE1LjU2MjUsODAxLjkzNzUgWiBNMTkxOS4xMjUsODAxLjkzNzUgTDE5MjAuODc1LDgwMS45Mzc1IFExOTIwLjg3NSw4MDEuOTM3NSAxOTIwLjg3NSw3OTkuMTI1IEwxOTE5LjEyNSw3OTkuMTI1IFExOTE5LjEyNSw3OTkuMTI1IDE5MTkuMTI1LDgwMS45Mzc1IFogTTE5MTkuMTI1LDc5Mi43NSBRMTkxOS4xMjUsNzkyLjc1IDE5MTkuMTI1LDc5NS41NjI1IEwxOTIwLjg3NSw3OTUuNTYyNSBRMTkyMC44NzUsNzk1LjU2MjUgMTkyMC44NzUsNzkyLjc1IEwxOTE5LjEyNSw3OTIuNzUgWiBNMTkxNC44NzUsNzkzLjQzNzUgTDE5MTkuODEyNSw3OTMuNDM3NSBMMTkxOS44MTI1LDc5MS42ODc1IEwxOTE0Ljg3NSw3OTEuNjg3NSBMMTkxNC44NzUsNzkzLjQzNzUgWiAiIGZpbGw9IiMwMDAwMDAiLz48dGV4dCBmaWxsPSIjMDAwMDAwIiBmb250LWZhbWlseT0ic2Fucy1zZXJpZiIgZm9udC1zaXplPSIxNCIgbGVuZ3RoQWRqdXN0PSJzcGFjaW5nIiB0ZXh0TGVuZ3RoPSIxMTIiIHg9IjE5MzcuNzUiIHk9IjgwMi43NDIyIj5DaGFyYWN0ZXJGYWN0b3J5PC90ZXh0PjxsaW5lIHN0eWxlPSJzdHJva2U6IzE4MTgxODtzdHJva2Utd2lkdGg6MC41OyIgeDE9IjE3OTYuNSIgeDI9IjIxNTguNSIgeTE9IjgxMyIgeTI9IjgxMyIvPjxsaW5lIHN0eWxlPSJzdHJva2U6IzE4MTgxODtzdHJva2Utd2lkdGg6MC41OyIgeDE9IjE3OTYuNSIgeDI9IjIxNTguNSIgeTE9IjgyMSIgeTI9IjgyMSIvPjxlbGxpcHNlIGN4PSIxODA2LjUiIGN5PSI4MzMuOTkyMiIgZmlsbD0iIzg0QkU4NCIgcng9IjMiIHJ5PSIzIiBzdHlsZT0ic3Ryb2tlOiMwMzgwNDg7c3Ryb2tlLXdpZHRoOjEuMDsiLz48dGV4dCBmaWxsPSIjMDAwMDAwIiBmb250LWZhbWlseT0ic2Fucy1zZXJpZiIgZm9udC1zaXplPSIxNCIgbGVuZ3RoQWRqdXN0PSJzcGFjaW5nIiB0ZXh0TGVuZ3RoPSIzMzgiIHg9IjE4MTUuNSIgeT0iODM4LjIzNDQiPkNyZWF0ZUNoYXJhY3RlcihzdHJpbmcgY2hhcmFjdGVyVHlwZSk6IENoYXJhY3RlcjwvdGV4dD48L2c+PCEtLWNsYXNzIFBsYXllci0tPjxnIGlkPSJlbGVtX1BsYXllciI+PHJlY3QgY29kZUxpbmU9IjEyMCIgZmlsbD0iI0YxRjFGMSIgaGVpZ2h0PSIxODIuODU5NCIgaWQ9IlBsYXllciIgcng9IjIuNSIgcnk9IjIuNSIgc3R5bGU9InN0cm9rZTojMTgxODE4O3N0cm9rZS13aWR0aDowLjU7IiB3aWR0aD0iMzY0IiB4PSIxMzk2LjUiIHk9IjcyMSIvPjxlbGxpcHNlIGN4PSIxNTUzLjI1IiBjeT0iNzM3IiBmaWxsPSIjQUREMUIyIiByeD0iMTEiIHJ5PSIxMSIgc3R5bGU9InN0cm9rZTojMTgxODE4O3N0cm9rZS13aWR0aDoxLjA7Ii8+PHBhdGggZD0iTTE1NTAuODc1LDc0MS4yNSBMMTU1MC44NzUsNzQzIEwxNTU1LjgxMjUsNzQzIEwxNTU1LjgxMjUsNzQxLjI1IEwxNTUwLjg3NSw3NDEuMjUgWiBNMTU1MS41NjI1LDc0MS45Mzc1IFExNTUxLjU2MjUsNzQxLjkzNzUgMTU1MS41NjI1LDczMi43NSBMMTU0OS44MTI1LDczMi43NSBRMTU0OS44MTI1LDczMi43NSAxNTQ5LjgxMjUsNzQxLjkzNzUgTDE1NTEuNTYyNSw3NDEuOTM3NSBaIE0xNTU1LjEyNSw3NDEuOTM3NSBMMTU1Ni44NzUsNzQxLjkzNzUgUTE1NTYuODc1LDc0MS45Mzc1IDE1NTYuODc1LDczOS4xMjUgTDE1NTUuMTI1LDczOS4xMjUgUTE1NTUuMTI1LDczOS4xMjUgMTU1NS4xMjUsNzQxLjkzNzUgWiBNMTU1NS4xMjUsNzMyLjc1IFExNTU1LjEyNSw3MzIuNzUgMTU1NS4xMjUsNzM1LjU2MjUgTDE1NTYuODc1LDczNS41NjI1IFExNTU2Ljg3NSw3MzUuNTYyNSAxNTU2Ljg3NSw3MzIuNzUgTDE1NTUuMTI1LDczMi43NSBaIE0xNTUwLjg3NSw3MzMuNDM3NSBMMTU1NS44MTI1LDczMy40Mzc1IEwxNTU1LjgxMjUsNzMxLjY4NzUgTDE1NTAuODc1LDczMS42ODc1IEwxNTUwLjg3NSw3MzMuNDM3NSBaICIgZmlsbD0iIzAwMDAwMCIvPjx0ZXh0IGZpbGw9IiMwMDAwMDAiIGZvbnQtZmFtaWx5PSJzYW5zLXNlcmlmIiBmb250LXNpemU9IjE0IiBsZW5ndGhBZGp1c3Q9InNwYWNpbmciIHRleHRMZW5ndGg9IjQyIiB4PSIxNTczLjc1IiB5PSI3NDIuNzQyMiI+UGxheWVyPC90ZXh0PjxsaW5lIHN0eWxlPSJzdHJva2U6IzE4MTgxODtzdHJva2Utd2lkdGg6MC41OyIgeDE9IjEzOTcuNSIgeDI9IjE3NTkuNSIgeTE9Ijc1MyIgeTI9Ijc1MyIvPjxyZWN0IGZpbGw9Im5vbmUiIGhlaWdodD0iNiIgc3R5bGU9InN0cm9rZTojQzgyOTMwO3N0cm9rZS13aWR0aDoxLjA7IiB3aWR0aD0iNiIgeD0iMTQwNC41IiB5PSI3NjIuOTkyMiIvPjx0ZXh0IGZpbGw9IiMwMDAwMDAiIGZvbnQtZmFtaWx5PSJzYW5zLXNlcmlmIiBmb250LXNpemU9IjE0IiBsZW5ndGhBZGp1c3Q9InNwYWNpbmciIHRleHRMZW5ndGg9IjYzIiB4PSIxNDE2LjUiIHk9Ijc3MC4yMzQ0Ij5pbnQgX3plbmk8L3RleHQ+PHJlY3QgZmlsbD0ibm9uZSIgaGVpZ2h0PSI2IiBzdHlsZT0ic3Ryb2tlOiNDODI5MzA7c3Ryb2tlLXdpZHRoOjEuMDsiIHdpZHRoPSI2IiB4PSIxNDA0LjUiIHk9Ijc3Ny45NzY2Ii8+PHRleHQgZmlsbD0iIzAwMDAwMCIgZm9udC1mYW1pbHk9InNhbnMtc2VyaWYiIGZvbnQtc2l6ZT0iMTQiIGxlbmd0aEFkanVzdD0ic3BhY2luZyIgdGV4dExlbmd0aD0iMjUyIiB4PSIxNDE2LjUiIHk9Ijc4NS4yMTg4Ij5MaXN0Jmx0O0NoYXJhY3RlciZndDsgX3JlY3J1aXRlZENoYXJhY3RlcnM8L3RleHQ+PGVsbGlwc2UgY3g9IjE0MDcuNSIgY3k9Ijc5NS45NjA5IiBmaWxsPSJub25lIiByeD0iMyIgcnk9IjMiIHN0eWxlPSJzdHJva2U6IzAzODA0ODtzdHJva2Utd2lkdGg6MS4wOyIvPjx0ZXh0IGZpbGw9IiMwMDAwMDAiIGZvbnQtZmFtaWx5PSJzYW5zLXNlcmlmIiBmb250LXNpemU9IjE0IiBsZW5ndGhBZGp1c3Q9InNwYWNpbmciIHRleHRMZW5ndGg9IjE0OSIgeD0iMTQxNi41IiB5PSI4MDAuMjAzMSI+WmVuaSAmIzE3MTtwcm9wZXJ0eSYjMTg3OyA6IGludDwvdGV4dD48ZWxsaXBzZSBjeD0iMTQwNy41IiBjeT0iODEwLjk0NTMiIGZpbGw9Im5vbmUiIHJ4PSIzIiByeT0iMyIgc3R5bGU9InN0cm9rZTojMDM4MDQ4O3N0cm9rZS13aWR0aDoxLjA7Ii8+PHRleHQgZmlsbD0iIzAwMDAwMCIgZm9udC1mYW1pbHk9InNhbnMtc2VyaWYiIGZvbnQtc2l6ZT0iMTQiIGxlbmd0aEFkanVzdD0ic3BhY2luZyIgdGV4dExlbmd0aD0iMzM4IiB4PSIxNDE2LjUiIHk9IjgxNS4xODc1Ij5SZWNydWl0ZWRDaGFyYWN0ZXJzICYjMTcxO3Byb3BlcnR5JiMxODc7IDogTGlzdCZsdDtDaGFyYWN0ZXImZ3Q7PC90ZXh0PjxsaW5lIHN0eWxlPSJzdHJva2U6IzE4MTgxODtzdHJva2Utd2lkdGg6MC41OyIgeDE9IjEzOTcuNSIgeDI9IjE3NTkuNSIgeTE9IjgyMC45Mzc1IiB5Mj0iODIwLjkzNzUiLz48ZWxsaXBzZSBjeD0iMTQwNy41IiBjeT0iODMzLjkyOTciIGZpbGw9IiM4NEJFODQiIHJ4PSIzIiByeT0iMyIgc3R5bGU9InN0cm9rZTojMDM4MDQ4O3N0cm9rZS13aWR0aDoxLjA7Ii8+PHRleHQgZmlsbD0iIzAwMDAwMCIgZm9udC1mYW1pbHk9InNhbnMtc2VyaWYiIGZvbnQtc2l6ZT0iMTQiIGxlbmd0aEFkanVzdD0ic3BhY2luZyIgdGV4dExlbmd0aD0iNTgiIHg9IjE0MTYuNSIgeT0iODM4LjE3MTkiPlBsYXllcigpPC90ZXh0PjxlbGxpcHNlIGN4PSIxNDA3LjUiIGN5PSI4NDguOTE0MSIgZmlsbD0iIzg0QkU4NCIgcng9IjMiIHJ5PSIzIiBzdHlsZT0ic3Ryb2tlOiMwMzgwNDg7c3Ryb2tlLXdpZHRoOjEuMDsiLz48dGV4dCBmaWxsPSIjMDAwMDAwIiBmb250LWZhbWlseT0ic2Fucy1zZXJpZiIgZm9udC1zaXplPSIxNCIgbGVuZ3RoQWRqdXN0PSJzcGFjaW5nIiB0ZXh0TGVuZ3RoPSIxMzYiIHg9IjE0MTYuNSIgeT0iODUzLjE1NjMiPkFkZFplbmkoaW50IGFtb3VudCk8L3RleHQ+PGVsbGlwc2UgY3g9IjE0MDcuNSIgY3k9Ijg2My44OTg0IiBmaWxsPSIjODRCRTg0IiByeD0iMyIgcnk9IjMiIHN0eWxlPSJzdHJva2U6IzAzODA0ODtzdHJva2Utd2lkdGg6MS4wOyIvPjx0ZXh0IGZpbGw9IiMwMDAwMDAiIGZvbnQtZmFtaWx5PSJzYW5zLXNlcmlmIiBmb250LXNpemU9IjE0IiBsZW5ndGhBZGp1c3Q9InNwYWNpbmciIHRleHRMZW5ndGg9IjE1NyIgeD0iMTQxNi41IiB5PSI4NjguMTQwNiI+RGVkdWN0WmVuaShpbnQgYW1vdW50KTwvdGV4dD48ZWxsaXBzZSBjeD0iMTQwNy41IiBjeT0iODc4Ljg4MjgiIGZpbGw9IiM4NEJFODQiIHJ4PSIzIiByeT0iMyIgc3R5bGU9InN0cm9rZTojMDM4MDQ4O3N0cm9rZS13aWR0aDoxLjA7Ii8+PHRleHQgZmlsbD0iIzAwMDAwMCIgZm9udC1mYW1pbHk9InNhbnMtc2VyaWYiIGZvbnQtc2l6ZT0iMTQiIGxlbmd0aEFkanVzdD0ic3BhY2luZyIgdGV4dExlbmd0aD0iMjk2IiB4PSIxNDE2LjUiIHk9Ijg4My4xMjUiPkFkZFJlY3J1aXRlZENoYXJhY3RlcihDaGFyYWN0ZXIgY2hhcmFjdGVyKTwvdGV4dD48ZWxsaXBzZSBjeD0iMTQwNy41IiBjeT0iODkzLjg2NzIiIGZpbGw9IiM4NEJFODQiIHJ4PSIzIiByeT0iMyIgc3R5bGU9InN0cm9rZTojMDM4MDQ4O3N0cm9rZS13aWR0aDoxLjA7Ii8+PHRleHQgZmlsbD0iIzAwMDAwMCIgZm9udC1mYW1pbHk9InNhbnMtc2VyaWYiIGZvbnQtc2l6ZT0iMTQiIGxlbmd0aEFkanVzdD0ic3BhY2luZyIgdGV4dExlbmd0aD0iMzE4IiB4PSIxNDE2LjUiIHk9Ijg5OC4xMDk0Ij5HZXRSZWNydWl0ZWRDaGFyYWN0ZXIoc3RyaW5nIG5hbWUpOiBDaGFyYWN0ZXI8L3RleHQ+PC9nPjwhLS1jbGFzcyBSZWNydWl0U3lzdGVtLS0+PGcgaWQ9ImVsZW1fUmVjcnVpdFN5c3RlbSI+PHJlY3QgY29kZUxpbmU9IjEzMiIgZmlsbD0iI0YxRjFGMSIgaGVpZ2h0PSIxNTIuODkwNiIgaWQ9IlJlY3J1aXRTeXN0ZW0iIHJ4PSIyLjUiIHJ5PSIyLjUiIHN0eWxlPSJzdHJva2U6IzE4MTgxODtzdHJva2Utd2lkdGg6MC41OyIgd2lkdGg9IjQwNiIgeD0iMTM1NS41IiB5PSI0NDgiLz48ZWxsaXBzZSBjeD0iMTUwOC4yNSIgY3k9IjQ2NCIgZmlsbD0iI0FERDFCMiIgcng9IjExIiByeT0iMTEiIHN0eWxlPSJzdHJva2U6IzE4MTgxODtzdHJva2Utd2lkdGg6MS4wOyIvPjxwYXRoIGQ9Ik0xNTA1Ljg3NSw0NjguMjUgTDE1MDUuODc1LDQ3MCBMMTUxMC44MTI1LDQ3MCBMMTUxMC44MTI1LDQ2OC4yNSBMMTUwNS44NzUsNDY4LjI1IFogTTE1MDYuNTYyNSw0NjguOTM3NSBRMTUwNi41NjI1LDQ2OC45Mzc1IDE1MDYuNTYyNSw0NTkuNzUgTDE1MDQuODEyNSw0NTkuNzUgUTE1MDQuODEyNSw0NTkuNzUgMTUwNC44MTI1LDQ2OC45Mzc1IEwxNTA2LjU2MjUsNDY4LjkzNzUgWiBNMTUxMC4xMjUsNDY4LjkzNzUgTDE1MTEuODc1LDQ2OC45Mzc1IFExNTExLjg3NSw0NjguOTM3NSAxNTExLjg3NSw0NjYuMTI1IEwxNTEwLjEyNSw0NjYuMTI1IFExNTEwLjEyNSw0NjYuMTI1IDE1MTAuMTI1LDQ2OC45Mzc1IFogTTE1MTAuMTI1LDQ1OS43NSBRMTUxMC4xMjUsNDU5Ljc1IDE1MTAuMTI1LDQ2Mi41NjI1IEwxNTExLjg3NSw0NjIuNTYyNSBRMTUxMS44NzUsNDYyLjU2MjUgMTUxMS44NzUsNDU5Ljc1IEwxNTEwLjEyNSw0NTkuNzUgWiBNMTUwNS44NzUsNDYwLjQzNzUgTDE1MTAuODEyNSw0NjAuNDM3NSBMMTUxMC44MTI1LDQ1OC42ODc1IEwxNTA1Ljg3NSw0NTguNjg3NSBMMTUwNS44NzUsNDYwLjQzNzUgWiAiIGZpbGw9IiMwMDAwMDAiLz48dGV4dCBmaWxsPSIjMDAwMDAwIiBmb250LWZhbWlseT0ic2Fucy1zZXJpZiIgZm9udC1zaXplPSIxNCIgbGVuZ3RoQWRqdXN0PSJzcGFjaW5nIiB0ZXh0TGVuZ3RoPSI5MiIgeD0iMTUyOC43NSIgeT0iNDY5Ljc0MjIiPlJlY3J1aXRTeXN0ZW08L3RleHQ+PGxpbmUgc3R5bGU9InN0cm9rZTojMTgxODE4O3N0cm9rZS13aWR0aDowLjU7IiB4MT0iMTM1Ni41IiB4Mj0iMTc2MC41IiB5MT0iNDgwIiB5Mj0iNDgwIi8+PHJlY3QgZmlsbD0ibm9uZSIgaGVpZ2h0PSI2IiBzdHlsZT0ic3Ryb2tlOiNDODI5MzA7c3Ryb2tlLXdpZHRoOjEuMDsiIHdpZHRoPSI2IiB4PSIxMzYzLjUiIHk9IjQ4OS45OTIyIi8+PHRleHQgZmlsbD0iIzAwMDAwMCIgZm9udC1mYW1pbHk9InNhbnMtc2VyaWYiIGZvbnQtc2l6ZT0iMTQiIGxlbmd0aEFkanVzdD0ic3BhY2luZyIgdGV4dExlbmd0aD0iMjExIiB4PSIxMzc1LjUiIHk9IjQ5Ny4yMzQ0Ij5zdGF0aWMgUmVjcnVpdFN5c3RlbSBfaW5zdGFuY2U8L3RleHQ+PHJlY3QgZmlsbD0ibm9uZSIgaGVpZ2h0PSI2IiBzdHlsZT0ic3Ryb2tlOiNDODI5MzA7c3Ryb2tlLXdpZHRoOjEuMDsiIHdpZHRoPSI2IiB4PSIxMzYzLjUiIHk9IjUwNC45NzY2Ii8+PHRleHQgZmlsbD0iIzAwMDAwMCIgZm9udC1mYW1pbHk9InNhbnMtc2VyaWYiIGZvbnQtc2l6ZT0iMTQiIGxlbmd0aEFkanVzdD0ic3BhY2luZyIgdGV4dExlbmd0aD0iMjU5IiB4PSIxMzc1LjUiIHk9IjUxMi4yMTg4Ij5MaXN0Jmx0O0NoYXJhY3RlciZndDs6IF9yZWNydWl0ZWRDaGFyYWN0ZXJzPC90ZXh0PjxyZWN0IGZpbGw9Im5vbmUiIGhlaWdodD0iNiIgc3R5bGU9InN0cm9rZTojQzgyOTMwO3N0cm9rZS13aWR0aDoxLjA7IiB3aWR0aD0iNiIgeD0iMTM2My41IiB5PSI1MTkuOTYwOSIvPjx0ZXh0IGZpbGw9IiMwMDAwMDAiIGZvbnQtZmFtaWx5PSJzYW5zLXNlcmlmIiBmb250LXNpemU9IjE0IiBsZW5ndGhBZGp1c3Q9InNwYWNpbmciIHRleHRMZW5ndGg9IjEwMCIgeD0iMTM3NS41IiB5PSI1MjcuMjAzMSI+UmFuZG9tIF9yYW5kb208L3RleHQ+PGxpbmUgc3R5bGU9InN0cm9rZTojMTgxODE4O3N0cm9rZS13aWR0aDowLjU7IiB4MT0iMTM1Ni41IiB4Mj0iMTc2MC41IiB5MT0iNTMyLjk1MzEiIHkyPSI1MzIuOTUzMSIvPjxyZWN0IGZpbGw9IiNGMjRENUMiIGhlaWdodD0iNiIgc3R5bGU9InN0cm9rZTojQzgyOTMwO3N0cm9rZS13aWR0aDoxLjA7IiB3aWR0aD0iNiIgeD0iMTM2My41IiB5PSI1NDIuOTQ1MyIvPjx0ZXh0IGZpbGw9IiMwMDAwMDAiIGZvbnQtZmFtaWx5PSJzYW5zLXNlcmlmIiBmb250LXNpemU9IjE0IiBsZW5ndGhBZGp1c3Q9InNwYWNpbmciIHRleHRMZW5ndGg9IjEwOCIgeD0iMTM3NS41IiB5PSI1NTAuMTg3NSI+UmVjcnVpdFN5c3RlbSgpPC90ZXh0PjxyZWN0IGZpbGw9IiNGMjRENUMiIGhlaWdodD0iNiIgc3R5bGU9InN0cm9rZTojQzgyOTMwO3N0cm9rZS13aWR0aDoxLjA7IiB3aWR0aD0iNiIgeD0iMTM2My41IiB5PSI1NTcuOTI5NyIvPjx0ZXh0IGZpbGw9IiMwMDAwMDAiIGZvbnQtZmFtaWx5PSJzYW5zLXNlcmlmIiBmb250LXNpemU9IjE0IiBsZW5ndGhBZGp1c3Q9InNwYWNpbmciIHRleHRMZW5ndGg9IjM4MCIgeD0iMTM3NS41IiB5PSI1NjUuMTcxOSI+R2V0QXZhaWxhYmxlQ2hhcmFjdGVycyhQbGF5ZXIgcGxheWVyKTogTGlzdCZsdDtDaGFyYWN0ZXImZ3Q7PC90ZXh0PjxlbGxpcHNlIGN4PSIxMzY2LjUiIGN5PSI1NzUuOTE0MSIgZmlsbD0iIzg0QkU4NCIgcng9IjMiIHJ5PSIzIiBzdHlsZT0ic3Ryb2tlOiMwMzgwNDg7c3Ryb2tlLXdpZHRoOjEuMDsiLz48dGV4dCBmaWxsPSIjMDAwMDAwIiBmb250LWZhbWlseT0ic2Fucy1zZXJpZiIgZm9udC1zaXplPSIxNCIgbGVuZ3RoQWRqdXN0PSJzcGFjaW5nIiB0ZXh0TGVuZ3RoPSIyMjAiIHg9IjEzNzUuNSIgeT0iNTgwLjE1NjMiPnN0YXRpYyBSZWNydWl0U3lzdGVtIEluc3RhbmNlKCk8L3RleHQ+PGVsbGlwc2UgY3g9IjEzNjYuNSIgY3k9IjU5MC44OTg0IiBmaWxsPSIjODRCRTg0IiByeD0iMyIgcnk9IjMiIHN0eWxlPSJzdHJva2U6IzAzODA0ODtzdHJva2Utd2lkdGg6MS4wOyIvPjx0ZXh0IGZpbGw9IiMwMDAwMDAiIGZvbnQtZmFtaWx5PSJzYW5zLXNlcmlmIiBmb250LXNpemU9IjE0IiBsZW5ndGhBZGp1c3Q9InNwYWNpbmciIHRleHRMZW5ndGg9IjI2MiIgeD0iMTM3NS41IiB5PSI1OTUuMTQwNiI+UmVjcnVpdFJhbmRvbUNoYXJhY3RlcihQbGF5ZXIgcGxheWVyKTwvdGV4dD48L2c+PCEtLWNsYXNzIFJlY3J1aXRSZXN1bHQtLT48ZyBpZD0iZWxlbV9SZWNydWl0UmVzdWx0Ij48cmVjdCBjb2RlTGluZT0iMTQyIiBmaWxsPSIjRjFGMUYxIiBoZWlnaHQ9Ijc3Ljk2ODgiIGlkPSJSZWNydWl0UmVzdWx0IiByeD0iMi41IiByeT0iMi41IiBzdHlsZT0ic3Ryb2tlOiMxODE4MTg7c3Ryb2tlLXdpZHRoOjAuNTsiIHdpZHRoPSIyNTIiIHg9IjEyOTkuNSIgeT0iMjIwIi8+PGVsbGlwc2UgY3g9IjEzNzUuNzUiIGN5PSIyMzYiIGZpbGw9IiNBREQxQjIiIHJ4PSIxMSIgcnk9IjExIiBzdHlsZT0ic3Ryb2tlOiMxODE4MTg7c3Ryb2tlLXdpZHRoOjEuMDsiLz48cGF0aCBkPSJNMTM3My4zNzUsMjQwLjI1IEwxMzczLjM3NSwyNDIgTDEzNzguMzEyNSwyNDIgTDEzNzguMzEyNSwyNDAuMjUgTDEzNzMuMzc1LDI0MC4yNSBaIE0xMzc0LjA2MjUsMjQwLjkzNzUgUTEzNzQuMDYyNSwyNDAuOTM3NSAxMzc0LjA2MjUsMjMxLjc1IEwxMzcyLjMxMjUsMjMxLjc1IFExMzcyLjMxMjUsMjMxLjc1IDEzNzIuMzEyNSwyNDAuOTM3NSBMMTM3NC4wNjI1LDI0MC45Mzc1IFogTTEzNzcuNjI1LDI0MC45Mzc1IEwxMzc5LjM3NSwyNDAuOTM3NSBRMTM3OS4zNzUsMjQwLjkzNzUgMTM3OS4zNzUsMjM4LjEyNSBMMTM3Ny42MjUsMjM4LjEyNSBRMTM3Ny42MjUsMjM4LjEyNSAxMzc3LjYyNSwyNDAuOTM3NSBaIE0xMzc3LjYyNSwyMzEuNzUgUTEzNzcuNjI1LDIzMS43NSAxMzc3LjYyNSwyMzQuNTYyNSBMMTM3OS4zNzUsMjM0LjU2MjUgUTEzNzkuMzc1LDIzNC41NjI1IDEzNzkuMzc1LDIzMS43NSBMMTM3Ny42MjUsMjMxLjc1IFogTTEzNzMuMzc1LDIzMi40Mzc1IEwxMzc4LjMxMjUsMjMyLjQzNzUgTDEzNzguMzEyNSwyMzAuNjg3NSBMMTM3My4zNzUsMjMwLjY4NzUgTDEzNzMuMzc1LDIzMi40Mzc1IFogIiBmaWxsPSIjMDAwMDAwIi8+PHRleHQgZmlsbD0iIzAwMDAwMCIgZm9udC1mYW1pbHk9InNhbnMtc2VyaWYiIGZvbnQtc2l6ZT0iMTQiIGxlbmd0aEFkanVzdD0ic3BhY2luZyIgdGV4dExlbmd0aD0iOTEiIHg9IjEzOTYuMjUiIHk9IjI0MS43NDIyIj5SZWNydWl0UmVzdWx0PC90ZXh0PjxsaW5lIHN0eWxlPSJzdHJva2U6IzE4MTgxODtzdHJva2Utd2lkdGg6MC41OyIgeDE9IjEzMDAuNSIgeDI9IjE1NTAuNSIgeTE9IjI1MiIgeTI9IjI1MiIvPjxlbGxpcHNlIGN4PSIxMzEwLjUiIGN5PSIyNjQuOTkyMiIgZmlsbD0ibm9uZSIgcng9IjMiIHJ5PSIzIiBzdHlsZT0ic3Ryb2tlOiMwMzgwNDg7c3Ryb2tlLXdpZHRoOjEuMDsiLz48dGV4dCBmaWxsPSIjMDAwMDAwIiBmb250LWZhbWlseT0ic2Fucy1zZXJpZiIgZm9udC1zaXplPSIxNCIgbGVuZ3RoQWRqdXN0PSJzcGFjaW5nIiB0ZXh0TGVuZ3RoPSIyMjYiIHg9IjEzMTkuNSIgeT0iMjY5LjIzNDQiPlN0YXR1cyAmIzE3MTtwcm9wZXJ0eSYjMTg3OzogUmVjcnVpdFN0YXR1czwvdGV4dD48ZWxsaXBzZSBjeD0iMTMxMC41IiBjeT0iMjc5Ljk3NjYiIGZpbGw9Im5vbmUiIHJ4PSIzIiByeT0iMyIgc3R5bGU9InN0cm9rZTojMDM4MDQ4O3N0cm9rZS13aWR0aDoxLjA7Ii8+PHRleHQgZmlsbD0iIzAwMDAwMCIgZm9udC1mYW1pbHk9InNhbnMtc2VyaWYiIGZvbnQtc2l6ZT0iMTQiIGxlbmd0aEFkanVzdD0ic3BhY2luZyIgdGV4dExlbmd0aD0iMjE5IiB4PSIxMzE5LjUiIHk9IjI4NC4yMTg4Ij5DaGFyYWN0ZXIgJiMxNzE7cHJvcGVydHkmIzE4Nzs6IENoYXJhY3RlcjwvdGV4dD48bGluZSBzdHlsZT0ic3Ryb2tlOiMxODE4MTg7c3Ryb2tlLXdpZHRoOjAuNTsiIHgxPSIxMzAwLjUiIHgyPSIxNTUwLjUiIHkxPSIyODkuOTY4OCIgeTI9IjI4OS45Njg4Ii8+PC9nPjwhLS1jbGFzcyBSZWNydWl0U3RhdHVzLS0+PGcgaWQ9ImVsZW1fUmVjcnVpdFN0YXR1cyI+PHJlY3QgY29kZUxpbmU9IjE0NyIgZmlsbD0iI0YxRjFGMSIgaGVpZ2h0PSIxMDcuOTM3NSIgaWQ9IlJlY3J1aXRTdGF0dXMiIHJ4PSIyLjUiIHJ5PSIyLjUiIHN0eWxlPSJzdHJva2U6IzE4MTgxODtzdHJva2Utd2lkdGg6MC41OyIgd2lkdGg9IjE2MCIgeD0iMTIwMS41IiB5PSI3NTguNSIvPjxlbGxpcHNlIGN4PSIxMjMzLjE1IiBjeT0iNzc0LjUiIGZpbGw9IiNFQjkzN0YiIHJ4PSIxMSIgcnk9IjExIiBzdHlsZT0ic3Ryb2tlOiMxODE4MTg7c3Ryb2tlLXdpZHRoOjEuMDsiLz48cGF0aCBkPSJNMTIzNi43NzUsNzgwLjUgTDEyMzYuNzc1LDc3OC43NSBMMTIzMS40NjI1LDc3OC43NSBRMTIzMS40NjI1LDc3OC43NSAxMjMxLjQ2MjUsNzc1LjE4NzUgTDEyMzUuNzEyNSw3NzUuMTg3NSBMMTIzNS43MTI1LDc3My40Mzc1IEwxMjMxLjQ2MjUsNzczLjQzNzUgTDEyMzEuNDYyNSw3NzAuOTM3NSBMMTIzNi43NzUsNzcwLjkzNzUgTDEyMzYuNzc1LDc2OS4xODc1IEwxMjI5LjcxMjUsNzY5LjE4NzUgUTEyMjkuNzEyNSw3NjkuMTg3NSAxMjI5LjcxMjUsNzgwLjUgTDEyMzYuNzc1LDc4MC41IFogIiBmaWxsPSIjMDAwMDAwIi8+PHRleHQgZmlsbD0iIzAwMDAwMCIgZm9udC1mYW1pbHk9InNhbnMtc2VyaWYiIGZvbnQtc2l6ZT0iMTQiIGxlbmd0aEFkanVzdD0ic3BhY2luZyIgdGV4dExlbmd0aD0iOTEiIHg9IjEyNTAuODUiIHk9Ijc4MC4yNDIyIj5SZWNydWl0U3RhdHVzPC90ZXh0PjxsaW5lIHN0eWxlPSJzdHJva2U6IzE4MTgxODtzdHJva2Utd2lkdGg6MC41OyIgeDE9IjEyMDIuNSIgeDI9IjEzNjAuNSIgeTE9Ijc5MC41IiB5Mj0iNzkwLjUiLz48dGV4dCBmaWxsPSIjMDAwMDAwIiBmb250LWZhbWlseT0ic2Fucy1zZXJpZiIgZm9udC1zaXplPSIxNCIgbGVuZ3RoQWRqdXN0PSJzcGFjaW5nIiB0ZXh0TGVuZ3RoPSI5MSIgeD0iMTIwNy41IiB5PSI4MDcuNzM0NCI+Tm90RW5vdWdoWmVuaTwvdGV4dD48dGV4dCBmaWxsPSIjMDAwMDAwIiBmb250LWZhbWlseT0ic2Fucy1zZXJpZiIgZm9udC1zaXplPSIxNCIgbGVuZ3RoQWRqdXN0PSJzcGFjaW5nIiB0ZXh0TGVuZ3RoPSIxNDciIHg9IjEyMDcuNSIgeT0iODIyLjcxODgiPk5vQXZhaWxhYmxlQ2hhcmFjdGVyczwvdGV4dD48dGV4dCBmaWxsPSIjMDAwMDAwIiBmb250LWZhbWlseT0ic2Fucy1zZXJpZiIgZm9udC1zaXplPSIxNCIgbGVuZ3RoQWRqdXN0PSJzcGFjaW5nIiB0ZXh0TGVuZ3RoPSIxNDgiIHg9IjEyMDcuNSIgeT0iODM3LjcwMzEiPk5ld0NoYXJhY3RlclJlY3J1aXRlZDwvdGV4dD48dGV4dCBmaWxsPSIjMDAwMDAwIiBmb250LWZhbWlseT0ic2Fucy1zZXJpZiIgZm9udC1zaXplPSIxNCIgbGVuZ3RoQWRqdXN0PSJzcGFjaW5nIiB0ZXh0TGVuZ3RoPSIxMTIiIHg9IjEyMDcuNSIgeT0iODUyLjY4NzUiPkNoYXJhY3RlckV2b2x2ZWQ8L3RleHQ+PGxpbmUgc3R5bGU9InN0cm9rZTojMTgxODE4O3N0cm9rZS13aWR0aDowLjU7IiB4MT0iMTIwMi41IiB4Mj0iMTM2MC41IiB5MT0iODU4LjQzNzUiIHkyPSI4NTguNDM3NSIvPjwvZz48IS0tY2xhc3MgVmlsbGFpbkFJLS0+PGcgaWQ9ImVsZW1fVmlsbGFpbkFJIj48cmVjdCBjb2RlTGluZT0iMTU0IiBmaWxsPSIjRjFGMUYxIiBoZWlnaHQ9IjEwNy45Mzc1IiBpZD0iVmlsbGFpbkFJIiByeD0iMi41IiByeT0iMi41IiBzdHlsZT0ic3Ryb2tlOiMxODE4MTg7c3Ryb2tlLXdpZHRoOjAuNTsiIHdpZHRoPSI0MzQiIHg9IjE4NjYuNSIgeT0iMTIwNCIvPjxlbGxpcHNlIGN4PSIyMDQ3Ljc1IiBjeT0iMTIyMCIgZmlsbD0iI0FERDFCMiIgcng9IjExIiByeT0iMTEiIHN0eWxlPSJzdHJva2U6IzE4MTgxODtzdHJva2Utd2lkdGg6MS4wOyIvPjxwYXRoIGQ9Ik0yMDQ1LjM3NSwxMjI0LjI1IEwyMDQ1LjM3NSwxMjI2IEwyMDUwLjMxMjUsMTIyNiBMMjA1MC4zMTI1LDEyMjQuMjUgTDIwNDUuMzc1LDEyMjQuMjUgWiBNMjA0Ni4wNjI1LDEyMjQuOTM3NSBRMjA0Ni4wNjI1LDEyMjQuOTM3NSAyMDQ2LjA2MjUsMTIxNS43NSBMMjA0NC4zMTI1LDEyMTUuNzUgUTIwNDQuMzEyNSwxMjE1Ljc1IDIwNDQuMzEyNSwxMjI0LjkzNzUgTDIwNDYuMDYyNSwxMjI0LjkzNzUgWiBNMjA0OS42MjUsMTIyNC45Mzc1IEwyMDUxLjM3NSwxMjI0LjkzNzUgUTIwNTEuMzc1LDEyMjQuOTM3NSAyMDUxLjM3NSwxMjIyLjEyNSBMMjA0OS42MjUsMTIyMi4xMjUgUTIwNDkuNjI1LDEyMjIuMTI1IDIwNDkuNjI1LDEyMjQuOTM3NSBaIE0yMDQ5LjYyNSwxMjE1Ljc1IFEyMDQ5LjYyNSwxMjE1Ljc1IDIwNDkuNjI1LDEyMTguNTYyNSBMMjA1MS4zNzUsMTIxOC41NjI1IFEyMDUxLjM3NSwxMjE4LjU2MjUgMjA1MS4zNzUsMTIxNS43NSBMMjA0OS42MjUsMTIxNS43NSBaIE0yMDQ1LjM3NSwxMjE2LjQzNzUgTDIwNTAuMzEyNSwxMjE2LjQzNzUgTDIwNTAuMzEyNSwxMjE0LjY4NzUgTDIwNDUuMzc1LDEyMTQuNjg3NSBMMjA0NS4zNzUsMTIxNi40Mzc1IFogIiBmaWxsPSIjMDAwMDAwIi8+PHRleHQgZmlsbD0iIzAwMDAwMCIgZm9udC1mYW1pbHk9InNhbnMtc2VyaWYiIGZvbnQtc2l6ZT0iMTQiIGxlbmd0aEFkanVzdD0ic3BhY2luZyIgdGV4dExlbmd0aD0iNjMiIHg9IjIwNjguMjUiIHk9IjEyMjUuNzQyMiI+VmlsbGFpbkFJPC90ZXh0PjxsaW5lIHN0eWxlPSJzdHJva2U6IzE4MTgxODtzdHJva2Utd2lkdGg6MC41OyIgeDE9IjE4NjcuNSIgeDI9IjIyOTkuNSIgeTE9IjEyMzYiIHkyPSIxMjM2Ii8+PHJlY3QgZmlsbD0ibm9uZSIgaGVpZ2h0PSI2IiBzdHlsZT0ic3Ryb2tlOiNDODI5MzA7c3Ryb2tlLXdpZHRoOjEuMDsiIHdpZHRoPSI2IiB4PSIxODc0LjUiIHk9IjEyNDUuOTkyMiIvPjx0ZXh0IGZpbGw9IiMwMDAwMDAiIGZvbnQtZmFtaWx5PSJzYW5zLXNlcmlmIiBmb250LXNpemU9IjE0IiBsZW5ndGhBZGp1c3Q9InNwYWNpbmciIHRleHRMZW5ndGg9IjE4MiIgeD0iMTg4Ni41IiB5PSIxMjUzLjIzNDQiPklWaWxsYWluU3RyYXRlZ3kgX3N0cmF0ZWd5PC90ZXh0PjxsaW5lIHN0eWxlPSJzdHJva2U6IzE4MTgxODtzdHJva2Utd2lkdGg6MC41OyIgeDE9IjE4NjcuNSIgeDI9IjIyOTkuNSIgeTE9IjEyNTguOTg0NCIgeTI9IjEyNTguOTg0NCIvPjxlbGxpcHNlIGN4PSIxODc3LjUiIGN5PSIxMjcxLjk3NjYiIGZpbGw9IiM4NEJFODQiIHJ4PSIzIiByeT0iMyIgc3R5bGU9InN0cm9rZTojMDM4MDQ4O3N0cm9rZS13aWR0aDoxLjA7Ii8+PHRleHQgZmlsbD0iIzAwMDAwMCIgZm9udC1mYW1pbHk9InNhbnMtc2VyaWYiIGZvbnQtc2l6ZT0iMTQiIGxlbmd0aEFkanVzdD0ic3BhY2luZyIgdGV4dExlbmd0aD0iNzkiIHg9IjE4ODYuNSIgeT0iMTI3Ni4yMTg4Ij5WaWxsYWluQUkoKTwvdGV4dD48ZWxsaXBzZSBjeD0iMTg3Ny41IiBjeT0iMTI4Ni45NjA5IiBmaWxsPSIjODRCRTg0IiByeD0iMyIgcnk9IjMiIHN0eWxlPSJzdHJva2U6IzAzODA0ODtzdHJva2Utd2lkdGg6MS4wOyIvPjx0ZXh0IGZpbGw9IiMwMDAwMDAiIGZvbnQtZmFtaWx5PSJzYW5zLXNlcmlmIiBmb250LXNpemU9IjE0IiBsZW5ndGhBZGp1c3Q9InNwYWNpbmciIHRleHRMZW5ndGg9IjQwOCIgeD0iMTg4Ni41IiB5PSIxMjkxLjIwMzEiPkFjdGlvbihDaGFyYWN0ZXIgdmlsbGFpbiwgQ2hhcmFjdGVyIHBsYXllcik6IFZpbGxhaW5BY3Rpb248L3RleHQ+PHJlY3QgZmlsbD0iI0YyNEQ1QyIgaGVpZ2h0PSI2IiBzdHlsZT0ic3Ryb2tlOiNDODI5MzA7c3Ryb2tlLXdpZHRoOjEuMDsiIHdpZHRoPSI2IiB4PSIxODc0LjUiIHk9IjEyOTguOTQ1MyIvPjx0ZXh0IGZpbGw9IiMwMDAwMDAiIGZvbnQtZmFtaWx5PSJzYW5zLXNlcmlmIiBmb250LXNpemU9IjE0IiBsZW5ndGhBZGp1c3Q9InNwYWNpbmciIHRleHRMZW5ndGg9IjMzOCIgeD0iMTg4Ni41IiB5PSIxMzA2LjE4NzUiPlNldFN0cmF0ZWd5KENoYXJhY3RlciB2aWxsYWluLCBDaGFyYWN0ZXIgcGxheWVyKTwvdGV4dD48L2c+PCEtLWNsYXNzIFZpbGxhaW5BY3Rpb24tLT48ZyBpZD0iZWxlbV9WaWxsYWluQWN0aW9uIj48cmVjdCBjb2RlTGluZT0iMTYxIiBmaWxsPSIjRjFGMUYxIiBoZWlnaHQ9Ijc3Ljk2ODgiIGlkPSJWaWxsYWluQWN0aW9uIiByeD0iMi41IiByeT0iMi41IiBzdHlsZT0ic3Ryb2tlOiMxODE4MTg7c3Ryb2tlLXdpZHRoOjAuNTsiIHdpZHRoPSIxMjMiIHg9IjI0OTAiIHk9IjE3MDUiLz48ZWxsaXBzZSBjeD0iMjUwNSIgY3k9IjE3MjEiIGZpbGw9IiNFQjkzN0YiIHJ4PSIxMSIgcnk9IjExIiBzdHlsZT0ic3Ryb2tlOiMxODE4MTg7c3Ryb2tlLXdpZHRoOjEuMDsiLz48cGF0aCBkPSJNMjUwOC42MjUsMTcyNyBMMjUwOC42MjUsMTcyNS4yNSBMMjUwMy4zMTI1LDE3MjUuMjUgUTI1MDMuMzEyNSwxNzI1LjI1IDI1MDMuMzEyNSwxNzIxLjY4NzUgTDI1MDcuNTYyNSwxNzIxLjY4NzUgTDI1MDcuNTYyNSwxNzE5LjkzNzUgTDI1MDMuMzEyNSwxNzE5LjkzNzUgTDI1MDMuMzEyNSwxNzE3LjQzNzUgTDI1MDguNjI1LDE3MTcuNDM3NSBMMjUwOC42MjUsMTcxNS42ODc1IEwyNTAxLjU2MjUsMTcxNS42ODc1IFEyNTAxLjU2MjUsMTcxNS42ODc1IDI1MDEuNTYyNSwxNzI3IEwyNTA4LjYyNSwxNzI3IFogIiBmaWxsPSIjMDAwMDAwIi8+PHRleHQgZmlsbD0iIzAwMDAwMCIgZm9udC1mYW1pbHk9InNhbnMtc2VyaWYiIGZvbnQtc2l6ZT0iMTQiIGxlbmd0aEFkanVzdD0ic3BhY2luZyIgdGV4dExlbmd0aD0iOTEiIHg9IjI1MTkiIHk9IjE3MjYuNzQyMiI+VmlsbGFpbkFjdGlvbjwvdGV4dD48bGluZSBzdHlsZT0ic3Ryb2tlOiMxODE4MTg7c3Ryb2tlLXdpZHRoOjAuNTsiIHgxPSIyNDkxIiB4Mj0iMjYxMiIgeTE9IjE3MzciIHkyPSIxNzM3Ii8+PHRleHQgZmlsbD0iIzAwMDAwMCIgZm9udC1mYW1pbHk9InNhbnMtc2VyaWYiIGZvbnQtc2l6ZT0iMTQiIGxlbmd0aEFkanVzdD0ic3BhY2luZyIgdGV4dExlbmd0aD0iMzUiIHg9IjI0OTYiIHk9IjE3NTQuMjM0NCI+QmxvY2s8L3RleHQ+PHRleHQgZmlsbD0iIzAwMDAwMCIgZm9udC1mYW1pbHk9InNhbnMtc2VyaWYiIGZvbnQtc2l6ZT0iMTQiIGxlbmd0aEFkanVzdD0ic3BhY2luZyIgdGV4dExlbmd0aD0iNDIiIHg9IjI0OTYiIHk9IjE3NjkuMjE4OCI+QXR0YWNrPC90ZXh0PjxsaW5lIHN0eWxlPSJzdHJva2U6IzE4MTgxODtzdHJva2Utd2lkdGg6MC41OyIgeDE9IjI0OTEiIHgyPSIyNjEyIiB5MT0iMTc3NC45Njg4IiB5Mj0iMTc3NC45Njg4Ii8+PC9nPjwhLS1jbGFzcyBJVmlsbGFpblN0cmF0ZWd5LS0+PGcgaWQ9ImVsZW1fSVZpbGxhaW5TdHJhdGVneSI+PHJlY3QgY29kZUxpbmU9IjE2NSIgZmlsbD0iI0YxRjFGMSIgaGVpZ2h0PSI2Mi45ODQ0IiBpZD0iSVZpbGxhaW5TdHJhdGVneSIgcng9IjIuNSIgcnk9IjIuNSIgc3R5bGU9InN0cm9rZTojMTgxODE4O3N0cm9rZS13aWR0aDowLjU7IiB3aWR0aD0iNDc2IiB4PSIyNjQ4LjUiIHk9IjE1NjciLz48ZWxsaXBzZSBjeD0iMjgyNi4yNSIgY3k9IjE1ODMiIGZpbGw9IiNCNEE3RTUiIHJ4PSIxMSIgcnk9IjExIiBzdHlsZT0ic3Ryb2tlOiMxODE4MTg7c3Ryb2tlLXdpZHRoOjEuMDsiLz48cGF0aCBkPSJNMjgyOS4zNzUsMTU4OSBMMjgyOS4zNzUsMTU4Ny4yNSBMMjgyNy4yNSwxNTg3LjI1IFEyODI3LjI1LDE1ODcuMjUgMjgyNy4yNSwxNTc5LjQzNzUgTDI4MjkuMzc1LDE1NzkuNDM3NSBMMjgyOS4zNzUsMTU3Ny42ODc1IEwyODIzLjM3NSwxNTc3LjY4NzUgTDI4MjMuMzc1LDE1NzkuNDM3NSBMMjgyNS41LDE1NzkuNDM3NSBRMjgyNS41LDE1NzkuNDM3NSAyODI1LjUsMTU4Ny4yNSBMMjgyMy4zNzUsMTU4Ny4yNSBMMjgyMy4zNzUsMTU4OSBMMjgyOS4zNzUsMTU4OSBaICIgZmlsbD0iIzAwMDAwMCIvPjx0ZXh0IGZpbGw9IiMwMDAwMDAiIGZvbnQtZmFtaWx5PSJzYW5zLXNlcmlmIiBmb250LXNpemU9IjE0IiBmb250LXN0eWxlPSJpdGFsaWMiIGxlbmd0aEFkanVzdD0ic3BhY2luZyIgdGV4dExlbmd0aD0iMTEyIiB4PSIyODQ2Ljc1IiB5PSIxNTg4Ljc0MjIiPklWaWxsYWluU3RyYXRlZ3k8L3RleHQ+PGxpbmUgc3R5bGU9InN0cm9rZTojMTgxODE4O3N0cm9rZS13aWR0aDowLjU7IiB4MT0iMjY0OS41IiB4Mj0iMzEyMy41IiB5MT0iMTU5OSIgeTI9IjE1OTkiLz48bGluZSBzdHlsZT0ic3Ryb2tlOiMxODE4MTg7c3Ryb2tlLXdpZHRoOjAuNTsiIHgxPSIyNjQ5LjUiIHgyPSIzMTIzLjUiIHkxPSIxNjA3IiB5Mj0iMTYwNyIvPjxlbGxpcHNlIGN4PSIyNjU5LjUiIGN5PSIxNjE5Ljk5MjIiIGZpbGw9IiM4NEJFODQiIHJ4PSIzIiByeT0iMyIgc3R5bGU9InN0cm9rZTojMDM4MDQ4O3N0cm9rZS13aWR0aDoxLjA7Ii8+PHRleHQgZmlsbD0iIzAwMDAwMCIgZm9udC1mYW1pbHk9InNhbnMtc2VyaWYiIGZvbnQtc2l6ZT0iMTQiIGxlbmd0aEFkanVzdD0ic3BhY2luZyIgdGV4dExlbmd0aD0iNDUwIiB4PSIyNjY4LjUiIHk9IjE2MjQuMjM0NCI+Q2hvb3NlQWN0aW9uKENoYXJhY3RlciB2aWxsYWluLCBDaGFyYWN0ZXIgcGxheWVyKTogVmlsbGFpbkFjdGlvbjwvdGV4dD48L2c+PCEtLWNsYXNzIERlZmF1bHRWaWxsYWluU3RyYXRlZ3ktLT48ZyBpZD0iZWxlbV9EZWZhdWx0VmlsbGFpblN0cmF0ZWd5Ij48cmVjdCBjb2RlTGluZT0iMTgxIiBmaWxsPSIjRjFGMUYxIiBoZWlnaHQ9Ijc3Ljk2ODgiIGlkPSJEZWZhdWx0VmlsbGFpblN0cmF0ZWd5IiByeD0iMi41IiByeT0iMi41IiBzdHlsZT0ic3Ryb2tlOiMxODE4MTg7c3Ryb2tlLXdpZHRoOjAuNTsiIHdpZHRoPSI0NzYiIHg9IjMxNTkuNSIgeT0iMTcwNSIvPjxlbGxpcHNlIGN4PSIzMzE2LjI1IiBjeT0iMTcyMSIgZmlsbD0iI0FERDFCMiIgcng9IjExIiByeT0iMTEiIHN0eWxlPSJzdHJva2U6IzE4MTgxODtzdHJva2Utd2lkdGg6MS4wOyIvPjxwYXRoIGQ9Ik0zMzEzLjg3NSwxNzI1LjI1IEwzMzEzLjg3NSwxNzI3IEwzMzE4LjgxMjUsMTcyNyBMMzMxOC44MTI1LDE3MjUuMjUgTDMzMTMuODc1LDE3MjUuMjUgWiBNMzMxNC41NjI1LDE3MjUuOTM3NSBRMzMxNC41NjI1LDE3MjUuOTM3NSAzMzE0LjU2MjUsMTcxNi43NSBMMzMxMi44MTI1LDE3MTYuNzUgUTMzMTIuODEyNSwxNzE2Ljc1IDMzMTIuODEyNSwxNzI1LjkzNzUgTDMzMTQuNTYyNSwxNzI1LjkzNzUgWiBNMzMxOC4xMjUsMTcyNS45Mzc1IEwzMzE5Ljg3NSwxNzI1LjkzNzUgUTMzMTkuODc1LDE3MjUuOTM3NSAzMzE5Ljg3NSwxNzIzLjEyNSBMMzMxOC4xMjUsMTcyMy4xMjUgUTMzMTguMTI1LDE3MjMuMTI1IDMzMTguMTI1LDE3MjUuOTM3NSBaIE0zMzE4LjEyNSwxNzE2Ljc1IFEzMzE4LjEyNSwxNzE2Ljc1IDMzMTguMTI1LDE3MTkuNTYyNSBMMzMxOS44NzUsMTcxOS41NjI1IFEzMzE5Ljg3NSwxNzE5LjU2MjUgMzMxOS44NzUsMTcxNi43NSBMMzMxOC4xMjUsMTcxNi43NSBaIE0zMzEzLjg3NSwxNzE3LjQzNzUgTDMzMTguODEyNSwxNzE3LjQzNzUgTDMzMTguODEyNSwxNzE1LjY4NzUgTDMzMTMuODc1LDE3MTUuNjg3NSBMMzMxMy44NzUsMTcxNy40Mzc1IFogIiBmaWxsPSIjMDAwMDAwIi8+PHRleHQgZmlsbD0iIzAwMDAwMCIgZm9udC1mYW1pbHk9InNhbnMtc2VyaWYiIGZvbnQtc2l6ZT0iMTQiIGxlbmd0aEFkanVzdD0ic3BhY2luZyIgdGV4dExlbmd0aD0iMTU0IiB4PSIzMzM2Ljc1IiB5PSIxNzI2Ljc0MjIiPkRlZmF1bHRWaWxsYWluU3RyYXRlZ3k8L3RleHQ+PGxpbmUgc3R5bGU9InN0cm9rZTojMTgxODE4O3N0cm9rZS13aWR0aDowLjU7IiB4MT0iMzE2MC41IiB4Mj0iMzYzNC41IiB5MT0iMTczNyIgeTI9IjE3MzciLz48cmVjdCBmaWxsPSJub25lIiBoZWlnaHQ9IjYiIHN0eWxlPSJzdHJva2U6I0M4MjkzMDtzdHJva2Utd2lkdGg6MS4wOyIgd2lkdGg9IjYiIHg9IjMxNjcuNSIgeT0iMTc0Ni45OTIyIi8+PHRleHQgZmlsbD0iIzAwMDAwMCIgZm9udC1mYW1pbHk9InNhbnMtc2VyaWYiIGZvbnQtc2l6ZT0iMTQiIGxlbmd0aEFkanVzdD0ic3BhY2luZyIgdGV4dExlbmd0aD0iMTAwIiB4PSIzMTc5LjUiIHk9IjE3NTQuMjM0NCI+UmFuZG9tIF9yYW5kb208L3RleHQ+PGxpbmUgc3R5bGU9InN0cm9rZTojMTgxODE4O3N0cm9rZS13aWR0aDowLjU7IiB4MT0iMzE2MC41IiB4Mj0iMzYzNC41IiB5MT0iMTc1OS45ODQ0IiB5Mj0iMTc1OS45ODQ0Ii8+PGVsbGlwc2UgY3g9IjMxNzAuNSIgY3k9IjE3NzIuOTc2NiIgZmlsbD0iIzg0QkU4NCIgcng9IjMiIHJ5PSIzIiBzdHlsZT0ic3Ryb2tlOiMwMzgwNDg7c3Ryb2tlLXdpZHRoOjEuMDsiLz48dGV4dCBmaWxsPSIjMDAwMDAwIiBmb250LWZhbWlseT0ic2Fucy1zZXJpZiIgZm9udC1zaXplPSIxNCIgbGVuZ3RoQWRqdXN0PSJzcGFjaW5nIiB0ZXh0TGVuZ3RoPSI0NTAiIHg9IjMxNzkuNSIgeT0iMTc3Ny4yMTg4Ij5DaG9vc2VBY3Rpb24oQ2hhcmFjdGVyIHZpbGxhaW4sIENoYXJhY3RlciBwbGF5ZXIpOiBWaWxsYWluQWN0aW9uPC90ZXh0PjwvZz48IS0tY2xhc3MgQWdncmVzc2l2ZVZpbGxhaW5TdHJhdGVneS0tPjxnIGlkPSJlbGVtX0FnZ3Jlc3NpdmVWaWxsYWluU3RyYXRlZ3kiPjxyZWN0IGNvZGVMaW5lPSIxODIiIGZpbGw9IiNGMUYxRjEiIGhlaWdodD0iNzcuOTY4OCIgaWQ9IkFnZ3Jlc3NpdmVWaWxsYWluU3RyYXRlZ3kiIHJ4PSIyLjUiIHJ5PSIyLjUiIHN0eWxlPSJzdHJva2U6IzE4MTgxODtzdHJva2Utd2lkdGg6MC41OyIgd2lkdGg9IjQ3NiIgeD0iMzY3MC41IiB5PSIxNzA1Ii8+PGVsbGlwc2UgY3g9IjM4MTYuNzUiIGN5PSIxNzIxIiBmaWxsPSIjQUREMUIyIiByeD0iMTEiIHJ5PSIxMSIgc3R5bGU9InN0cm9rZTojMTgxODE4O3N0cm9rZS13aWR0aDoxLjA7Ii8+PHBhdGggZD0iTTM4MTQuMzc1LDE3MjUuMjUgTDM4MTQuMzc1LDE3MjcgTDM4MTkuMzEyNSwxNzI3IEwzODE5LjMxMjUsMTcyNS4yNSBMMzgxNC4zNzUsMTcyNS4yNSBaIE0zODE1LjA2MjUsMTcyNS45Mzc1IFEzODE1LjA2MjUsMTcyNS45Mzc1IDM4MTUuMDYyNSwxNzE2Ljc1IEwzODEzLjMxMjUsMTcxNi43NSBRMzgxMy4zMTI1LDE3MTYuNzUgMzgxMy4zMTI1LDE3MjUuOTM3NSBMMzgxNS4wNjI1LDE3MjUuOTM3NSBaIE0zODE4LjYyNSwxNzI1LjkzNzUgTDM4MjAuMzc1LDE3MjUuOTM3NSBRMzgyMC4zNzUsMTcyNS45Mzc1IDM4MjAuMzc1LDE3MjMuMTI1IEwzODE4LjYyNSwxNzIzLjEyNSBRMzgxOC42MjUsMTcyMy4xMjUgMzgxOC42MjUsMTcyNS45Mzc1IFogTTM4MTguNjI1LDE3MTYuNzUgUTM4MTguNjI1LDE3MTYuNzUgMzgxOC42MjUsMTcxOS41NjI1IEwzODIwLjM3NSwxNzE5LjU2MjUgUTM4MjAuMzc1LDE3MTkuNTYyNSAzODIwLjM3NSwxNzE2Ljc1IEwzODE4LjYyNSwxNzE2Ljc1IFogTTM4MTQuMzc1LDE3MTcuNDM3NSBMMzgxOS4zMTI1LDE3MTcuNDM3NSBMMzgxOS4zMTI1LDE3MTUuNjg3NSBMMzgxNC4zNzUsMTcxNS42ODc1IEwzODE0LjM3NSwxNzE3LjQzNzUgWiAiIGZpbGw9IiMwMDAwMDAiLz48dGV4dCBmaWxsPSIjMDAwMDAwIiBmb250LWZhbWlseT0ic2Fucy1zZXJpZiIgZm9udC1zaXplPSIxNCIgbGVuZ3RoQWRqdXN0PSJzcGFjaW5nIiB0ZXh0TGVuZ3RoPSIxNzUiIHg9IjM4MzcuMjUiIHk9IjE3MjYuNzQyMiI+QWdncmVzc2l2ZVZpbGxhaW5TdHJhdGVneTwvdGV4dD48bGluZSBzdHlsZT0ic3Ryb2tlOiMxODE4MTg7c3Ryb2tlLXdpZHRoOjAuNTsiIHgxPSIzNjcxLjUiIHgyPSI0MTQ1LjUiIHkxPSIxNzM3IiB5Mj0iMTczNyIvPjxyZWN0IGZpbGw9Im5vbmUiIGhlaWdodD0iNiIgc3R5bGU9InN0cm9rZTojQzgyOTMwO3N0cm9rZS13aWR0aDoxLjA7IiB3aWR0aD0iNiIgeD0iMzY3OC41IiB5PSIxNzQ2Ljk5MjIiLz48dGV4dCBmaWxsPSIjMDAwMDAwIiBmb250LWZhbWlseT0ic2Fucy1zZXJpZiIgZm9udC1zaXplPSIxNCIgbGVuZ3RoQWRqdXN0PSJzcGFjaW5nIiB0ZXh0TGVuZ3RoPSIxMDAiIHg9IjM2OTAuNSIgeT0iMTc1NC4yMzQ0Ij5SYW5kb20gX3JhbmRvbTwvdGV4dD48bGluZSBzdHlsZT0ic3Ryb2tlOiMxODE4MTg7c3Ryb2tlLXdpZHRoOjAuNTsiIHgxPSIzNjcxLjUiIHgyPSI0MTQ1LjUiIHkxPSIxNzU5Ljk4NDQiIHkyPSIxNzU5Ljk4NDQiLz48ZWxsaXBzZSBjeD0iMzY4MS41IiBjeT0iMTc3Mi45NzY2IiBmaWxsPSIjODRCRTg0IiByeD0iMyIgcnk9IjMiIHN0eWxlPSJzdHJva2U6IzAzODA0ODtzdHJva2Utd2lkdGg6MS4wOyIvPjx0ZXh0IGZpbGw9IiMwMDAwMDAiIGZvbnQtZmFtaWx5PSJzYW5zLXNlcmlmIiBmb250LXNpemU9IjE0IiBsZW5ndGhBZGp1c3Q9InNwYWNpbmciIHRleHRMZW5ndGg9IjQ1MCIgeD0iMzY5MC41IiB5PSIxNzc3LjIxODgiPkNob29zZUFjdGlvbihDaGFyYWN0ZXIgdmlsbGFpbiwgQ2hhcmFjdGVyIHBsYXllcik6IFZpbGxhaW5BY3Rpb248L3RleHQ+PC9nPjwhLS1jbGFzcyBEZWZlbnNpdmVWaWxsYWluU3RyYXRlZ3ktLT48ZyBpZD0iZWxlbV9EZWZlbnNpdmVWaWxsYWluU3RyYXRlZ3kiPjxyZWN0IGNvZGVMaW5lPSIxODMiIGZpbGw9IiNGMUYxRjEiIGhlaWdodD0iNzcuOTY4OCIgaWQ9IkRlZmVuc2l2ZVZpbGxhaW5TdHJhdGVneSIgcng9IjIuNSIgcnk9IjIuNSIgc3R5bGU9InN0cm9rZTojMTgxODE4O3N0cm9rZS13aWR0aDowLjU7IiB3aWR0aD0iNDc2IiB4PSIyNjQ4LjUiIHk9IjE3MDUiLz48ZWxsaXBzZSBjeD0iMjc5OC4yNSIgY3k9IjE3MjEiIGZpbGw9IiNBREQxQjIiIHJ4PSIxMSIgcnk9IjExIiBzdHlsZT0ic3Ryb2tlOiMxODE4MTg7c3Ryb2tlLXdpZHRoOjEuMDsiLz48cGF0aCBkPSJNMjc5NS44NzUsMTcyNS4yNSBMMjc5NS44NzUsMTcyNyBMMjgwMC44MTI1LDE3MjcgTDI4MDAuODEyNSwxNzI1LjI1IEwyNzk1Ljg3NSwxNzI1LjI1IFogTTI3OTYuNTYyNSwxNzI1LjkzNzUgUTI3OTYuNTYyNSwxNzI1LjkzNzUgMjc5Ni41NjI1LDE3MTYuNzUgTDI3OTQuODEyNSwxNzE2Ljc1IFEyNzk0LjgxMjUsMTcxNi43NSAyNzk0LjgxMjUsMTcyNS45Mzc1IEwyNzk2LjU2MjUsMTcyNS45Mzc1IFogTTI4MDAuMTI1LDE3MjUuOTM3NSBMMjgwMS44NzUsMTcyNS45Mzc1IFEyODAxLjg3NSwxNzI1LjkzNzUgMjgwMS44NzUsMTcyMy4xMjUgTDI4MDAuMTI1LDE3MjMuMTI1IFEyODAwLjEyNSwxNzIzLjEyNSAyODAwLjEyNSwxNzI1LjkzNzUgWiBNMjgwMC4xMjUsMTcxNi43NSBRMjgwMC4xMjUsMTcxNi43NSAyODAwLjEyNSwxNzE5LjU2MjUgTDI4MDEuODc1LDE3MTkuNTYyNSBRMjgwMS44NzUsMTcxOS41NjI1IDI4MDEuODc1LDE3MTYuNzUgTDI4MDAuMTI1LDE3MTYuNzUgWiBNMjc5NS44NzUsMTcxNy40Mzc1IEwyODAwLjgxMjUsMTcxNy40Mzc1IEwyODAwLjgxMjUsMTcxNS42ODc1IEwyNzk1Ljg3NSwxNzE1LjY4NzUgTDI3OTUuODc1LDE3MTcuNDM3NSBaICIgZmlsbD0iIzAwMDAwMCIvPjx0ZXh0IGZpbGw9IiMwMDAwMDAiIGZvbnQtZmFtaWx5PSJzYW5zLXNlcmlmIiBmb250LXNpemU9IjE0IiBsZW5ndGhBZGp1c3Q9InNwYWNpbmciIHRleHRMZW5ndGg9IjE2OCIgeD0iMjgxOC43NSIgeT0iMTcyNi43NDIyIj5EZWZlbnNpdmVWaWxsYWluU3RyYXRlZ3k8L3RleHQ+PGxpbmUgc3R5bGU9InN0cm9rZTojMTgxODE4O3N0cm9rZS13aWR0aDowLjU7IiB4MT0iMjY0OS41IiB4Mj0iMzEyMy41IiB5MT0iMTczNyIgeTI9IjE3MzciLz48cmVjdCBmaWxsPSJub25lIiBoZWlnaHQ9IjYiIHN0eWxlPSJzdHJva2U6I0M4MjkzMDtzdHJva2Utd2lkdGg6MS4wOyIgd2lkdGg9IjYiIHg9IjI2NTYuNSIgeT0iMTc0Ni45OTIyIi8+PHRleHQgZmlsbD0iIzAwMDAwMCIgZm9udC1mYW1pbHk9InNhbnMtc2VyaWYiIGZvbnQtc2l6ZT0iMTQiIGxlbmd0aEFkanVzdD0ic3BhY2luZyIgdGV4dExlbmd0aD0iMTAwIiB4PSIyNjY4LjUiIHk9IjE3NTQuMjM0NCI+UmFuZG9tIF9yYW5kb208L3RleHQ+PGxpbmUgc3R5bGU9InN0cm9rZTojMTgxODE4O3N0cm9rZS13aWR0aDowLjU7IiB4MT0iMjY0OS41IiB4Mj0iMzEyMy41IiB5MT0iMTc1OS45ODQ0IiB5Mj0iMTc1OS45ODQ0Ii8+PGVsbGlwc2UgY3g9IjI2NTkuNSIgY3k9IjE3NzIuOTc2NiIgZmlsbD0iIzg0QkU4NCIgcng9IjMiIHJ5PSIzIiBzdHlsZT0ic3Ryb2tlOiMwMzgwNDg7c3Ryb2tlLXdpZHRoOjEuMDsiLz48dGV4dCBmaWxsPSIjMDAwMDAwIiBmb250LWZhbWlseT0ic2Fucy1zZXJpZiIgZm9udC1zaXplPSIxNCIgbGVuZ3RoQWRqdXN0PSJzcGFjaW5nIiB0ZXh0TGVuZ3RoPSI0NTAiIHg9IjI2NjguNSIgeT0iMTc3Ny4yMTg4Ij5DaG9vc2VBY3Rpb24oQ2hhcmFjdGVyIHZpbGxhaW4sIENoYXJhY3RlciBwbGF5ZXIpOiBWaWxsYWluQWN0aW9uPC90ZXh0PjwvZz48IS0tY2xhc3MgQmF0dGxlTWFuYWdlci0tPjxnIGlkPSJlbGVtX0JhdHRsZU1hbmFnZXIiPjxyZWN0IGNvZGVMaW5lPSIxODUiIGZpbGw9IiNGMUYxRjEiIGhlaWdodD0iMTA3LjkzNzUiIGlkPSJCYXR0bGVNYW5hZ2VyIiByeD0iMi41IiByeT0iMi41IiBzdHlsZT0ic3Ryb2tlOiMxODE4MTg7c3Ryb2tlLXdpZHRoOjAuNTsiIHdpZHRoPSIzNjQiIHg9IjI0MjEuNSIgeT0iNDcwLjUiLz48ZWxsaXBzZSBjeD0iMjU1My43NSIgY3k9IjQ4Ni41IiBmaWxsPSIjQUREMUIyIiByeD0iMTEiIHJ5PSIxMSIgc3R5bGU9InN0cm9rZTojMTgxODE4O3N0cm9rZS13aWR0aDoxLjA7Ii8+PHBhdGggZD0iTTI1NTEuMzc1LDQ5MC43NSBMMjU1MS4zNzUsNDkyLjUgTDI1NTYuMzEyNSw0OTIuNSBMMjU1Ni4zMTI1LDQ5MC43NSBMMjU1MS4zNzUsNDkwLjc1IFogTTI1NTIuMDYyNSw0OTEuNDM3NSBRMjU1Mi4wNjI1LDQ5MS40Mzc1IDI1NTIuMDYyNSw0ODIuMjUgTDI1NTAuMzEyNSw0ODIuMjUgUTI1NTAuMzEyNSw0ODIuMjUgMjU1MC4zMTI1LDQ5MS40Mzc1IEwyNTUyLjA2MjUsNDkxLjQzNzUgWiBNMjU1NS42MjUsNDkxLjQzNzUgTDI1NTcuMzc1LDQ5MS40Mzc1IFEyNTU3LjM3NSw0OTEuNDM3NSAyNTU3LjM3NSw0ODguNjI1IEwyNTU1LjYyNSw0ODguNjI1IFEyNTU1LjYyNSw0ODguNjI1IDI1NTUuNjI1LDQ5MS40Mzc1IFogTTI1NTUuNjI1LDQ4Mi4yNSBRMjU1NS42MjUsNDgyLjI1IDI1NTUuNjI1LDQ4NS4wNjI1IEwyNTU3LjM3NSw0ODUuMDYyNSBRMjU1Ny4zNzUsNDg1LjA2MjUgMjU1Ny4zNzUsNDgyLjI1IEwyNTU1LjYyNSw0ODIuMjUgWiBNMjU1MS4zNzUsNDgyLjkzNzUgTDI1NTYuMzEyNSw0ODIuOTM3NSBMMjU1Ni4zMTI1LDQ4MS4xODc1IEwyNTUxLjM3NSw0ODEuMTg3NSBMMjU1MS4zNzUsNDgyLjkzNzUgWiAiIGZpbGw9IiMwMDAwMDAiLz48dGV4dCBmaWxsPSIjMDAwMDAwIiBmb250LWZhbWlseT0ic2Fucy1zZXJpZiIgZm9udC1zaXplPSIxNCIgbGVuZ3RoQWRqdXN0PSJzcGFjaW5nIiB0ZXh0TGVuZ3RoPSI5MSIgeD0iMjU3NC4yNSIgeT0iNDkyLjI0MjIiPkJhdHRsZU1hbmFnZXI8L3RleHQ+PGxpbmUgc3R5bGU9InN0cm9rZTojMTgxODE4O3N0cm9rZS13aWR0aDowLjU7IiB4MT0iMjQyMi41IiB4Mj0iMjc4NC41IiB5MT0iNTAyLjUiIHkyPSI1MDIuNSIvPjxyZWN0IGZpbGw9Im5vbmUiIGhlaWdodD0iNiIgc3R5bGU9InN0cm9rZTojQzgyOTMwO3N0cm9rZS13aWR0aDoxLjA7IiB3aWR0aD0iNiIgeD0iMjQyOS41IiB5PSI1MTIuNDkyMiIvPjx0ZXh0IGZpbGw9IiMwMDAwMDAiIGZvbnQtZmFtaWx5PSJzYW5zLXNlcmlmIiBmb250LXNpemU9IjE0IiBsZW5ndGhBZGp1c3Q9InNwYWNpbmciIHRleHRMZW5ndGg9Ijk4IiB4PSIyNDQxLjUiIHk9IjUxOS43MzQ0Ij5QbGF5ZXIgX3BsYXllcjwvdGV4dD48cmVjdCBmaWxsPSJub25lIiBoZWlnaHQ9IjYiIHN0eWxlPSJzdHJva2U6I0M4MjkzMDtzdHJva2Utd2lkdGg6MS4wOyIgd2lkdGg9IjYiIHg9IjI0MjkuNSIgeT0iNTI3LjQ3NjYiLz48dGV4dCBmaWxsPSIjMDAwMDAwIiBmb250LWZhbWlseT0ic2Fucy1zZXJpZiIgZm9udC1zaXplPSIxNCIgbGVuZ3RoQWRqdXN0PSJzcGFjaW5nIiB0ZXh0TGVuZ3RoPSIxMDEiIHg9IjI0NDEuNSIgeT0iNTM0LjcxODgiPldpbmRvdyBfd2luZG93PC90ZXh0PjxsaW5lIHN0eWxlPSJzdHJva2U6IzE4MTgxODtzdHJva2Utd2lkdGg6MC41OyIgeDE9IjI0MjIuNSIgeDI9IjI3ODQuNSIgeTE9IjU0MC40Njg4IiB5Mj0iNTQwLjQ2ODgiLz48ZWxsaXBzZSBjeD0iMjQzMi41IiBjeT0iNTUzLjQ2MDkiIGZpbGw9IiM4NEJFODQiIHJ4PSIzIiByeT0iMyIgc3R5bGU9InN0cm9rZTojMDM4MDQ4O3N0cm9rZS13aWR0aDoxLjA7Ii8+PHRleHQgZmlsbD0iIzAwMDAwMCIgZm9udC1mYW1pbHk9InNhbnMtc2VyaWYiIGZvbnQtc2l6ZT0iMTQiIGxlbmd0aEFkanVzdD0ic3BhY2luZyIgdGV4dExlbmd0aD0iMjE5IiB4PSIyNDQxLjUiIHk9IjU1Ny43MDMxIj5HZXRTZWxlY3RlZERpZmZpY3VsdHkoKTogc3RyaW5nPC90ZXh0PjxlbGxpcHNlIGN4PSIyNDMyLjUiIGN5PSI1NjguNDQ1MyIgZmlsbD0iIzg0QkU4NCIgcng9IjMiIHJ5PSIzIiBzdHlsZT0ic3Ryb2tlOiMwMzgwNDg7c3Ryb2tlLXdpZHRoOjEuMDsiLz48dGV4dCBmaWxsPSIjMDAwMDAwIiBmb250LWZhbWlseT0ic2Fucy1zZXJpZiIgZm9udC1zaXplPSIxNCIgbGVuZ3RoQWRqdXN0PSJzcGFjaW5nIiB0ZXh0TGVuZ3RoPSIzMzgiIHg9IjI0NDEuNSIgeT0iNTcyLjY4NzUiPlN0YXJ0QmF0dGxlKENoYXJhY3RlciBzZWxlY3RlZENoYXJhY3Rlcik6IHN0cmluZzwvdGV4dD48L2c+PCEtLWNsYXNzIEJhdHRsZVVJLS0+PGcgaWQ9ImVsZW1fQmF0dGxlVUkiPjxyZWN0IGNvZGVMaW5lPSIxOTIiIGZpbGw9IiNGMUYxRjEiIGhlaWdodD0iMTUyLjg5MDYiIGlkPSJCYXR0bGVVSSIgcng9IjIuNSIgcnk9IjIuNSIgc3R5bGU9InN0cm9rZTojMTgxODE4O3N0cm9rZS13aWR0aDowLjU7IiB3aWR0aD0iNjYxIiB4PSIyMzM2IiB5PSIxMTgxLjUiLz48ZWxsaXBzZSBjeD0iMjYzNC4yNSIgY3k9IjExOTcuNSIgZmlsbD0iI0FERDFCMiIgcng9IjExIiByeT0iMTEiIHN0eWxlPSJzdHJva2U6IzE4MTgxODtzdHJva2Utd2lkdGg6MS4wOyIvPjxwYXRoIGQ9Ik0yNjMxLjg3NSwxMjAxLjc1IEwyNjMxLjg3NSwxMjAzLjUgTDI2MzYuODEyNSwxMjAzLjUgTDI2MzYuODEyNSwxMjAxLjc1IEwyNjMxLjg3NSwxMjAxLjc1IFogTTI2MzIuNTYyNSwxMjAyLjQzNzUgUTI2MzIuNTYyNSwxMjAyLjQzNzUgMjYzMi41NjI1LDExOTMuMjUgTDI2MzAuODEyNSwxMTkzLjI1IFEyNjMwLjgxMjUsMTE5My4yNSAyNjMwLjgxMjUsMTIwMi40Mzc1IEwyNjMyLjU2MjUsMTIwMi40Mzc1IFogTTI2MzYuMTI1LDEyMDIuNDM3NSBMMjYzNy44NzUsMTIwMi40Mzc1IFEyNjM3Ljg3NSwxMjAyLjQzNzUgMjYzNy44NzUsMTE5OS42MjUgTDI2MzYuMTI1LDExOTkuNjI1IFEyNjM2LjEyNSwxMTk5LjYyNSAyNjM2LjEyNSwxMjAyLjQzNzUgWiBNMjYzNi4xMjUsMTE5My4yNSBRMjYzNi4xMjUsMTE5My4yNSAyNjM2LjEyNSwxMTk2LjA2MjUgTDI2MzcuODc1LDExOTYuMDYyNSBRMjYzNy44NzUsMTE5Ni4wNjI1IDI2MzcuODc1LDExOTMuMjUgTDI2MzYuMTI1LDExOTMuMjUgWiBNMjYzMS44NzUsMTE5My45Mzc1IEwyNjM2LjgxMjUsMTE5My45Mzc1IEwyNjM2LjgxMjUsMTE5Mi4xODc1IEwyNjMxLjg3NSwxMTkyLjE4NzUgTDI2MzEuODc1LDExOTMuOTM3NSBaICIgZmlsbD0iIzAwMDAwMCIvPjx0ZXh0IGZpbGw9IiMwMDAwMDAiIGZvbnQtZmFtaWx5PSJzYW5zLXNlcmlmIiBmb250LXNpemU9IjE0IiBsZW5ndGhBZGp1c3Q9InNwYWNpbmciIHRleHRMZW5ndGg9IjU2IiB4PSIyNjU0Ljc1IiB5PSIxMjAzLjI0MjIiPkJhdHRsZVVJPC90ZXh0PjxsaW5lIHN0eWxlPSJzdHJva2U6IzE4MTgxODtzdHJva2Utd2lkdGg6MC41OyIgeDE9IjIzMzciIHgyPSIyOTk2IiB5MT0iMTIxMy41IiB5Mj0iMTIxMy41Ii8+PHJlY3QgZmlsbD0ibm9uZSIgaGVpZ2h0PSI2IiBzdHlsZT0ic3Ryb2tlOiNDODI5MzA7c3Ryb2tlLXdpZHRoOjEuMDsiIHdpZHRoPSI2IiB4PSIyMzQ0IiB5PSIxMjIzLjQ5MjIiLz48dGV4dCBmaWxsPSIjMDAwMDAwIiBmb250LWZhbWlseT0ic2Fucy1zZXJpZiIgZm9udC1zaXplPSIxNCIgbGVuZ3RoQWRqdXN0PSJzcGFjaW5nIiB0ZXh0TGVuZ3RoPSIxMDEiIHg9IjIzNTYiIHk9IjEyMzAuNzM0NCI+V2luZG93IF93aW5kb3c8L3RleHQ+PHJlY3QgZmlsbD0ibm9uZSIgaGVpZ2h0PSI2IiBzdHlsZT0ic3Ryb2tlOiNDODI5MzA7c3Ryb2tlLXdpZHRoOjEuMDsiIHdpZHRoPSI2IiB4PSIyMzQ0IiB5PSIxMjM4LjQ3NjYiLz48dGV4dCBmaWxsPSIjMDAwMDAwIiBmb250LWZhbWlseT0ic2Fucy1zZXJpZiIgZm9udC1zaXplPSIxNCIgbGVuZ3RoQWRqdXN0PSJzcGFjaW5nIiB0ZXh0TGVuZ3RoPSIxODQiIHg9IjIzNTYiIHk9IjEyNDUuNzE4OCI+SW1hZ2VNYW5hZ2VyIF9pbWFnZU1hbmFnZXI8L3RleHQ+PGVsbGlwc2UgY3g9IjIzNDciIGN5PSIxMjU2LjQ2MDkiIGZpbGw9Im5vbmUiIHJ4PSIzIiByeT0iMyIgc3R5bGU9InN0cm9rZTojMDM4MDQ4O3N0cm9rZS13aWR0aDoxLjA7Ii8+PHRleHQgZmlsbD0iIzAwMDAwMCIgZm9udC1mYW1pbHk9InNhbnMtc2VyaWYiIGZvbnQtc2l6ZT0iMTQiIGxlbmd0aEFkanVzdD0ic3BhY2luZyIgdGV4dExlbmd0aD0iMTg2IiB4PSIyMzU2IiB5PSIxMjYwLjcwMzEiPldpbmRvdyAmIzE3MTtwcm9wZXJ0eSYjMTg3OyA6IFdpbmRvdzwvdGV4dD48bGluZSBzdHlsZT0ic3Ryb2tlOiMxODE4MTg7c3Ryb2tlLXdpZHRoOjAuNTsiIHgxPSIyMzM3IiB4Mj0iMjk5NiIgeTE9IjEyNjYuNDUzMSIgeTI9IjEyNjYuNDUzMSIvPjxlbGxpcHNlIGN4PSIyMzQ3IiBjeT0iMTI3OS40NDUzIiBmaWxsPSIjODRCRTg0IiByeD0iMyIgcnk9IjMiIHN0eWxlPSJzdHJva2U6IzAzODA0ODtzdHJva2Utd2lkdGg6MS4wOyIvPjx0ZXh0IGZpbGw9IiMwMDAwMDAiIGZvbnQtZmFtaWx5PSJzYW5zLXNlcmlmIiBmb250LXNpemU9IjE0IiBsZW5ndGhBZGp1c3Q9InNwYWNpbmciIHRleHRMZW5ndGg9IjM1NyIgeD0iMjM1NiIgeT0iMTI4My42ODc1Ij5CYXR0bGVVSShXaW5kb3cgd2luZG93LCBJbWFnZU1hbmFnZXIgaW1hZ2VNYW5hZ2VyKTwvdGV4dD48ZWxsaXBzZSBjeD0iMjM0NyIgY3k9IjEyOTQuNDI5NyIgZmlsbD0iIzg0QkU4NCIgcng9IjMiIHJ5PSIzIiBzdHlsZT0ic3Ryb2tlOiMwMzgwNDg7c3Ryb2tlLXdpZHRoOjEuMDsiLz48dGV4dCBmaWxsPSIjMDAwMDAwIiBmb250LWZhbWlseT0ic2Fucy1zZXJpZiIgZm9udC1zaXplPSIxNCIgbGVuZ3RoQWRqdXN0PSJzcGFjaW5nIiB0ZXh0TGVuZ3RoPSIzNjciIHg9IjIzNTYiIHk9IjEyOTguNjcxOSI+RHJhd0JhdHRsZVN0YXRlKENoYXJhY3RlciBwbGF5ZXIsIENoYXJhY3RlciB2aWxsYWluKTwvdGV4dD48ZWxsaXBzZSBjeD0iMjM0NyIgY3k9IjEzMDkuNDE0MSIgZmlsbD0iIzg0QkU4NCIgcng9IjMiIHJ5PSIzIiBzdHlsZT0ic3Ryb2tlOiMwMzgwNDg7c3Ryb2tlLXdpZHRoOjEuMDsiLz48dGV4dCBmaWxsPSIjMDAwMDAwIiBmb250LWZhbWlseT0ic2Fucy1zZXJpZiIgZm9udC1zaXplPSIxNCIgbGVuZ3RoQWRqdXN0PSJzcGFjaW5nIiB0ZXh0TGVuZ3RoPSI2MzUiIHg9IjIzNTYiIHk9IjEzMTMuNjU2MyI+RHJhd0hlYWx0aEJhcihpbnQgeCwgaW50IHksIGludCBjdXJyZW50SGVhbHRoLCBpbnQgbWF4SGVhbHRoLCBDb2xvciBiYXJDb2xvciwgc3RyaW5nIG5hbWUpPC90ZXh0PjxlbGxpcHNlIGN4PSIyMzQ3IiBjeT0iMTMyNC4zOTg0IiBmaWxsPSIjODRCRTg0IiByeD0iMyIgcnk9IjMiIHN0eWxlPSJzdHJva2U6IzAzODA0ODtzdHJva2Utd2lkdGg6MS4wOyIvPjx0ZXh0IGZpbGw9IiMwMDAwMDAiIGZvbnQtZmFtaWx5PSJzYW5zLXNlcmlmIiBmb250LXNpemU9IjE0IiBsZW5ndGhBZGp1c3Q9InNwYWNpbmciIHRleHRMZW5ndGg9IjU0MyIgeD0iMjM1NiIgeT0iMTMyOC42NDA2Ij5EcmF3RW5lcmd5QmFyKGludCB4LCBpbnQgeSwgaW50IGN1cnJlbnRFbmVyZ3ksIGludCBtYXhFbmVyZ3ksIENvbG9yIGJhckNvbG9yKTwvdGV4dD48L2c+PCEtLWNsYXNzIEJhdHRsZVN5c3RlbS0tPjxnIGlkPSJlbGVtX0JhdHRsZVN5c3RlbSI+PHJlY3QgY29kZUxpbmU9IjIwMiIgZmlsbD0iI0YxRjFGMSIgaGVpZ2h0PSIzMDIuNzM0NCIgaWQ9IkJhdHRsZVN5c3RlbSIgcng9IjIuNSIgcnk9IjIuNSIgc3R5bGU9InN0cm9rZTojMTgxODE4O3N0cm9rZS13aWR0aDowLjU7IiB3aWR0aD0iNDcxIiB4PSIyNDAwIiB5PSI2NjEiLz48ZWxsaXBzZSBjeD0iMjU4OC43NSIgY3k9IjY3NyIgZmlsbD0iI0FERDFCMiIgcng9IjExIiByeT0iMTEiIHN0eWxlPSJzdHJva2U6IzE4MTgxODtzdHJva2Utd2lkdGg6MS4wOyIvPjxwYXRoIGQ9Ik0yNTg2LjM3NSw2ODEuMjUgTDI1ODYuMzc1LDY4MyBMMjU5MS4zMTI1LDY4MyBMMjU5MS4zMTI1LDY4MS4yNSBMMjU4Ni4zNzUsNjgxLjI1IFogTTI1ODcuMDYyNSw2ODEuOTM3NSBRMjU4Ny4wNjI1LDY4MS45Mzc1IDI1ODcuMDYyNSw2NzIuNzUgTDI1ODUuMzEyNSw2NzIuNzUgUTI1ODUuMzEyNSw2NzIuNzUgMjU4NS4zMTI1LDY4MS45Mzc1IEwyNTg3LjA2MjUsNjgxLjkzNzUgWiBNMjU5MC42MjUsNjgxLjkzNzUgTDI1OTIuMzc1LDY4MS45Mzc1IFEyNTkyLjM3NSw2ODEuOTM3NSAyNTkyLjM3NSw2NzkuMTI1IEwyNTkwLjYyNSw2NzkuMTI1IFEyNTkwLjYyNSw2NzkuMTI1IDI1OTAuNjI1LDY4MS45Mzc1IFogTTI1OTAuNjI1LDY3Mi43NSBRMjU5MC42MjUsNjcyLjc1IDI1OTAuNjI1LDY3NS41NjI1IEwyNTkyLjM3NSw2NzUuNTYyNSBRMjU5Mi4zNzUsNjc1LjU2MjUgMjU5Mi4zNzUsNjcyLjc1IEwyNTkwLjYyNSw2NzIuNzUgWiBNMjU4Ni4zNzUsNjczLjQzNzUgTDI1OTEuMzEyNSw2NzMuNDM3NSBMMjU5MS4zMTI1LDY3MS42ODc1IEwyNTg2LjM3NSw2NzEuNjg3NSBMMjU4Ni4zNzUsNjczLjQzNzUgWiAiIGZpbGw9IiMwMDAwMDAiLz48dGV4dCBmaWxsPSIjMDAwMDAwIiBmb250LWZhbWlseT0ic2Fucy1zZXJpZiIgZm9udC1zaXplPSIxNCIgbGVuZ3RoQWRqdXN0PSJzcGFjaW5nIiB0ZXh0TGVuZ3RoPSI4NSIgeD0iMjYwOS4yNSIgeT0iNjgyLjc0MjIiPkJhdHRsZVN5c3RlbTwvdGV4dD48bGluZSBzdHlsZT0ic3Ryb2tlOiMxODE4MTg7c3Ryb2tlLXdpZHRoOjAuNTsiIHgxPSIyNDAxIiB4Mj0iMjg3MCIgeTE9IjY5MyIgeTI9IjY5MyIvPjxyZWN0IGZpbGw9Im5vbmUiIGhlaWdodD0iNiIgc3R5bGU9InN0cm9rZTojQzgyOTMwO3N0cm9rZS13aWR0aDoxLjA7IiB3aWR0aD0iNiIgeD0iMjQwOCIgeT0iNzAyLjk5MjIiLz48dGV4dCBmaWxsPSIjMDAwMDAwIiBmb250LWZhbWlseT0ic2Fucy1zZXJpZiIgZm9udC1zaXplPSIxNCIgbGVuZ3RoQWRqdXN0PSJzcGFjaW5nIiB0ZXh0TGVuZ3RoPSIxMDAiIHg9IjI0MjAiIHk9IjcxMC4yMzQ0Ij5SYW5kb20gX3JhbmRvbTwvdGV4dD48cmVjdCBmaWxsPSJub25lIiBoZWlnaHQ9IjYiIHN0eWxlPSJzdHJva2U6I0M4MjkzMDtzdHJva2Utd2lkdGg6MS4wOyIgd2lkdGg9IjYiIHg9IjI0MDgiIHk9IjcxNy45NzY2Ii8+PHRleHQgZmlsbD0iIzAwMDAwMCIgZm9udC1mYW1pbHk9InNhbnMtc2VyaWYiIGZvbnQtc2l6ZT0iMTQiIGxlbmd0aEFkanVzdD0ic3BhY2luZyIgdGV4dExlbmd0aD0iMTE5IiB4PSIyNDIwIiB5PSI3MjUuMjE4OCI+Q2hhcmFjdGVyIF9wbGF5ZXI8L3RleHQ+PHJlY3QgZmlsbD0ibm9uZSIgaGVpZ2h0PSI2IiBzdHlsZT0ic3Ryb2tlOiNDODI5MzA7c3Ryb2tlLXdpZHRoOjEuMDsiIHdpZHRoPSI2IiB4PSIyNDA4IiB5PSI3MzIuOTYwOSIvPjx0ZXh0IGZpbGw9IiMwMDAwMDAiIGZvbnQtZmFtaWx5PSJzYW5zLXNlcmlmIiBmb250LXNpemU9IjE0IiBsZW5ndGhBZGp1c3Q9InNwYWNpbmciIHRleHRMZW5ndGg9IjEyNiIgeD0iMjQyMCIgeT0iNzQwLjIwMzEiPkNoYXJhY3RlciBfdmlsbGFpbjwvdGV4dD48cmVjdCBmaWxsPSJub25lIiBoZWlnaHQ9IjYiIHN0eWxlPSJzdHJva2U6I0M4MjkzMDtzdHJva2Utd2lkdGg6MS4wOyIgd2lkdGg9IjYiIHg9IjI0MDgiIHk9Ijc0Ny45NDUzIi8+PHRleHQgZmlsbD0iIzAwMDAwMCIgZm9udC1mYW1pbHk9InNhbnMtc2VyaWYiIGZvbnQtc2l6ZT0iMTQiIGxlbmd0aEFkanVzdD0ic3BhY2luZyIgdGV4dExlbmd0aD0iMTI2IiB4PSIyNDIwIiB5PSI3NTUuMTg3NSI+QmF0dGxlVUkgX2JhdHRsZVVJPC90ZXh0PjxyZWN0IGZpbGw9Im5vbmUiIGhlaWdodD0iNiIgc3R5bGU9InN0cm9rZTojQzgyOTMwO3N0cm9rZS13aWR0aDoxLjA7IiB3aWR0aD0iNiIgeD0iMjQwOCIgeT0iNzYyLjkyOTciLz48dGV4dCBmaWxsPSIjMDAwMDAwIiBmb250LWZhbWlseT0ic2Fucy1zZXJpZiIgZm9udC1zaXplPSIxNCIgbGVuZ3RoQWRqdXN0PSJzcGFjaW5nIiB0ZXh0TGVuZ3RoPSIyMTEiIHg9IjI0MjAiIHk9Ijc3MC4xNzE5Ij5NZXNzYWdlTWFuYWdlciBfbWVzc2FnZU1hbmFnZXI8L3RleHQ+PHJlY3QgZmlsbD0ibm9uZSIgaGVpZ2h0PSI2IiBzdHlsZT0ic3Ryb2tlOiNDODI5MzA7c3Ryb2tlLXdpZHRoOjEuMDsiIHdpZHRoPSI2IiB4PSIyNDA4IiB5PSI3NzcuOTE0MSIvPjx0ZXh0IGZpbGw9IiMwMDAwMDAiIGZvbnQtZmFtaWx5PSJzYW5zLXNlcmlmIiBmb250LXNpemU9IjE0IiBsZW5ndGhBZGp1c3Q9InNwYWNpbmciIHRleHRMZW5ndGg9IjE0MCIgeD0iMjQyMCIgeT0iNzg1LjE1NjMiPlZpbGxhaW5BSSBfdmlsbGFpbkFJPC90ZXh0PjxsaW5lIHN0eWxlPSJzdHJva2U6IzE4MTgxODtzdHJva2Utd2lkdGg6MC41OyIgeDE9IjI0MDEiIHgyPSIyODcwIiB5MT0iNzkwLjkwNjMiIHkyPSI3OTAuOTA2MyIvPjxlbGxpcHNlIGN4PSIyNDExIiBjeT0iODAzLjg5ODQiIGZpbGw9IiM4NEJFODQiIHJ4PSIzIiByeT0iMyIgc3R5bGU9InN0cm9rZTojMDM4MDQ4O3N0cm9rZS13aWR0aDoxLjA7Ii8+PHRleHQgZmlsbD0iIzAwMDAwMCIgZm9udC1mYW1pbHk9InNhbnMtc2VyaWYiIGZvbnQtc2l6ZT0iMTQiIGxlbmd0aEFkanVzdD0ic3BhY2luZyIgdGV4dExlbmd0aD0iMTk1IiB4PSIyNDIwIiB5PSI4MDguMTQwNiI+QmF0dGxlU3lzdGVtKFdpbmRvdyB3aW5kb3cpPC90ZXh0PjxlbGxpcHNlIGN4PSIyNDExIiBjeT0iODE4Ljg4MjgiIGZpbGw9IiM4NEJFODQiIHJ4PSIzIiByeT0iMyIgc3R5bGU9InN0cm9rZTojMDM4MDQ4O3N0cm9rZS13aWR0aDoxLjA7Ii8+PHRleHQgZmlsbD0iIzAwMDAwMCIgZm9udC1mYW1pbHk9InNhbnMtc2VyaWYiIGZvbnQtc2l6ZT0iMTQiIGxlbmd0aEFkanVzdD0ic3BhY2luZyIgdGV4dExlbmd0aD0iNDQ1IiB4PSIyNDIwIiB5PSI4MjMuMTI1Ij5CYXR0bGVTdGF0ZShDaGFyYWN0ZXIgcGxheWVyLCBzdHJpbmcgZGlmZmljdWx0eSk6IChzdHJpbmcsIGludCk8L3RleHQ+PHJlY3QgZmlsbD0iI0YyNEQ1QyIgaGVpZ2h0PSI2IiBzdHlsZT0ic3Ryb2tlOiNDODI5MzA7c3Ryb2tlLXdpZHRoOjEuMDsiIHdpZHRoPSI2IiB4PSIyNDA4IiB5PSI4MzAuODY3MiIvPjx0ZXh0IGZpbGw9IiMwMDAwMDAiIGZvbnQtZmFtaWx5PSJzYW5zLXNlcmlmIiBmb250LXNpemU9IjE0IiBsZW5ndGhBZGp1c3Q9InNwYWNpbmciIHRleHRMZW5ndGg9IjM2NiIgeD0iMjQyMCIgeT0iODM4LjEwOTQiPkdldFZpbGxhaW5CeURpZmZpY3VsdHkoc3RyaW5nIGRpZmZpY3VsdHkpOiBDaGFyYWN0ZXI8L3RleHQ+PHJlY3QgZmlsbD0iI0YyNEQ1QyIgaGVpZ2h0PSI2IiBzdHlsZT0ic3Ryb2tlOiNDODI5MzA7c3Ryb2tlLXdpZHRoOjEuMDsiIHdpZHRoPSI2IiB4PSIyNDA4IiB5PSI4NDUuODUxNiIvPjx0ZXh0IGZpbGw9IiMwMDAwMDAiIGZvbnQtZmFtaWx5PSJzYW5zLXNlcmlmIiBmb250LXNpemU9IjE0IiBsZW5ndGhBZGp1c3Q9InNwYWNpbmciIHRleHRMZW5ndGg9IjkzIiB4PSIyNDIwIiB5PSI4NTMuMDkzOCI+RXhlY3V0ZVR1cm4oKTwvdGV4dD48cmVjdCBmaWxsPSIjRjI0RDVDIiBoZWlnaHQ9IjYiIHN0eWxlPSJzdHJva2U6I0M4MjkzMDtzdHJva2Utd2lkdGg6MS4wOyIgd2lkdGg9IjYiIHg9IjI0MDgiIHk9Ijg2MC44MzU5Ii8+PHRleHQgZmlsbD0iIzAwMDAwMCIgZm9udC1mYW1pbHk9InNhbnMtc2VyaWYiIGZvbnQtc2l6ZT0iMTQiIGxlbmd0aEFkanVzdD0ic3BhY2luZyIgdGV4dExlbmd0aD0iOTMiIHg9IjI0MjAiIHk9Ijg2OC4wNzgxIj5WaWxsYWluVHVybigpPC90ZXh0PjxyZWN0IGZpbGw9IiNGMjRENUMiIGhlaWdodD0iNiIgc3R5bGU9InN0cm9rZTojQzgyOTMwO3N0cm9rZS13aWR0aDoxLjA7IiB3aWR0aD0iNiIgeD0iMjQwOCIgeT0iODc1LjgyMDMiLz48dGV4dCBmaWxsPSIjMDAwMDAwIiBmb250LWZhbWlseT0ic2Fucy1zZXJpZiIgZm9udC1zaXplPSIxNCIgbGVuZ3RoQWRqdXN0PSJzcGFjaW5nIiB0ZXh0TGVuZ3RoPSIxNDIiIHg9IjI0MjAiIHk9Ijg4My4wNjI1Ij5IYW5kbGVQbGF5ZXJBdHRhY2soKTwvdGV4dD48cmVjdCBmaWxsPSIjRjI0RDVDIiBoZWlnaHQ9IjYiIHN0eWxlPSJzdHJva2U6I0M4MjkzMDtzdHJva2Utd2lkdGg6MS4wOyIgd2lkdGg9IjYiIHg9IjI0MDgiIHk9Ijg5MC44MDQ3Ii8+PHRleHQgZmlsbD0iIzAwMDAwMCIgZm9udC1mYW1pbHk9InNhbnMtc2VyaWYiIGZvbnQtc2l6ZT0iMTQiIGxlbmd0aEFkanVzdD0ic3BhY2luZyIgdGV4dExlbmd0aD0iMTM1IiB4PSIyNDIwIiB5PSI4OTguMDQ2OSI+SGFuZGxlUGxheWVyQmxvY2soKTwvdGV4dD48cmVjdCBmaWxsPSIjRjI0RDVDIiBoZWlnaHQ9IjYiIHN0eWxlPSJzdHJva2U6I0M4MjkzMDtzdHJva2Utd2lkdGg6MS4wOyIgd2lkdGg9IjYiIHg9IjI0MDgiIHk9IjkwNS43ODkxIi8+PHRleHQgZmlsbD0iIzAwMDAwMCIgZm9udC1mYW1pbHk9InNhbnMtc2VyaWYiIGZvbnQtc2l6ZT0iMTQiIGxlbmd0aEFkanVzdD0ic3BhY2luZyIgdGV4dExlbmd0aD0iMTQ5IiB4PSIyNDIwIiB5PSI5MTMuMDMxMyI+SGFuZGxlVmlsbGFpbkF0dGFjaygpPC90ZXh0PjxyZWN0IGZpbGw9IiNGMjRENUMiIGhlaWdodD0iNiIgc3R5bGU9InN0cm9rZTojQzgyOTMwO3N0cm9rZS13aWR0aDoxLjA7IiB3aWR0aD0iNiIgeD0iMjQwOCIgeT0iOTIwLjc3MzQiLz48dGV4dCBmaWxsPSIjMDAwMDAwIiBmb250LWZhbWlseT0ic2Fucy1zZXJpZiIgZm9udC1zaXplPSIxNCIgbGVuZ3RoQWRqdXN0PSJzcGFjaW5nIiB0ZXh0TGVuZ3RoPSIxNDIiIHg9IjI0MjAiIHk9IjkyOC4wMTU2Ij5IYW5kbGVWaWxsYWluQmxvY2soKTwvdGV4dD48cmVjdCBmaWxsPSIjRjI0RDVDIiBoZWlnaHQ9IjYiIHN0eWxlPSJzdHJva2U6I0M4MjkzMDtzdHJva2Utd2lkdGg6MS4wOyIgd2lkdGg9IjYiIHg9IjI0MDgiIHk9IjkzNS43NTc4Ii8+PHRleHQgZmlsbD0iIzAwMDAwMCIgZm9udC1mYW1pbHk9InNhbnMtc2VyaWYiIGZvbnQtc2l6ZT0iMTQiIGxlbmd0aEFkanVzdD0ic3BhY2luZyIgdGV4dExlbmd0aD0iMTg0IiB4PSIyNDIwIiB5PSI5NDMiPlJlZnJlc2hCYXR0bGVVSVdpdGhEZWxheSgpPC90ZXh0PjxyZWN0IGZpbGw9IiNGMjRENUMiIGhlaWdodD0iNiIgc3R5bGU9InN0cm9rZTojQzgyOTMwO3N0cm9rZS13aWR0aDoxLjA7IiB3aWR0aD0iNiIgeD0iMjQwOCIgeT0iOTUwLjc0MjIiLz48dGV4dCBmaWxsPSIjMDAwMDAwIiBmb250LWZhbWlseT0ic2Fucy1zZXJpZiIgZm9udC1zaXplPSIxNCIgbGVuZ3RoQWRqdXN0PSJzcGFjaW5nIiB0ZXh0TGVuZ3RoPSIyMDYiIHg9IjI0MjAiIHk9Ijk1Ny45ODQ0Ij5HZXRSZXdhcmRCeURpZmZpY3VsdHkoKSA6IGludDwvdGV4dD48L2c+PCEtLWNsYXNzIEdhbWVNZW51LS0+PGcgaWQ9ImVsZW1fR2FtZU1lbnUiPjxyZWN0IGNvZGVMaW5lPSIyMjIiIGZpbGw9IiNGMUYxRjEiIGhlaWdodD0iMjU3Ljc4MTMiIGlkPSJHYW1lTWVudSIgcng9IjIuNSIgcnk9IjIuNSIgc3R5bGU9InN0cm9rZTojMTgxODE4O3N0cm9rZS13aWR0aDowLjU7IiB3aWR0aD0iMjM3IiB4PSIyMDQ0IiB5PSIxMzAiLz48ZWxsaXBzZSBjeD0iMjEyOS43NSIgY3k9IjE0NiIgZmlsbD0iI0FERDFCMiIgcng9IjExIiByeT0iMTEiIHN0eWxlPSJzdHJva2U6IzE4MTgxODtzdHJva2Utd2lkdGg6MS4wOyIvPjxwYXRoIGQ9Ik0yMTI3LjM3NSwxNTAuMjUgTDIxMjcuMzc1LDE1MiBMMjEzMi4zMTI1LDE1MiBMMjEzMi4zMTI1LDE1MC4yNSBMMjEyNy4zNzUsMTUwLjI1IFogTTIxMjguMDYyNSwxNTAuOTM3NSBRMjEyOC4wNjI1LDE1MC45Mzc1IDIxMjguMDYyNSwxNDEuNzUgTDIxMjYuMzEyNSwxNDEuNzUgUTIxMjYuMzEyNSwxNDEuNzUgMjEyNi4zMTI1LDE1MC45Mzc1IEwyMTI4LjA2MjUsMTUwLjkzNzUgWiBNMjEzMS42MjUsMTUwLjkzNzUgTDIxMzMuMzc1LDE1MC45Mzc1IFEyMTMzLjM3NSwxNTAuOTM3NSAyMTMzLjM3NSwxNDguMTI1IEwyMTMxLjYyNSwxNDguMTI1IFEyMTMxLjYyNSwxNDguMTI1IDIxMzEuNjI1LDE1MC45Mzc1IFogTTIxMzEuNjI1LDE0MS43NSBRMjEzMS42MjUsMTQxLjc1IDIxMzEuNjI1LDE0NC41NjI1IEwyMTMzLjM3NSwxNDQuNTYyNSBRMjEzMy4zNzUsMTQ0LjU2MjUgMjEzMy4zNzUsMTQxLjc1IEwyMTMxLjYyNSwxNDEuNzUgWiBNMjEyNy4zNzUsMTQyLjQzNzUgTDIxMzIuMzEyNSwxNDIuNDM3NSBMMjEzMi4zMTI1LDE0MC42ODc1IEwyMTI3LjM3NSwxNDAuNjg3NSBMMjEyNy4zNzUsMTQyLjQzNzUgWiAiIGZpbGw9IiMwMDAwMDAiLz48dGV4dCBmaWxsPSIjMDAwMDAwIiBmb250LWZhbWlseT0ic2Fucy1zZXJpZiIgZm9udC1zaXplPSIxNCIgbGVuZ3RoQWRqdXN0PSJzcGFjaW5nIiB0ZXh0TGVuZ3RoPSI1NyIgeD0iMjE1MC4yNSIgeT0iMTUxLjc0MjIiPkdhbWVNZW51PC90ZXh0PjxsaW5lIHN0eWxlPSJzdHJva2U6IzE4MTgxODtzdHJva2Utd2lkdGg6MC41OyIgeDE9IjIwNDUiIHgyPSIyMjgwIiB5MT0iMTYyIiB5Mj0iMTYyIi8+PHJlY3QgZmlsbD0ibm9uZSIgaGVpZ2h0PSI2IiBzdHlsZT0ic3Ryb2tlOiNDODI5MzA7c3Ryb2tlLXdpZHRoOjEuMDsiIHdpZHRoPSI2IiB4PSIyMDUyIiB5PSIxNzEuOTkyMiIvPjx0ZXh0IGZpbGw9IiMwMDAwMDAiIGZvbnQtZmFtaWx5PSJzYW5zLXNlcmlmIiBmb250LXNpemU9IjE0IiBsZW5ndGhBZGp1c3Q9InNwYWNpbmciIHRleHRMZW5ndGg9IjEyOSIgeD0iMjA2NCIgeT0iMTc5LjIzNDQiPldpbmRvdyBfbWVudVdpbmRvdzwvdGV4dD48cmVjdCBmaWxsPSJub25lIiBoZWlnaHQ9IjYiIHN0eWxlPSJzdHJva2U6I0M4MjkzMDtzdHJva2Utd2lkdGg6MS4wOyIgd2lkdGg9IjYiIHg9IjIwNTIiIHk9IjE4Ni45NzY2Ii8+PHRleHQgZmlsbD0iIzAwMDAwMCIgZm9udC1mYW1pbHk9InNhbnMtc2VyaWYiIGZvbnQtc2l6ZT0iMTQiIGxlbmd0aEFkanVzdD0ic3BhY2luZyIgdGV4dExlbmd0aD0iMTgyIiB4PSIyMDY0IiB5PSIxOTQuMjE4OCI+aW50IF9jdXJyZW50Q2hhcmFjdGVySW5kZXg8L3RleHQ+PHJlY3QgZmlsbD0ibm9uZSIgaGVpZ2h0PSI2IiBzdHlsZT0ic3Ryb2tlOiNDODI5MzA7c3Ryb2tlLXdpZHRoOjEuMDsiIHdpZHRoPSI2IiB4PSIyMDUyIiB5PSIyMDEuOTYwOSIvPjx0ZXh0IGZpbGw9IiMwMDAwMDAiIGZvbnQtZmFtaWx5PSJzYW5zLXNlcmlmIiBmb250LXNpemU9IjE0IiBsZW5ndGhBZGp1c3Q9InNwYWNpbmciIHRleHRMZW5ndGg9IjE4NCIgeD0iMjA2NCIgeT0iMjA5LjIwMzEiPkltYWdlTWFuYWdlciBfaW1hZ2VNYW5hZ2VyPC90ZXh0PjxyZWN0IGZpbGw9Im5vbmUiIGhlaWdodD0iNiIgc3R5bGU9InN0cm9rZTojQzgyOTMwO3N0cm9rZS13aWR0aDoxLjA7IiB3aWR0aD0iNiIgeD0iMjA1MiIgeT0iMjE2Ljk0NTMiLz48dGV4dCBmaWxsPSIjMDAwMDAwIiBmb250LWZhbWlseT0ic2Fucy1zZXJpZiIgZm9udC1zaXplPSIxNCIgbGVuZ3RoQWRqdXN0PSJzcGFjaW5nIiB0ZXh0TGVuZ3RoPSI5OCIgeD0iMjA2NCIgeT0iMjI0LjE4NzUiPlBsYXllciBfcGxheWVyPC90ZXh0PjxyZWN0IGZpbGw9Im5vbmUiIGhlaWdodD0iNiIgc3R5bGU9InN0cm9rZTojQzgyOTMwO3N0cm9rZS13aWR0aDoxLjA7IiB3aWR0aD0iNiIgeD0iMjA1MiIgeT0iMjMxLjkyOTciLz48dGV4dCBmaWxsPSIjMDAwMDAwIiBmb250LWZhbWlseT0ic2Fucy1zZXJpZiIgZm9udC1zaXplPSIxNCIgbGVuZ3RoQWRqdXN0PSJzcGFjaW5nIiB0ZXh0TGVuZ3RoPSIxODIiIHg9IjIwNjQiIHk9IjIzOS4xNzE5Ij5JbnB1dEhhbmRsZXIgX2lucHV0SGFuZGxlcjwvdGV4dD48cmVjdCBmaWxsPSJub25lIiBoZWlnaHQ9IjYiIHN0eWxlPSJzdHJva2U6I0M4MjkzMDtzdHJva2Utd2lkdGg6MS4wOyIgd2lkdGg9IjYiIHg9IjIwNTIiIHk9IjI0Ni45MTQxIi8+PHRleHQgZmlsbD0iIzAwMDAwMCIgZm9udC1mYW1pbHk9InNhbnMtc2VyaWYiIGZvbnQtc2l6ZT0iMTQiIGxlbmd0aEFkanVzdD0ic3BhY2luZyIgdGV4dExlbmd0aD0iMTk2IiB4PSIyMDY0IiB5PSIyNTQuMTU2MyI+QmF0dGxlTWFuYWdlciBfYmF0dGxlTWFuYWdlcjwvdGV4dD48cmVjdCBmaWxsPSJub25lIiBoZWlnaHQ9IjYiIHN0eWxlPSJzdHJva2U6I0M4MjkzMDtzdHJva2Utd2lkdGg6MS4wOyIgd2lkdGg9IjYiIHg9IjIwNTIiIHk9IjI2MS44OTg0Ii8+PHRleHQgZmlsbD0iIzAwMDAwMCIgZm9udC1mYW1pbHk9InNhbnMtc2VyaWYiIGZvbnQtc2l6ZT0iMTQiIGxlbmd0aEFkanVzdD0ic3BhY2luZyIgdGV4dExlbmd0aD0iMjExIiB4PSIyMDY0IiB5PSIyNjkuMTQwNiI+TWVzc2FnZU1hbmFnZXIgX21lc3NhZ2VNYW5hZ2VyPC90ZXh0PjxsaW5lIHN0eWxlPSJzdHJva2U6IzE4MTgxODtzdHJva2Utd2lkdGg6MC41OyIgeDE9IjIwNDUiIHgyPSIyMjgwIiB5MT0iMjc0Ljg5MDYiIHkyPSIyNzQuODkwNiIvPjxlbGxpcHNlIGN4PSIyMDU1IiBjeT0iMjg3Ljg4MjgiIGZpbGw9IiM4NEJFODQiIHJ4PSIzIiByeT0iMyIgc3R5bGU9InN0cm9rZTojMDM4MDQ4O3N0cm9rZS13aWR0aDoxLjA7Ii8+PHRleHQgZmlsbD0iIzAwMDAwMCIgZm9udC1mYW1pbHk9InNhbnMtc2VyaWYiIGZvbnQtc2l6ZT0iMTQiIGxlbmd0aEFkanVzdD0ic3BhY2luZyIgdGV4dExlbmd0aD0iMTY0IiB4PSIyMDY0IiB5PSIyOTIuMTI1Ij5HYW1lTWVudShQbGF5ZXIgcGxheWVyKTwvdGV4dD48ZWxsaXBzZSBjeD0iMjA1NSIgY3k9IjMwMi44NjcyIiBmaWxsPSIjODRCRTg0IiByeD0iMyIgcnk9IjMiIHN0eWxlPSJzdHJva2U6IzAzODA0ODtzdHJva2Utd2lkdGg6MS4wOyIvPjx0ZXh0IGZpbGw9IiMwMDAwMDAiIGZvbnQtZmFtaWx5PSJzYW5zLXNlcmlmIiBmb250LXNpemU9IjE0IiBsZW5ndGhBZGp1c3Q9InNwYWNpbmciIHRleHRMZW5ndGg9IjM3IiB4PSIyMDY0IiB5PSIzMDcuMTA5NCI+UnVuKCk8L3RleHQ+PGVsbGlwc2UgY3g9IjIwNTUiIGN5PSIzMTcuODUxNiIgZmlsbD0iIzg0QkU4NCIgcng9IjMiIHJ5PSIzIiBzdHlsZT0ic3Ryb2tlOiMwMzgwNDg7c3Ryb2tlLXdpZHRoOjEuMDsiLz48dGV4dCBmaWxsPSIjMDAwMDAwIiBmb250LWZhbWlseT0ic2Fucy1zZXJpZiIgZm9udC1zaXplPSIxNCIgbGVuZ3RoQWRqdXN0PSJzcGFjaW5nIiB0ZXh0TGVuZ3RoPSIxMzYiIHg9IjIwNjQiIHk9IjMyMi4wOTM4Ij5EcmF3Q2hhcmFjdGVySW5mbygpPC90ZXh0PjxlbGxpcHNlIGN4PSIyMDU1IiBjeT0iMzMyLjgzNTkiIGZpbGw9IiM4NEJFODQiIHJ4PSIzIiByeT0iMyIgc3R5bGU9InN0cm9rZTojMDM4MDQ4O3N0cm9rZS13aWR0aDoxLjA7Ii8+PHRleHQgZmlsbD0iIzAwMDAwMCIgZm9udC1mYW1pbHk9InNhbnMtc2VyaWYiIGZvbnQtc2l6ZT0iMTQiIGxlbmd0aEFkanVzdD0ic3BhY2luZyIgdGV4dExlbmd0aD0iMTAwIiB4PSIyMDY0IiB5PSIzMzcuMDc4MSI+TmF2aWdhdGVMZWZ0KCk8L3RleHQ+PGVsbGlwc2UgY3g9IjIwNTUiIGN5PSIzNDcuODIwMyIgZmlsbD0iIzg0QkU4NCIgcng9IjMiIHJ5PSIzIiBzdHlsZT0ic3Ryb2tlOiMwMzgwNDg7c3Ryb2tlLXdpZHRoOjEuMDsiLz48dGV4dCBmaWxsPSIjMDAwMDAwIiBmb250LWZhbWlseT0ic2Fucy1zZXJpZiIgZm9udC1zaXplPSIxNCIgbGVuZ3RoQWRqdXN0PSJzcGFjaW5nIiB0ZXh0TGVuZ3RoPSIxMDciIHg9IjIwNjQiIHk9IjM1Mi4wNjI1Ij5OYXZpZ2F0ZVJpZ2h0KCk8L3RleHQ+PGVsbGlwc2UgY3g9IjIwNTUiIGN5PSIzNjIuODA0NyIgZmlsbD0iIzg0QkU4NCIgcng9IjMiIHJ5PSIzIiBzdHlsZT0ic3Ryb2tlOiMwMzgwNDg7c3Ryb2tlLXdpZHRoOjEuMDsiLz48dGV4dCBmaWxsPSIjMDAwMDAwIiBmb250LWZhbWlseT0ic2Fucy1zZXJpZiIgZm9udC1zaXplPSIxNCIgbGVuZ3RoQWRqdXN0PSJzcGFjaW5nIiB0ZXh0TGVuZ3RoPSIxMjgiIHg9IjIwNjQiIHk9IjM2Ny4wNDY5Ij5SZWNydWl0Q2hhcmFjdGVyKCk8L3RleHQ+PGVsbGlwc2UgY3g9IjIwNTUiIGN5PSIzNzcuNzg5MSIgZmlsbD0iIzg0QkU4NCIgcng9IjMiIHJ5PSIzIiBzdHlsZT0ic3Ryb2tlOiMwMzgwNDg7c3Ryb2tlLXdpZHRoOjEuMDsiLz48dGV4dCBmaWxsPSIjMDAwMDAwIiBmb250LWZhbWlseT0ic2Fucy1zZXJpZiIgZm9udC1zaXplPSIxNCIgbGVuZ3RoQWRqdXN0PSJzcGFjaW5nIiB0ZXh0TGVuZ3RoPSI1OCIgeD0iMjA2NCIgeT0iMzgyLjAzMTMiPkJhdHRsZSgpPC90ZXh0PjwvZz48IS0tY2xhc3MgSW1hZ2VNYW5hZ2VyLS0+PGcgaWQ9ImVsZW1fSW1hZ2VNYW5hZ2VyIj48cmVjdCBjb2RlTGluZT0iMjM5IiBmaWxsPSIjRjFGMUYxIiBoZWlnaHQ9IjkyLjk1MzEiIGlkPSJJbWFnZU1hbmFnZXIiIHJ4PSIyLjUiIHJ5PSIyLjUiIHN0eWxlPSJzdHJva2U6IzE4MTgxODtzdHJva2Utd2lkdGg6MC41OyIgd2lkdGg9IjQ0OCIgeD0iMTkzOC41IiB5PSI0NzgiLz48ZWxsaXBzZSBjeD0iMjExNS43NSIgY3k9IjQ5NCIgZmlsbD0iI0FERDFCMiIgcng9IjExIiByeT0iMTEiIHN0eWxlPSJzdHJva2U6IzE4MTgxODtzdHJva2Utd2lkdGg6MS4wOyIvPjxwYXRoIGQ9Ik0yMTEzLjM3NSw0OTguMjUgTDIxMTMuMzc1LDUwMCBMMjExOC4zMTI1LDUwMCBMMjExOC4zMTI1LDQ5OC4yNSBMMjExMy4zNzUsNDk4LjI1IFogTTIxMTQuMDYyNSw0OTguOTM3NSBRMjExNC4wNjI1LDQ5OC45Mzc1IDIxMTQuMDYyNSw0ODkuNzUgTDIxMTIuMzEyNSw0ODkuNzUgUTIxMTIuMzEyNSw0ODkuNzUgMjExMi4zMTI1LDQ5OC45Mzc1IEwyMTE0LjA2MjUsNDk4LjkzNzUgWiBNMjExNy42MjUsNDk4LjkzNzUgTDIxMTkuMzc1LDQ5OC45Mzc1IFEyMTE5LjM3NSw0OTguOTM3NSAyMTE5LjM3NSw0OTYuMTI1IEwyMTE3LjYyNSw0OTYuMTI1IFEyMTE3LjYyNSw0OTYuMTI1IDIxMTcuNjI1LDQ5OC45Mzc1IFogTTIxMTcuNjI1LDQ4OS43NSBRMjExNy42MjUsNDg5Ljc1IDIxMTcuNjI1LDQ5Mi41NjI1IEwyMTE5LjM3NSw0OTIuNTYyNSBRMjExOS4zNzUsNDkyLjU2MjUgMjExOS4zNzUsNDg5Ljc1IEwyMTE3LjYyNSw0ODkuNzUgWiBNMjExMy4zNzUsNDkwLjQzNzUgTDIxMTguMzEyNSw0OTAuNDM3NSBMMjExOC4zMTI1LDQ4OC42ODc1IEwyMTEzLjM3NSw0ODguNjg3NSBMMjExMy4zNzUsNDkwLjQzNzUgWiAiIGZpbGw9IiMwMDAwMDAiLz48dGV4dCBmaWxsPSIjMDAwMDAwIiBmb250LWZhbWlseT0ic2Fucy1zZXJpZiIgZm9udC1zaXplPSIxNCIgbGVuZ3RoQWRqdXN0PSJzcGFjaW5nIiB0ZXh0TGVuZ3RoPSI4NSIgeD0iMjEzNi4yNSIgeT0iNDk5Ljc0MjIiPkltYWdlTWFuYWdlcjwvdGV4dD48bGluZSBzdHlsZT0ic3Ryb2tlOiMxODE4MTg7c3Ryb2tlLXdpZHRoOjAuNTsiIHgxPSIxOTM5LjUiIHgyPSIyMzg1LjUiIHkxPSI1MTAiIHkyPSI1MTAiLz48cmVjdCBmaWxsPSJub25lIiBoZWlnaHQ9IjYiIHN0eWxlPSJzdHJva2U6I0M4MjkzMDtzdHJva2Utd2lkdGg6MS4wOyIgd2lkdGg9IjYiIHg9IjE5NDYuNSIgeT0iNTE5Ljk5MjIiLz48dGV4dCBmaWxsPSIjMDAwMDAwIiBmb250LWZhbWlseT0ic2Fucy1zZXJpZiIgZm9udC1zaXplPSIxNCIgbGVuZ3RoQWRqdXN0PSJzcGFjaW5nIiB0ZXh0TGVuZ3RoPSI0MjIiIHg9IjE5NTguNSIgeT0iNTI3LjIzNDQiPkRpY3Rpb25hcnkmbHQ7c3RyaW5nLCBEaWN0aW9uYXJ5Jmx0O2ludCwgQml0bWFwJmd0OyZndDsgX2NoYXJhY3RlckltYWdlczwvdGV4dD48bGluZSBzdHlsZT0ic3Ryb2tlOiMxODE4MTg7c3Ryb2tlLXdpZHRoOjAuNTsiIHgxPSIxOTM5LjUiIHgyPSIyMzg1LjUiIHkxPSI1MzIuOTg0NCIgeTI9IjUzMi45ODQ0Ii8+PGVsbGlwc2UgY3g9IjE5NDkuNSIgY3k9IjU0NS45NzY2IiBmaWxsPSIjODRCRTg0IiByeD0iMyIgcnk9IjMiIHN0eWxlPSJzdHJva2U6IzAzODA0ODtzdHJva2Utd2lkdGg6MS4wOyIvPjx0ZXh0IGZpbGw9IiMwMDAwMDAiIGZvbnQtZmFtaWx5PSJzYW5zLXNlcmlmIiBmb250LXNpemU9IjE0IiBsZW5ndGhBZGp1c3Q9InNwYWNpbmciIHRleHRMZW5ndGg9IjEwMSIgeD0iMTk1OC41IiB5PSI1NTAuMjE4OCI+SW1hZ2VNYW5hZ2VyKCk8L3RleHQ+PGVsbGlwc2UgY3g9IjE5NDkuNSIgY3k9IjU2MC45NjA5IiBmaWxsPSIjODRCRTg0IiByeD0iMyIgcnk9IjMiIHN0eWxlPSJzdHJva2U6IzAzODA0ODtzdHJva2Utd2lkdGg6MS4wOyIvPjx0ZXh0IGZpbGw9IiMwMDAwMDAiIGZvbnQtZmFtaWx5PSJzYW5zLXNlcmlmIiBmb250LXNpemU9IjE0IiBsZW5ndGhBZGp1c3Q9InNwYWNpbmciIHRleHRMZW5ndGg9IjMyNiIgeD0iMTk1OC41IiB5PSI1NjUuMjAzMSI+R2V0Q2hhcmFjdGVySW1hZ2UoQ2hhcmFjdGVyIGNoYXJhY3Rlcik6IEJpdG1hcDwvdGV4dD48L2c+PCEtLWNsYXNzIE1lc3NhZ2VNYW5hZ2VyLS0+PGcgaWQ9ImVsZW1fTWVzc2FnZU1hbmFnZXIiPjxyZWN0IGNvZGVMaW5lPSIyNDUiIGZpbGw9IiNGMUYxRjEiIGhlaWdodD0iMTA3LjkzNzUiIGlkPSJNZXNzYWdlTWFuYWdlciIgcng9IjIuNSIgcnk9IjIuNSIgc3R5bGU9InN0cm9rZTojMTgxODE4O3N0cm9rZS13aWR0aDowLjU7IiB3aWR0aD0iMzYxIiB4PSIzMDMyIiB5PSIxMjA0Ii8+PGVsbGlwc2UgY3g9IjMxNTkuMjUiIGN5PSIxMjIwIiBmaWxsPSIjQUREMUIyIiByeD0iMTEiIHJ5PSIxMSIgc3R5bGU9InN0cm9rZTojMTgxODE4O3N0cm9rZS13aWR0aDoxLjA7Ii8+PHBhdGggZD0iTTMxNTYuODc1LDEyMjQuMjUgTDMxNTYuODc1LDEyMjYgTDMxNjEuODEyNSwxMjI2IEwzMTYxLjgxMjUsMTIyNC4yNSBMMzE1Ni44NzUsMTIyNC4yNSBaIE0zMTU3LjU2MjUsMTIyNC45Mzc1IFEzMTU3LjU2MjUsMTIyNC45Mzc1IDMxNTcuNTYyNSwxMjE1Ljc1IEwzMTU1LjgxMjUsMTIxNS43NSBRMzE1NS44MTI1LDEyMTUuNzUgMzE1NS44MTI1LDEyMjQuOTM3NSBMMzE1Ny41NjI1LDEyMjQuOTM3NSBaIE0zMTYxLjEyNSwxMjI0LjkzNzUgTDMxNjIuODc1LDEyMjQuOTM3NSBRMzE2Mi44NzUsMTIyNC45Mzc1IDMxNjIuODc1LDEyMjIuMTI1IEwzMTYxLjEyNSwxMjIyLjEyNSBRMzE2MS4xMjUsMTIyMi4xMjUgMzE2MS4xMjUsMTIyNC45Mzc1IFogTTMxNjEuMTI1LDEyMTUuNzUgUTMxNjEuMTI1LDEyMTUuNzUgMzE2MS4xMjUsMTIxOC41NjI1IEwzMTYyLjg3NSwxMjE4LjU2MjUgUTMxNjIuODc1LDEyMTguNTYyNSAzMTYyLjg3NSwxMjE1Ljc1IEwzMTYxLjEyNSwxMjE1Ljc1IFogTTMxNTYuODc1LDEyMTYuNDM3NSBMMzE2MS44MTI1LDEyMTYuNDM3NSBMMzE2MS44MTI1LDEyMTQuNjg3NSBMMzE1Ni44NzUsMTIxNC42ODc1IEwzMTU2Ljg3NSwxMjE2LjQzNzUgWiAiIGZpbGw9IiMwMDAwMDAiLz48dGV4dCBmaWxsPSIjMDAwMDAwIiBmb250LWZhbWlseT0ic2Fucy1zZXJpZiIgZm9udC1zaXplPSIxNCIgbGVuZ3RoQWRqdXN0PSJzcGFjaW5nIiB0ZXh0TGVuZ3RoPSI5OCIgeD0iMzE3OS43NSIgeT0iMTIyNS43NDIyIj5NZXNzYWdlTWFuYWdlcjwvdGV4dD48bGluZSBzdHlsZT0ic3Ryb2tlOiMxODE4MTg7c3Ryb2tlLXdpZHRoOjAuNTsiIHgxPSIzMDMzIiB4Mj0iMzM5MiIgeTE9IjEyMzYiIHkyPSIxMjM2Ii8+PHJlY3QgZmlsbD0ibm9uZSIgaGVpZ2h0PSI2IiBzdHlsZT0ic3Ryb2tlOiNDODI5MzA7c3Ryb2tlLXdpZHRoOjEuMDsiIHdpZHRoPSI2IiB4PSIzMDQwIiB5PSIxMjQ1Ljk5MjIiLz48dGV4dCBmaWxsPSIjMDAwMDAwIiBmb250LWZhbWlseT0ic2Fucy1zZXJpZiIgZm9udC1zaXplPSIxNCIgbGVuZ3RoQWRqdXN0PSJzcGFjaW5nIiB0ZXh0TGVuZ3RoPSI3MCIgeD0iMzA1MiIgeT0iMTI1My4yMzQ0Ij5Gb250IF9mb250PC90ZXh0PjxsaW5lIHN0eWxlPSJzdHJva2U6IzE4MTgxODtzdHJva2Utd2lkdGg6MC41OyIgeDE9IjMwMzMiIHgyPSIzMzkyIiB5MT0iMTI1OC45ODQ0IiB5Mj0iMTI1OC45ODQ0Ii8+PHJlY3QgZmlsbD0iI0YyNEQ1QyIgaGVpZ2h0PSI2IiBzdHlsZT0ic3Ryb2tlOiNDODI5MzA7c3Ryb2tlLXdpZHRoOjEuMDsiIHdpZHRoPSI2IiB4PSIzMDQwIiB5PSIxMjY4Ljk3NjYiLz48dGV4dCBmaWxsPSIjMDAwMDAwIiBmb250LWZhbWlseT0ic2Fucy1zZXJpZiIgZm9udC1zaXplPSIxNCIgbGVuZ3RoQWRqdXN0PSJzcGFjaW5nIiB0ZXh0TGVuZ3RoPSIzMzUiIHg9IjMwNTIiIHk9IjEyNzYuMjE4OCI+TGlzdCZsdDsoc3RyaW5nIG1lc3NhZ2UsIERhdGVUaW1lIHRpbWUpJmd0OyBfbWVzc2FnZXM8L3RleHQ+PGVsbGlwc2UgY3g9IjMwNDMiIGN5PSIxMjg2Ljk2MDkiIGZpbGw9IiM4NEJFODQiIHJ4PSIzIiByeT0iMyIgc3R5bGU9InN0cm9rZTojMDM4MDQ4O3N0cm9rZS13aWR0aDoxLjA7Ii8+PHRleHQgZmlsbD0iIzAwMDAwMCIgZm9udC1mYW1pbHk9InNhbnMtc2VyaWYiIGZvbnQtc2l6ZT0iMTQiIGxlbmd0aEFkanVzdD0ic3BhY2luZyIgdGV4dExlbmd0aD0iMTg1IiB4PSIzMDUyIiB5PSIxMjkxLjIwMzEiPkFkZE1lc3NhZ2Uoc3RyaW5nIG1lc3NhZ2UpPC90ZXh0PjxlbGxpcHNlIGN4PSIzMDQzIiBjeT0iMTMwMS45NDUzIiBmaWxsPSIjODRCRTg0IiByeD0iMyIgcnk9IjMiIHN0eWxlPSJzdHJva2U6IzAzODA0ODtzdHJva2Utd2lkdGg6MS4wOyIvPjx0ZXh0IGZpbGw9IiMwMDAwMDAiIGZvbnQtZmFtaWx5PSJzYW5zLXNlcmlmIiBmb250LXNpemU9IjE0IiBsZW5ndGhBZGp1c3Q9InNwYWNpbmciIHRleHRMZW5ndGg9IjEwMSIgeD0iMzA1MiIgeT0iMTMwNi4xODc1Ij5EcmF3TWVzc2FnZXMoKTwvdGV4dD48L2c+PCEtLWNsYXNzIElucHV0SGFuZGxlci0tPjxnIGlkPSJlbGVtX0lucHV0SGFuZGxlciI+PHJlY3QgY29kZUxpbmU9IjI1MiIgZmlsbD0iI0YxRjFGMSIgaGVpZ2h0PSI2Mi45ODQ0IiBpZD0iSW5wdXRIYW5kbGVyIiByeD0iMi41IiByeT0iMi41IiBzdHlsZT0ic3Ryb2tlOiMxODE4MTg7c3Ryb2tlLXdpZHRoOjAuNTsiIHdpZHRoPSI0MDkiIHg9IjE5NTgiIHk9IjciLz48ZWxsaXBzZSBjeD0iMjExNi4yNSIgY3k9IjIzIiBmaWxsPSIjQUREMUIyIiByeD0iMTEiIHJ5PSIxMSIgc3R5bGU9InN0cm9rZTojMTgxODE4O3N0cm9rZS13aWR0aDoxLjA7Ii8+PHBhdGggZD0iTTIxMTMuODc1LDI3LjI1IEwyMTEzLjg3NSwyOSBMMjExOC44MTI1LDI5IEwyMTE4LjgxMjUsMjcuMjUgTDIxMTMuODc1LDI3LjI1IFogTTIxMTQuNTYyNSwyNy45Mzc1IFEyMTE0LjU2MjUsMjcuOTM3NSAyMTE0LjU2MjUsMTguNzUgTDIxMTIuODEyNSwxOC43NSBRMjExMi44MTI1LDE4Ljc1IDIxMTIuODEyNSwyNy45Mzc1IEwyMTE0LjU2MjUsMjcuOTM3NSBaIE0yMTE4LjEyNSwyNy45Mzc1IEwyMTE5Ljg3NSwyNy45Mzc1IFEyMTE5Ljg3NSwyNy45Mzc1IDIxMTkuODc1LDI1LjEyNSBMMjExOC4xMjUsMjUuMTI1IFEyMTE4LjEyNSwyNS4xMjUgMjExOC4xMjUsMjcuOTM3NSBaIE0yMTE4LjEyNSwxOC43NSBRMjExOC4xMjUsMTguNzUgMjExOC4xMjUsMjEuNTYyNSBMMjExOS44NzUsMjEuNTYyNSBRMjExOS44NzUsMjEuNTYyNSAyMTE5Ljg3NSwxOC43NSBMMjExOC4xMjUsMTguNzUgWiBNMjExMy44NzUsMTkuNDM3NSBMMjExOC44MTI1LDE5LjQzNzUgTDIxMTguODEyNSwxNy42ODc1IEwyMTEzLjg3NSwxNy42ODc1IEwyMTEzLjg3NSwxOS40Mzc1IFogIiBmaWxsPSIjMDAwMDAwIi8+PHRleHQgZmlsbD0iIzAwMDAwMCIgZm9udC1mYW1pbHk9InNhbnMtc2VyaWYiIGZvbnQtc2l6ZT0iMTQiIGxlbmd0aEFkanVzdD0ic3BhY2luZyIgdGV4dExlbmd0aD0iODQiIHg9IjIxMzYuNzUiIHk9IjI4Ljc0MjIiPklucHV0SGFuZGxlcjwvdGV4dD48bGluZSBzdHlsZT0ic3Ryb2tlOiMxODE4MTg7c3Ryb2tlLXdpZHRoOjAuNTsiIHgxPSIxOTU5IiB4Mj0iMjM2NiIgeTE9IjM5IiB5Mj0iMzkiLz48bGluZSBzdHlsZT0ic3Ryb2tlOiMxODE4MTg7c3Ryb2tlLXdpZHRoOjAuNTsiIHgxPSIxOTU5IiB4Mj0iMjM2NiIgeTE9IjQ3IiB5Mj0iNDciLz48ZWxsaXBzZSBjeD0iMTk2OSIgY3k9IjU5Ljk5MjIiIGZpbGw9IiM4NEJFODQiIHJ4PSIzIiByeT0iMyIgc3R5bGU9InN0cm9rZTojMDM4MDQ4O3N0cm9rZS13aWR0aDoxLjA7Ii8+PHRleHQgZmlsbD0iIzAwMDAwMCIgZm9udC1mYW1pbHk9InNhbnMtc2VyaWYiIGZvbnQtc2l6ZT0iMTQiIGxlbmd0aEFkanVzdD0ic3BhY2luZyIgdGV4dExlbmd0aD0iMzgzIiB4PSIxOTc4IiB5PSI2NC4yMzQ0Ij5IYW5kbGVNb3VzZUNsaWNrKFBvaW50MkQgbW91c2VQb3NpdGlvbiwgR2FtZU1lbnUgbWVudSk8L3RleHQ+PC9nPjwhLS1yZXZlcnNlIGxpbmsgQ2hhcmFjdGVyIHRvIEdva3UtLT48ZyBpZD0ibGlua19DaGFyYWN0ZXJfR29rdSI+PHBhdGggZD0iTTE0NTcuNjQ0OSwxNTA4LjQ1MDUgQzE0NDYuODg0OSwxNTMwLjY3MDUgMTQ0NC44LDE1MzQuOTYgMTQzNi42MiwxNTUxLjg0ICIgZmlsbD0ibm9uZSIgaWQ9IkNoYXJhY3Rlci1iYWNrdG8tR29rdSIgc3R5bGU9InN0cm9rZTojMTgxODE4O3N0cm9rZS13aWR0aDoxLjA7Ii8+PHBvbHlnb24gZmlsbD0ibm9uZSIgcG9pbnRzPSIxNDY1LjQ5LDE0OTIuMjUsMTQ1Mi4yNDQ4LDE1MDUuODM1NSwxNDYzLjA0NTEsMTUxMS4wNjU1LDE0NjUuNDksMTQ5Mi4yNSIgc3R5bGU9InN0cm9rZTojMTgxODE4O3N0cm9rZS13aWR0aDoxLjA7Ii8+PC9nPjwhLS1yZXZlcnNlIGxpbmsgQ2hhcmFjdGVyIHRvIFZlZ2V0YS0tPjxnIGlkPSJsaW5rX0NoYXJhY3Rlcl9WZWdldGEiPjxwYXRoIGQ9Ik0xNzAwLjA4NjMsMTUwOC40MzA0IEMxNzEwLjkxNjMsMTUzMC42NTA0IDE3MTMuMDEsMTUzNC45NiAxNzIxLjI0LDE1NTEuODQgIiBmaWxsPSJub25lIiBpZD0iQ2hhcmFjdGVyLWJhY2t0by1WZWdldGEiIHN0eWxlPSJzdHJva2U6IzE4MTgxODtzdHJva2Utd2lkdGg6MS4wOyIvPjxwb2x5Z29uIGZpbGw9Im5vbmUiIHBvaW50cz0iMTY5Mi4yLDE0OTIuMjUsMTY5NC42OTI4LDE1MTEuMDU5MiwxNzA1LjQ3OTgsMTUwNS44MDE2LDE2OTIuMiwxNDkyLjI1IiBzdHlsZT0ic3Ryb2tlOiMxODE4MTg7c3Ryb2tlLXdpZHRoOjEuMDsiLz48L2c+PCEtLXJldmVyc2UgbGluayBDaGFyYWN0ZXIgdG8gR29oYW4tLT48ZyBpZD0ibGlua19DaGFyYWN0ZXJfR29oYW4iPjxwYXRoIGQ9Ik0xODQ2LjM3MjEsMTQ5MC4xODM4IEMxODUyLjM2MjEsMTQ5NC4yOTM4IDE4NDMuNTIsMTQ4OC4xMSAxODQ5LjUsMTQ5MiBDMTg4NC4xNiwxNTE0LjUxIDE5MjQuMzgsMTUzNS4wNCAxOTYxLjA0LDE1NTEuODkgIiBmaWxsPSJub25lIiBpZD0iQ2hhcmFjdGVyLWJhY2t0by1Hb2hhbiIgc3R5bGU9InN0cm9rZTojMTgxODE4O3N0cm9rZS13aWR0aDoxLjA7Ii8+PHBvbHlnb24gZmlsbD0ibm9uZSIgcG9pbnRzPSIxODMxLjUzLDE0ODAsMTg0Mi45Nzc1LDE0OTUuMTMxMiwxODQ5Ljc2NjgsMTQ4NS4yMzY1LDE4MzEuNTMsMTQ4MCIgc3R5bGU9InN0cm9rZTojMTgxODE4O3N0cm9rZS13aWR0aDoxLjA7Ii8+PC9nPjwhLS1yZXZlcnNlIGxpbmsgQ2hhcmFjdGVyIHRvIEZyaWV6YS0tPjxnIGlkPSJsaW5rX0NoYXJhY3Rlcl9GcmllemEiPjxwYXRoIGQ9Ik0xODQ3LjgwNjgsMTQ5MS42NDA0IEMxODUzLjY2NjgsMTQ5NC42OTA0IDE4NDMuNTgsMTQ4OS4yNyAxODQ5LjUsMTQ5MiBDMjAwNy45OCwxNTY1LjAyIDIwNjcuMzYsMTUxMy4yNCAyMjM3LjUsMTU1MiBDMjI0Ny4zMiwxNTU0LjI0IDIyNTcuNDMsMTU1Ni43OCAyMjY3LjU1LDE1NTkuNDkgIiBmaWxsPSJub25lIiBpZD0iQ2hhcmFjdGVyLWJhY2t0by1GcmllemEiIHN0eWxlPSJzdHJva2U6IzE4MTgxODtzdHJva2Utd2lkdGg6MS4wOyIvPjxwb2x5Z29uIGZpbGw9Im5vbmUiIHBvaW50cz0iMTgzMS44NCwxNDgzLjMzLDE4NDUuMDM2NywxNDk2Ljk2MjYsMTg1MC41NzY5LDE0ODYuMzE4MSwxODMxLjg0LDE0ODMuMzMiIHN0eWxlPSJzdHJva2U6IzE4MTgxODtzdHJva2Utd2lkdGg6MS4wOyIvPjwvZz48IS0tcmV2ZXJzZSBsaW5rIENoYXJhY3RlciB0byBDZWxsLS0+PGcgaWQ9ImxpbmtfQ2hhcmFjdGVyX0NlbGwiPjxwYXRoIGQ9Ik0xMzA3Ljk0OTQsMTMyMS43MjY1IEMxMDY3LjU0OTQsMTM3OC4zNDY1IDcxMy44OSwxNDY0LjEgMzk0LjUsMTU1MiBDMzg1Ljg0LDE1NTQuMzggMzc2LjkyLDE1NTYuOTEgMzY3Ljk1LDE1NTkuNSAiIGZpbGw9Im5vbmUiIGlkPSJDaGFyYWN0ZXItYmFja3RvLUNlbGwiIHN0eWxlPSJzdHJva2U6IzE4MTgxODtzdHJva2Utd2lkdGg6MS4wOyIvPjxwb2x5Z29uIGZpbGw9Im5vbmUiIHBvaW50cz0iMTMyNS40NywxMzE3LjYsMTMwNi41NzM5LDEzMTUuODg2MywxMzA5LjMyNDksMTMyNy41NjY3LDEzMjUuNDcsMTMxNy42IiBzdHlsZT0ic3Ryb2tlOiMxODE4MTg7c3Ryb2tlLXdpZHRoOjEuMDsiLz48L2c+PCEtLXJldmVyc2UgbGluayBDaGFyYWN0ZXIgdG8gQnV1LS0+PGcgaWQ9ImxpbmtfQ2hhcmFjdGVyX0J1dSI+PHBhdGggZD0iTTEzMDguMzY1LDEzNDcuNTE1MiBDMTA5Ni43NjUsMTQxNi44NTUyIDgyMS42OSwxNTA3IDY2MS43NCwxNTU5LjQxICIgZmlsbD0ibm9uZSIgaWQ9IkNoYXJhY3Rlci1iYWNrdG8tQnV1IiBzdHlsZT0ic3Ryb2tlOiMxODE4MTg7c3Ryb2tlLXdpZHRoOjEuMDsiLz48cG9seWdvbiBmaWxsPSJub25lIiBwb2ludHM9IjEzMjUuNDcsMTM0MS45MSwxMzA2LjQ5NjYsMTM0MS44MTM1LDEzMTAuMjMzNCwxMzUzLjIxNjksMTMyNS40NywxMzQxLjkxIiBzdHlsZT0ic3Ryb2tlOiMxODE4MTg7c3Ryb2tlLXdpZHRoOjEuMDsiLz48L2c+PCEtLXJldmVyc2UgbGluayBDaGFyYWN0ZXIgdG8gQmxhY2stLT48ZyBpZD0ibGlua19DaGFyYWN0ZXJfQmxhY2siPjxwYXRoIGQ9Ik0xMzA4Ljk3MjEsMTM4My42NDQ2IEMxMTcwLjU2MjEsMTQ0Ny42NDQ2IDEwMjQuNjMsMTUxNS4xMyA5MjguOTgsMTU1OS4zNiAiIGZpbGw9Im5vbmUiIGlkPSJDaGFyYWN0ZXItYmFja3RvLUJsYWNrIiBzdHlsZT0ic3Ryb2tlOiMxODE4MTg7c3Ryb2tlLXdpZHRoOjEuMDsiLz48cG9seWdvbiBmaWxsPSJub25lIiBwb2ludHM9IjEzMjUuMzEsMTM3Ni4wOSwxMzA2LjQ1MzksMTM3OC4xOTg2LDEzMTEuNDkwMiwxMzg5LjA5MDYsMTMyNS4zMSwxMzc2LjA5IiBzdHlsZT0ic3Ryb2tlOiMxODE4MTg7c3Ryb2tlLXdpZHRoOjEuMDsiLz48L2c+PCEtLXJldmVyc2UgbGluayBJVHJhbnNmb3JtYXRpb25TdGF0ZSB0byBTdXBlclNhaXlhbjEtLT48ZyBpZD0ibGlua19JVHJhbnNmb3JtYXRpb25TdGF0ZV9TdXBlclNhaXlhbjEiPjxwYXRoIGQ9Ik0xMDMwLjA4NTYsMTYzNS44NzQ1IEMxMDEzLjYwNTYsMTY0MS41NjQ1IDEwMTMuMTQsMTY0MS4wOCA5OTYuNSwxNjQ1IEM3NzcuMzYsMTY5Ni42MyA3MTMuODksMTY1OC45OSA0OTMuNSwxNzA1IEM0ODMuMzIsMTcwNy4xMiA0NzIuNzgsMTcwOS42OSA0NjIuMzMsMTcxMi40OCAiIGZpbGw9Im5vbmUiIGlkPSJJVHJhbnNmb3JtYXRpb25TdGF0ZS1iYWNrdG8tU3VwZXJTYWl5YW4xIiBzdHlsZT0ic3Ryb2tlOiMxODE4MTg7c3Ryb2tlLXdpZHRoOjEuMDtzdHJva2UtZGFzaGFycmF5OjcuMCw3LjA7Ii8+PHBvbHlnb24gZmlsbD0ibm9uZSIgcG9pbnRzPSIxMDQ3LjEsMTYzMCwxMDI4LjEyNzQsMTYzMC4yMDMsMTAzMi4wNDM4LDE2NDEuNTQ2LDEwNDcuMSwxNjMwIiBzdHlsZT0ic3Ryb2tlOiMxODE4MTg7c3Ryb2tlLXdpZHRoOjEuMDsiLz48L2c+PCEtLXJldmVyc2UgbGluayBJVHJhbnNmb3JtYXRpb25TdGF0ZSB0byBTdXBlclNhaXlhbjItLT48ZyBpZD0ibGlua19JVHJhbnNmb3JtYXRpb25TdGF0ZV9TdXBlclNhaXlhbjIiPjxwYXRoIGQ9Ik0xMDI1LjMwMTYsMTYzNi4wMDA4IEMxMDEwLjE3MTYsMTY0MS4yNzA4IDEwMTEuNDMsMTY0MC41NiA5OTYuNSwxNjQ1IEM4ODYuNTcsMTY3Ny43MiA4NTYuMjMsMTY3NS4wOSA3NDUuNSwxNzA1IEM3MzYuNzksMTcwNy4zNSA3MjcuNzYsMTcwOS44OCA3MTguNzMsMTcxMi40OCAiIGZpbGw9Im5vbmUiIGlkPSJJVHJhbnNmb3JtYXRpb25TdGF0ZS1iYWNrdG8tU3VwZXJTYWl5YW4yIiBzdHlsZT0ic3Ryb2tlOiMxODE4MTg7c3Ryb2tlLXdpZHRoOjEuMDtzdHJva2UtZGFzaGFycmF5OjcuMCw3LjA7Ii8+PHBvbHlnb24gZmlsbD0ibm9uZSIgcG9pbnRzPSIxMDQyLjMsMTYzMC4wOCwxMDIzLjMyOCwxNjMwLjMzNDcsMTAyNy4yNzUyLDE2NDEuNjY2OSwxMDQyLjMsMTYzMC4wOCIgc3R5bGU9InN0cm9rZTojMTgxODE4O3N0cm9rZS13aWR0aDoxLjA7Ii8+PC9nPjwhLS1yZXZlcnNlIGxpbmsgSVRyYW5zZm9ybWF0aW9uU3RhdGUgdG8gU3VwZXJTYWl5YW4zLS0+PGcgaWQ9ImxpbmtfSVRyYW5zZm9ybWF0aW9uU3RhdGVfU3VwZXJTYWl5YW4zIj48cGF0aCBkPSJNMTA1NC4xMDgxLDE2MzkuMDE2OCBDMTAxMS40NjgxLDE2NjMuMjk2OCA5NjcuNzksMTY4OC4xNyA5MjUuMTcsMTcxMi40NCAiIGZpbGw9Im5vbmUiIGlkPSJJVHJhbnNmb3JtYXRpb25TdGF0ZS1iYWNrdG8tU3VwZXJTYWl5YW4zIiBzdHlsZT0ic3Ryb2tlOiMxODE4MTg7c3Ryb2tlLXdpZHRoOjEuMDtzdHJva2UtZGFzaGFycmF5OjcuMCw3LjA7Ii8+PHBvbHlnb24gZmlsbD0ibm9uZSIgcG9pbnRzPSIxMDY5Ljc1LDE2MzAuMTEsMTA1MS4xMzkyLDE2MzMuODAyOCwxMDU3LjA3NywxNjQ0LjIzMDgsMTA2OS43NSwxNjMwLjExIiBzdHlsZT0ic3Ryb2tlOiMxODE4MTg7c3Ryb2tlLXdpZHRoOjEuMDsiLz48L2c+PCEtLXJldmVyc2UgbGluayBJVHJhbnNmb3JtYXRpb25TdGF0ZSB0byBVbHRpbWF0ZS0tPjxnIGlkPSJsaW5rX0lUcmFuc2Zvcm1hdGlvblN0YXRlX1VsdGltYXRlIj48cGF0aCBkPSJNMTIyMS4wMzM2LDE2MzYuMDcyOSBDMTIzNi4wNDM2LDE2NDEuMzQyOSAxMjM0LjY4LDE2NDAuNTggMTI0OS41LDE2NDUgQzEzNTkuODIsMTY3Ny45NCAxMzkwLjM0LDE2NzUuMDMgMTUwMS41LDE3MDUgQzE1MTAuMjEsMTcwNy4zNSAxNTE5LjI0LDE3MDkuODggMTUyOC4yNywxNzEyLjQ4ICIgZmlsbD0ibm9uZSIgaWQ9IklUcmFuc2Zvcm1hdGlvblN0YXRlLWJhY2t0by1VbHRpbWF0ZSIgc3R5bGU9InN0cm9rZTojMTgxODE4O3N0cm9rZS13aWR0aDoxLjA7c3Ryb2tlLWRhc2hhcnJheTo3LjAsNy4wOyIvPjxwb2x5Z29uIGZpbGw9Im5vbmUiIHBvaW50cz0iMTIwNC4wNSwxNjMwLjExLDEyMTkuMDQ2LDE2NDEuNzM0MSwxMjIzLjAyMTMsMTYzMC40MTE3LDEyMDQuMDUsMTYzMC4xMSIgc3R5bGU9InN0cm9rZTojMTgxODE4O3N0cm9rZS13aWR0aDoxLjA7Ii8+PC9nPjwhLS1yZXZlcnNlIGxpbmsgSVRyYW5zZm9ybWF0aW9uU3RhdGUgdG8gU3VwZXJTYWl5YW5Hb2QtLT48ZyBpZD0ibGlua19JVHJhbnNmb3JtYXRpb25TdGF0ZV9TdXBlclNhaXlhbkdvZCI+PHBhdGggZD0iTTExMjMuNSwxNjQ4LjI4IEMxMTIzLjUsMTY3Mi41IDExMjMuNSwxNjg4LjA3IDExMjMuNSwxNzEyLjI3ICIgZmlsbD0ibm9uZSIgaWQ9IklUcmFuc2Zvcm1hdGlvblN0YXRlLWJhY2t0by1TdXBlclNhaXlhbkdvZCIgc3R5bGU9InN0cm9rZTojMTgxODE4O3N0cm9rZS13aWR0aDoxLjA7c3Ryb2tlLWRhc2hhcnJheTo3LjAsNy4wOyIvPjxwb2x5Z29uIGZpbGw9Im5vbmUiIHBvaW50cz0iMTEyMy41LDE2MzAuMjgsMTExNy41LDE2NDguMjgsMTEyOS41LDE2NDguMjgsMTEyMy41LDE2MzAuMjgiIHN0eWxlPSJzdHJva2U6IzE4MTgxODtzdHJva2Utd2lkdGg6MS4wOyIvPjwvZz48IS0tcmV2ZXJzZSBsaW5rIElUcmFuc2Zvcm1hdGlvblN0YXRlIHRvIFN1cGVyU2FpeWFuQmx1ZS0tPjxnIGlkPSJsaW5rX0lUcmFuc2Zvcm1hdGlvblN0YXRlX1N1cGVyU2FpeWFuQmx1ZSI+PHBhdGggZD0iTTExOTIuODkxOSwxNjM5LjAxNjggQzEyMzUuNTMxOSwxNjYzLjI5NjggMTI3OS4yMSwxNjg4LjE3IDEzMjEuODMsMTcxMi40NCAiIGZpbGw9Im5vbmUiIGlkPSJJVHJhbnNmb3JtYXRpb25TdGF0ZS1iYWNrdG8tU3VwZXJTYWl5YW5CbHVlIiBzdHlsZT0ic3Ryb2tlOiMxODE4MTg7c3Ryb2tlLXdpZHRoOjEuMDtzdHJva2UtZGFzaGFycmF5OjcuMCw3LjA7Ii8+PHBvbHlnb24gZmlsbD0ibm9uZSIgcG9pbnRzPSIxMTc3LjI1LDE2MzAuMTEsMTE4OS45MjMsMTY0NC4yMzA4LDExOTUuODYwOCwxNjMzLjgwMjgsMTE3Ny4yNSwxNjMwLjExIiBzdHlsZT0ic3Ryb2tlOiMxODE4MTg7c3Ryb2tlLXdpZHRoOjEuMDsiLz48L2c+PCEtLXJldmVyc2UgbGluayBJVHJhbnNmb3JtYXRpb25TdGF0ZSB0byBVbHRyYUluc3RpbmN0LS0+PGcgaWQ9ImxpbmtfSVRyYW5zZm9ybWF0aW9uU3RhdGVfVWx0cmFJbnN0aW5jdCI+PHBhdGggZD0iTTEyMTYuMjc2NywxNjM1LjkzNTUgQzEyMzIuNjI2NywxNjQxLjYzNTUgMTIzMi45OCwxNjQxLjA5IDEyNDkuNSwxNjQ1IEMxNDY5LjAxLDE2OTYuOTggMTUzMi42NywxNjU4LjkyIDE3NTMuNSwxNzA1IEMxNzYzLjY4LDE3MDcuMTIgMTc3NC4yMiwxNzA5LjY5IDE3ODQuNjcsMTcxMi40OCAiIGZpbGw9Im5vbmUiIGlkPSJJVHJhbnNmb3JtYXRpb25TdGF0ZS1iYWNrdG8tVWx0cmFJbnN0aW5jdCIgc3R5bGU9InN0cm9rZTojMTgxODE4O3N0cm9rZS13aWR0aDoxLjA7c3Ryb2tlLWRhc2hhcnJheTo3LjAsNy4wOyIvPjxwb2x5Z29uIGZpbGw9Im5vbmUiIHBvaW50cz0iMTE5OS4yOCwxNjMwLjAxLDEyMTQuMzAxNiwxNjQxLjYwMSwxMjE4LjI1MTksMTYzMC4yNjk5LDExOTkuMjgsMTYzMC4wMSIgc3R5bGU9InN0cm9rZTojMTgxODE4O3N0cm9rZS13aWR0aDoxLjA7Ii8+PC9nPjwhLS1yZXZlcnNlIGxpbmsgSVRyYW5zZm9ybWF0aW9uU3RhdGUgdG8gVWx0cmFFZ28tLT48ZyBpZD0ibGlua19JVHJhbnNmb3JtYXRpb25TdGF0ZV9VbHRyYUVnbyI+PHBhdGggZD0iTTEyMTQuODIwOCwxNjM1Ljk2MzggQzEyMzEuNTgwOCwxNjQxLjc5MzggMTIzMi40NSwxNjQxLjMxIDEyNDkuNSwxNjQ1IEMxNTc4Ljk1LDE3MTYuMjEgMTY3NC4yNiwxNjQyLjY1IDIwMDUuNSwxNzA1IEMyMDE2LjE3LDE3MDcuMDEgMjAyNy4yMSwxNzA5LjU4IDIwMzguMTMsMTcxMi40MyAiIGZpbGw9Im5vbmUiIGlkPSJJVHJhbnNmb3JtYXRpb25TdGF0ZS1iYWNrdG8tVWx0cmFFZ28iIHN0eWxlPSJzdHJva2U6IzE4MTgxODtzdHJva2Utd2lkdGg6MS4wO3N0cm9rZS1kYXNoYXJyYXk6Ny4wLDcuMDsiLz48cG9seWdvbiBmaWxsPSJub25lIiBwb2ludHM9IjExOTcuODIsMTYzMC4wNSwxMjEyLjg0OTYsMTY0MS42MzA3LDEyMTYuNzkyMSwxNjMwLjI5NjgsMTE5Ny44MiwxNjMwLjA1IiBzdHlsZT0ic3Ryb2tlOiMxODE4MTg7c3Ryb2tlLXdpZHRoOjEuMDsiLz48L2c+PCEtLXJldmVyc2UgbGluayBJVHJhbnNmb3JtYXRpb25TdGF0ZSB0byBCZWFzdC0tPjxnIGlkPSJsaW5rX0lUcmFuc2Zvcm1hdGlvblN0YXRlX0JlYXN0Ij48cGF0aCBkPSJNMTAzMS41NTkzLDE2MzUuOTI1MiBDMTAxNC42NzkzLDE2NDEuNzY1MiAxMDEzLjY3LDE2NDEuMzEgOTk2LjUsMTY0NSBDNjY3LjQsMTcxNS43MiA1NzIuMywxNjQyLjcxIDI0MS41LDE3MDUgQzIzMC44MywxNzA3LjAxIDIxOS43OSwxNzA5LjU4IDIwOC44NywxNzEyLjQ0ICIgZmlsbD0ibm9uZSIgaWQ9IklUcmFuc2Zvcm1hdGlvblN0YXRlLWJhY2t0by1CZWFzdCIgc3R5bGU9InN0cm9rZTojMTgxODE4O3N0cm9rZS13aWR0aDoxLjA7c3Ryb2tlLWRhc2hhcnJheTo3LjAsNy4wOyIvPjxwb2x5Z29uIGZpbGw9Im5vbmUiIHBvaW50cz0iMTA0OC41NywxNjMwLjA0LDEwMjkuNTk3NiwxNjMwLjI1NSwxMDMzLjUyMSwxNjQxLjU5NTUsMTA0OC41NywxNjMwLjA0IiBzdHlsZT0ic3Ryb2tlOiMxODE4MTg7c3Ryb2tlLXdpZHRoOjEuMDsiLz48L2c+PCEtLXJldmVyc2UgbGluayBJVmlsbGFpblN0cmF0ZWd5IHRvIERlZmF1bHRWaWxsYWluU3RyYXRlZ3ktLT48ZyBpZD0ibGlua19JVmlsbGFpblN0cmF0ZWd5X0RlZmF1bHRWaWxsYWluU3RyYXRlZ3kiPjxwYXRoIGQ9Ik0zMDEyLjUwOTcsMTYzNC44ODY1IEMzMDkwLjQ1OTcsMTY1Ni43NzY1IDMxNzguNjgsMTY4MS41NSAzMjYyLjExLDE3MDQuOTggIiBmaWxsPSJub25lIiBpZD0iSVZpbGxhaW5TdHJhdGVneS1iYWNrdG8tRGVmYXVsdFZpbGxhaW5TdHJhdGVneSIgc3R5bGU9InN0cm9rZTojMTgxODE4O3N0cm9rZS13aWR0aDoxLjA7c3Ryb2tlLWRhc2hhcnJheTo3LjAsNy4wOyIvPjxwb2x5Z29uIGZpbGw9Im5vbmUiIHBvaW50cz0iMjk5NS4xOCwxNjMwLjAyLDMwMTAuODg3NSwxNjQwLjY2MzEsMzAxNC4xMzE4LDE2MjkuMTEsMjk5NS4xOCwxNjMwLjAyIiBzdHlsZT0ic3Ryb2tlOiMxODE4MTg7c3Ryb2tlLXdpZHRoOjEuMDsiLz48L2c+PCEtLXJldmVyc2UgbGluayBJVmlsbGFpblN0cmF0ZWd5IHRvIEFnZ3Jlc3NpdmVWaWxsYWluU3RyYXRlZ3ktLT48ZyBpZD0ibGlua19JVmlsbGFpblN0cmF0ZWd5X0FnZ3Jlc3NpdmVWaWxsYWluU3RyYXRlZ3kiPjxwYXRoIGQ9Ik0zMTMxLjM4NjcsMTYzMi40NjkgQzMyODQuMDk2NywxNjUzLjE3OSAzNDcyLjA1LDE2NzkgMzY1My41LDE3MDUgQzM2NTkuMDQsMTcwNS43OSAzNjY0LjY0LDE3MDYuNiAzNjcwLjMsMTcwNy40MiAiIGZpbGw9Im5vbmUiIGlkPSJJVmlsbGFpblN0cmF0ZWd5LWJhY2t0by1BZ2dyZXNzaXZlVmlsbGFpblN0cmF0ZWd5IiBzdHlsZT0ic3Ryb2tlOiMxODE4MTg7c3Ryb2tlLXdpZHRoOjEuMDtzdHJva2UtZGFzaGFycmF5OjcuMCw3LjA7Ii8+PHBvbHlnb24gZmlsbD0ibm9uZSIgcG9pbnRzPSIzMTEzLjU1LDE2MzAuMDUsMzEzMC41ODA0LDE2MzguNDE0NSwzMTMyLjE5MywxNjI2LjUyMzQsMzExMy41NSwxNjMwLjA1IiBzdHlsZT0ic3Ryb2tlOiMxODE4MTg7c3Ryb2tlLXdpZHRoOjEuMDsiLz48L2c+PCEtLXJldmVyc2UgbGluayBJVmlsbGFpblN0cmF0ZWd5IHRvIERlZmVuc2l2ZVZpbGxhaW5TdHJhdGVneS0tPjxnIGlkPSJsaW5rX0lWaWxsYWluU3RyYXRlZ3lfRGVmZW5zaXZlVmlsbGFpblN0cmF0ZWd5Ij48cGF0aCBkPSJNMjg4Ni41LDE2NDguMjggQzI4ODYuNSwxNjcwLjExIDI4ODYuNSwxNjgxLjU0IDI4ODYuNSwxNzA0Ljg1ICIgZmlsbD0ibm9uZSIgaWQ9IklWaWxsYWluU3RyYXRlZ3ktYmFja3RvLURlZmVuc2l2ZVZpbGxhaW5TdHJhdGVneSIgc3R5bGU9InN0cm9rZTojMTgxODE4O3N0cm9rZS13aWR0aDoxLjA7c3Ryb2tlLWRhc2hhcnJheTo3LjAsNy4wOyIvPjxwb2x5Z29uIGZpbGw9Im5vbmUiIHBvaW50cz0iMjg4Ni41LDE2MzAuMjgsMjg4MC41LDE2NDguMjgsMjg5Mi41LDE2NDguMjgsMjg4Ni41LDE2MzAuMjgiIHN0eWxlPSJzdHJva2U6IzE4MTgxODtzdHJva2Utd2lkdGg6MS4wOyIvPjwvZz48IS0tbGluayBDaGFyYWN0ZXIgdG8gSVRyYW5zZm9ybWF0aW9uU3RhdGUtLT48ZyBpZD0ibGlua19DaGFyYWN0ZXJfSVRyYW5zZm9ybWF0aW9uU3RhdGUiPjxwYXRoIGNvZGVMaW5lPSIyNTYiIGQ9Ik0xMzI1LjM5LDE0NDcuMyBDMTI2Mi42NywxNDkzLjk3IDEyMTIuMjA4MiwxNTMxLjUwNzcgMTE3NC4xMzgyLDE1NTkuODI3NyAiIGZpbGw9Im5vbmUiIGlkPSJDaGFyYWN0ZXItdG8tSVRyYW5zZm9ybWF0aW9uU3RhdGUiIHN0eWxlPSJzdHJva2U6IzE4MTgxODtzdHJva2Utd2lkdGg6MS4wOyIvPjxwb2x5Z29uIGZpbGw9IiMxODE4MTgiIHBvaW50cz0iMTE2NC41MSwxNTY2Ljk5LDExNzEuNzExNSwxNTY2LjYxODIsMTE3NC4xMzgyLDE1NTkuODI3NywxMTY2LjkzNjYsMTU2MC4xOTk1LDExNjQuNTEsMTU2Ni45OSIgc3R5bGU9InN0cm9rZTojMTgxODE4O3N0cm9rZS13aWR0aDoxLjA7Ii8+PC9nPjwhLS1saW5rIENoYXJhY3RlckZhY3RvcnkgdG8gQ2hhcmFjdGVyLS0+PGcgaWQ9ImxpbmtfQ2hhcmFjdGVyRmFjdG9yeV9DaGFyYWN0ZXIiPjxwYXRoIGNvZGVMaW5lPSIyNTciIGQ9Ik0xOTQ5Ljc2LDg0NC4zMyBDMTkxNS4wMyw4ODIuOTMgMTg1Ni4yOTMxLDk0OC4yMjk2IDE3OTIuMTMzMSwxMDE5LjUzOTYgIiBmaWxsPSJub25lIiBpZD0iQ2hhcmFjdGVyRmFjdG9yeS10by1DaGFyYWN0ZXIiIHN0eWxlPSJzdHJva2U6IzE4MTgxODtzdHJva2Utd2lkdGg6MS4wOyIvPjxwb2x5Z29uIGZpbGw9IiMxODE4MTgiIHBvaW50cz0iMTc4OC4xMiwxMDI0LDE3OTcuMTEzMywxMDE5Ljk4NDksMTc5MS40NjQzLDEwMjAuMjgzLDE3OTEuMTY2MSwxMDE0LjYzNCwxNzg4LjEyLDEwMjQiIHN0eWxlPSJzdHJva2U6IzE4MTgxODtzdHJva2Utd2lkdGg6MS4wOyIvPjwvZz48IS0tbGluayBQbGF5ZXIgdG8gQ2hhcmFjdGVyLS0+PGcgaWQ9ImxpbmtfUGxheWVyX0NoYXJhY3RlciI+PHBhdGggY29kZUxpbmU9IjI1OCIgZD0iTTE1NzguNSw5MDQuMDUgQzE1NzguNSw5MzkuMTQgMTU3OC41LDk2OS4wNyAxNTc4LjUsMTAxMS41OCAiIGZpbGw9Im5vbmUiIGlkPSJQbGF5ZXItdG8tQ2hhcmFjdGVyIiBzdHlsZT0ic3Ryb2tlOiMxODE4MTg7c3Ryb2tlLXdpZHRoOjEuMDsiLz48cG9seWdvbiBmaWxsPSIjMTgxODE4IiBwb2ludHM9IjE1NzguNSwxMDIzLjU4LDE1ODIuNSwxMDE3LjU4LDE1NzguNSwxMDExLjU4LDE1NzQuNSwxMDE3LjU4LDE1NzguNSwxMDIzLjU4IiBzdHlsZT0ic3Ryb2tlOiMxODE4MTg7c3Ryb2tlLXdpZHRoOjEuMDsiLz48dGV4dCBmaWxsPSIjMDAwMDAwIiBmb250LWZhbWlseT0ic2Fucy1zZXJpZiIgZm9udC1zaXplPSIxMyIgbGVuZ3RoQWRqdXN0PSJzcGFjaW5nIiB0ZXh0TGVuZ3RoPSI3IiB4PSIxNTcxLjIyMTEiIHk9IjkyNC4xOTQ0Ij4xPC90ZXh0Pjx0ZXh0IGZpbGw9IiMwMDAwMDAiIGZvbnQtZmFtaWx5PSJzYW5zLXNlcmlmIiBmb250LXNpemU9IjEzIiBsZW5ndGhBZGp1c3Q9InNwYWNpbmciIHRleHRMZW5ndGg9IjYiIHg9IjE1NzIuMzkyMiIgeT0iMTAxNC4yMzUzIj4qPC90ZXh0PjwvZz48IS0tbGluayBSZWNydWl0U3lzdGVtIHRvIFBsYXllci0tPjxnIGlkPSJsaW5rX1JlY3J1aXRTeXN0ZW1fUGxheWVyIj48cGF0aCBjb2RlTGluZT0iMjU5IiBkPSJNMTU2My43OCw2MDEuMDIgQzE1NjYuMzUsNjM3Ljc2IDE1NjkuMDQxLDY3Ni4yMjQ2IDE1NzEuNzQxLDcxNC43OTQ2ICIgZmlsbD0ibm9uZSIgaWQ9IlJlY3J1aXRTeXN0ZW0tdG8tUGxheWVyIiBzdHlsZT0ic3Ryb2tlOiMxODE4MTg7c3Ryb2tlLXdpZHRoOjEuMDsiLz48cG9seWdvbiBmaWxsPSIjMTgxODE4IiBwb2ludHM9IjE1NzIuMTYsNzIwLjc4LDE1NzUuNTIxNyw3MTEuNTIyNiwxNTcxLjgxMDgsNzE1Ljc5MjIsMTU2Ny41NDEzLDcxMi4wODEzLDE1NzIuMTYsNzIwLjc4IiBzdHlsZT0ic3Ryb2tlOiMxODE4MTg7c3Ryb2tlLXdpZHRoOjEuMDsiLz48L2c+PCEtLWxpbmsgUmVjcnVpdFJlc3VsdCB0byBSZWNydWl0U3lzdGVtLS0+PGcgaWQ9ImxpbmtfUmVjcnVpdFJlc3VsdF9SZWNydWl0U3lzdGVtIj48cGF0aCBjb2RlTGluZT0iMjYwIiBkPSJNMTQ0NC43LDI5OC4wMyBDMTQ2NC40MSwzMzcuMDggMTQ5Mi45MDU4LDM5My41NTQgMTUxNy42NjU4LDQ0Mi41OTQgIiBmaWxsPSJub25lIiBpZD0iUmVjcnVpdFJlc3VsdC10by1SZWNydWl0U3lzdGVtIiBzdHlsZT0ic3Ryb2tlOiMxODE4MTg7c3Ryb2tlLXdpZHRoOjEuMDsiLz48cG9seWdvbiBmaWxsPSIjMTgxODE4IiBwb2ludHM9IjE1MjAuMzcsNDQ3Ljk1LDE1MTkuODg0Myw0MzguMTEzMSwxNTE4LjExNjUsNDQzLjQ4NjYsMTUxMi43NDMsNDQxLjcxODgsMTUyMC4zNyw0NDcuOTUiIHN0eWxlPSJzdHJva2U6IzE4MTgxODtzdHJva2Utd2lkdGg6MS4wOyIvPjwvZz48IS0tbGluayBSZWNydWl0U3lzdGVtIHRvIFJlY3J1aXRTdGF0dXMtLT48ZyBpZD0ibGlua19SZWNydWl0U3lzdGVtX1JlY3J1aXRTdGF0dXMiPjxwYXRoIGNvZGVMaW5lPSIyNjEiIGQ9Ik0xNDQ1LjI4LDYwMS4wNyBDMTQyMS44OCw2MTkuMjYgMTM5OC4zNCw2MzkuNjYgMTM3OC41LDY2MSBDMTM1MS4zLDY5MC4yNSAxMzI5Ljk2MjEsNzIyLjg1OTMgMTMxMi40NzIxLDc1My4yNTkzICIgZmlsbD0ibm9uZSIgaWQ9IlJlY3J1aXRTeXN0ZW0tdG8tUmVjcnVpdFN0YXR1cyIgc3R5bGU9InN0cm9rZTojMTgxODE4O3N0cm9rZS13aWR0aDoxLjA7Ii8+PHBvbHlnb24gZmlsbD0iIzE4MTgxOCIgcG9pbnRzPSIxMzA5LjQ4LDc1OC40NiwxMzE3LjQzNTMsNzUyLjY1MzcsMTMxMS45NzM0LDc1NC4xMjYxLDEzMTAuNTAxLDc0OC42NjQyLDEzMDkuNDgsNzU4LjQ2IiBzdHlsZT0ic3Ryb2tlOiMxODE4MTg7c3Ryb2tlLXdpZHRoOjEuMDsiLz48L2c+PCEtLWxpbmsgUmVjcnVpdFJlc3VsdCB0byBSZWNydWl0U3RhdHVzLS0+PGcgaWQ9ImxpbmtfUmVjcnVpdFJlc3VsdF9SZWNydWl0U3RhdHVzIj48cGF0aCBjb2RlTGluZT0iMjYyIiBkPSJNMTQwMy41OSwyOTguMzIgQzEzODMuMzMsMzM1LjQyIDEzNTMuOTcsMzkzLjg3IDEzMzcuNSw0NDggQzEzMDQuODQsNTU1LjM2IDEyOTEuMTA1Miw2ODAuNjQ4OCAxMjg1LjQwNTIsNzUyLjM5ODggIiBmaWxsPSJub25lIiBpZD0iUmVjcnVpdFJlc3VsdC10by1SZWNydWl0U3RhdHVzIiBzdHlsZT0ic3Ryb2tlOiMxODE4MTg7c3Ryb2tlLXdpZHRoOjEuMDsiLz48cG9seWdvbiBmaWxsPSIjMTgxODE4IiBwb2ludHM9IjEyODQuOTMsNzU4LjM4LDEyODkuNjMwMiw3NDkuNzI1LDEyODUuMzI2LDc1My4zOTU3LDEyODEuNjU1Myw3NDkuMDkxNSwxMjg0LjkzLDc1OC4zOCIgc3R5bGU9InN0cm9rZTojMTgxODE4O3N0cm9rZS13aWR0aDoxLjA7Ii8+PC9nPjwhLS1saW5rIFZpbGxhaW5BSSB0byBJVmlsbGFpblN0cmF0ZWd5LS0+PGcgaWQ9ImxpbmtfVmlsbGFpbkFJX0lWaWxsYWluU3RyYXRlZ3kiPjxwYXRoIGNvZGVMaW5lPSIyNjMiIGQ9Ik0yMTIxLjU1LDEzMTIuMjEgQzIxNjMuNCwxMzY2LjQ4IDIyMzUuNzksMTQ0OC42OSAyMzE4LjUsMTQ5MiBDMjM1MS43MSwxNTA5LjM5IDI1MjcuOTk1MiwxNTQwLjUyNjEgMjY3OC43NzUyLDE1NjUuMDE2MSAiIGZpbGw9Im5vbmUiIGlkPSJWaWxsYWluQUktdG8tSVZpbGxhaW5TdHJhdGVneSIgc3R5bGU9InN0cm9rZTojMTgxODE4O3N0cm9rZS13aWR0aDoxLjA7Ii8+PHBvbHlnb24gZmlsbD0iIzE4MTgxOCIgcG9pbnRzPSIyNjkwLjYyLDE1NjYuOTQsMjY4NS4zMzg5LDE1NjIuMDI5OCwyNjc4Ljc3NTIsMTU2NS4wMTYxLDI2ODQuMDU2MywxNTY5LjkyNjMsMjY5MC42MiwxNTY2Ljk0IiBzdHlsZT0ic3Ryb2tlOiMxODE4MTg7c3Ryb2tlLXdpZHRoOjEuMDsiLz48L2c+PCEtLWxpbmsgSVZpbGxhaW5TdHJhdGVneSB0byBWaWxsYWluQWN0aW9uLS0+PGcgaWQ9ImxpbmtfSVZpbGxhaW5TdHJhdGVneV9WaWxsYWluQWN0aW9uIj48cGF0aCBjb2RlTGluZT0iMjY0IiBkPSJNMjgwOS42MywxNjMwLjExIEMyNzU4LjgsMTY1MC42NCAyNjkwLjgzLDE2NzguNjYgMjYzMS41LDE3MDUgQzI2MjUuNiwxNzA3LjYyIDI2MjQuOTI0NCwxNzA3Ljg3ODMgMjYxOC44MTQ0LDE3MTAuNzA4MyAiIGZpbGw9Im5vbmUiIGlkPSJJVmlsbGFpblN0cmF0ZWd5LXRvLVZpbGxhaW5BY3Rpb24iIHN0eWxlPSJzdHJva2U6IzE4MTgxODtzdHJva2Utd2lkdGg6MS4wOyIvPjxwb2x5Z29uIGZpbGw9IiMxODE4MTgiIHBvaW50cz0iMjYxMy4zNywxNzEzLjIzLDI2MjMuMjE3NywxNzEzLjA3NywyNjE3LjkwNywxNzExLjEyODYsMjYxOS44NTU0LDE3MDUuODE3OSwyNjEzLjM3LDE3MTMuMjMiIHN0eWxlPSJzdHJva2U6IzE4MTgxODtzdHJva2Utd2lkdGg6MS4wOyIvPjwvZz48IS0tbGluayBWaWxsYWluQUkgdG8gVmlsbGFpbkFjdGlvbi0tPjxnIGlkPSJsaW5rX1ZpbGxhaW5BSV9WaWxsYWluQWN0aW9uIj48cGF0aCBjb2RlTGluZT0iMjY1IiBkPSJNMjEyMy40NywxMzEyLjM0IEMyMTY2LjEsMTM2NS41MSAyMjM4LjQsMTQ0NS43NCAyMzE4LjUsMTQ5MiBDMjQwNi4yNywxNTQyLjY4IDI0NzQuMjgsMTQ3My41OSAyNTM4LjUsMTU1MiBDMjU3My41NiwxNTk0LjgxIDI1NjkuNjExNywxNjU2LjgzMDIgMjU2MS43OTE3LDE2OTkuMDkwMiAiIGZpbGw9Im5vbmUiIGlkPSJWaWxsYWluQUktdG8tVmlsbGFpbkFjdGlvbiIgc3R5bGU9InN0cm9rZTojMTgxODE4O3N0cm9rZS13aWR0aDoxLjA7Ii8+PHBvbHlnb24gZmlsbD0iIzE4MTgxOCIgcG9pbnRzPSIyNTYwLjcsMTcwNC45OSwyNTY2LjI3MDgsMTY5Ni44NjgxLDI1NjEuNjA5OCwxNzAwLjA3MzUsMjU1OC40MDQ0LDE2OTUuNDEyNCwyNTYwLjcsMTcwNC45OSIgc3R5bGU9InN0cm9rZTojMTgxODE4O3N0cm9rZS13aWR0aDoxLjA7Ii8+PC9nPjwhLS1saW5rIEJhdHRsZU1hbmFnZXIgdG8gQmF0dGxlU3lzdGVtLS0+PGcgaWQ9ImxpbmtfQmF0dGxlTWFuYWdlcl9CYXR0bGVTeXN0ZW0iPjxwYXRoIGNvZGVMaW5lPSIyNjYiIGQ9Ik0yNjA5LjQ0LDU3OC42MiBDMjYxMi4wOCw2MDIuMjEgMjYxNC42NzMyLDYyNS4zMTcyIDI2MTcuOTczMiw2NTQuODI3MiAiIGZpbGw9Im5vbmUiIGlkPSJCYXR0bGVNYW5hZ2VyLXRvLUJhdHRsZVN5c3RlbSIgc3R5bGU9InN0cm9rZTojMTgxODE4O3N0cm9rZS13aWR0aDoxLjA7Ii8+PHBvbHlnb24gZmlsbD0iIzE4MTgxOCIgcG9pbnRzPSIyNjE4LjY0LDY2MC43OSwyNjIxLjYxNSw2NTEuNDAxMiwyNjE4LjA4NDMsNjU1LjgyMSwyNjEzLjY2NDYsNjUyLjI5MDMsMjYxOC42NCw2NjAuNzkiIHN0eWxlPSJzdHJva2U6IzE4MTgxODtzdHJva2Utd2lkdGg6MS4wOyIvPjwvZz48IS0tbGluayBCYXR0bGVNYW5hZ2VyIHRvIFBsYXllci0tPjxnIGlkPSJsaW5rX0JhdHRsZU1hbmFnZXJfUGxheWVyIj48cGF0aCBjb2RlTGluZT0iMjY3IiBkPSJNMjQ3OS4wMiw1NzguNTIgQzI0NTQuNjcsNTg3LjIzIDI0MjkuMDYsNTk1LjI3IDI0MDQuNSw2MDEgQzIxMzIuMyw2NjQuNDcgMjAzOS4wNSw1NTkuODQgMTc3OC41LDY2MSBDMTc0Mi4zNSw2NzUuMDQgMTcxMS44NTQ4LDY5My45MzM2IDE2ODEuMjY0OCw3MTcuMzQzNiAiIGZpbGw9Im5vbmUiIGlkPSJCYXR0bGVNYW5hZ2VyLXRvLVBsYXllciIgc3R5bGU9InN0cm9rZTojMTgxODE4O3N0cm9rZS13aWR0aDoxLjA7Ii8+PHBvbHlnb24gZmlsbD0iIzE4MTgxOCIgcG9pbnRzPSIxNjc2LjUsNzIwLjk5LDE2ODYuMDc4Miw3MTguNjk2OSwxNjgwLjQ3MDcsNzE3Ljk1MTMsMTY4MS4yMTYzLDcxMi4zNDM4LDE2NzYuNSw3MjAuOTkiIHN0eWxlPSJzdHJva2U6IzE4MTgxODtzdHJva2Utd2lkdGg6MS4wOyIvPjwvZz48IS0tbGluayBCYXR0bGVTeXN0ZW0gdG8gVmlsbGFpbkFJLS0+PGcgaWQ9ImxpbmtfQmF0dGxlU3lzdGVtX1ZpbGxhaW5BSSI+PHBhdGggY29kZUxpbmU9IjI2OCIgZD0iTTIzOTkuOCw5NjIuNTIgQzIzNzEuODEsOTgyLjM5IDIzNDQuMTEsMTAwMy4xNCAyMzE4LjUsMTAyNCBDMjI0OS4yNCwxMDgwLjQzIDIxODEuNDkwMywxMTQ5Ljg3MSAyMTM1Ljc3MDMsMTE5OS4xNjEgIiBmaWxsPSJub25lIiBpZD0iQmF0dGxlU3lzdGVtLXRvLVZpbGxhaW5BSSIgc3R5bGU9InN0cm9rZTojMTgxODE4O3N0cm9rZS13aWR0aDoxLjA7Ii8+PHBvbHlnb24gZmlsbD0iIzE4MTgxOCIgcG9pbnRzPSIyMTMxLjY5LDEyMDMuNTYsMjE0MC43NDMyLDExOTkuNjgxOCwyMTM1LjA5MDMsMTE5OS44OTQyLDIxMzQuODc3OSwxMTk0LjI0MTMsMjEzMS42OSwxMjAzLjU2IiBzdHlsZT0ic3Ryb2tlOiMxODE4MTg7c3Ryb2tlLXdpZHRoOjEuMDsiLz48L2c+PCEtLWxpbmsgQmF0dGxlU3lzdGVtIHRvIEJhdHRsZVVJLS0+PGcgaWQ9ImxpbmtfQmF0dGxlU3lzdGVtX0JhdHRsZVVJIj48cGF0aCBjb2RlTGluZT0iMjY5IiBkPSJNMjY0Ni4wNCw5NjQuMjcgQzI2NTEuMTUsMTAzNy4zNCAyNjU2LjY0MTgsMTExNS45MjQ2IDI2NjAuNzkxOCwxMTc1LjMyNDYgIiBmaWxsPSJub25lIiBpZD0iQmF0dGxlU3lzdGVtLXRvLUJhdHRsZVVJIiBzdHlsZT0ic3Ryb2tlOiMxODE4MTg7c3Ryb2tlLXdpZHRoOjEuMDsiLz48cG9seWdvbiBmaWxsPSIjMTgxODE4IiBwb2ludHM9IjI2NjEuMjEsMTE4MS4zMSwyNjY0LjU3MywxMTcyLjA1MzEsMjY2MC44NjE1LDExNzYuMzIyMiwyNjU2LjU5MjUsMTE3Mi42MTA3LDI2NjEuMjEsMTE4MS4zMSIgc3R5bGU9InN0cm9rZTojMTgxODE4O3N0cm9rZS13aWR0aDoxLjA7Ii8+PC9nPjwhLS1saW5rIEJhdHRsZVN5c3RlbSB0byBNZXNzYWdlTWFuYWdlci0tPjxnIGlkPSJsaW5rX0JhdHRsZVN5c3RlbV9NZXNzYWdlTWFuYWdlciI+PHBhdGggY29kZUxpbmU9IjI3MCIgZD0iTTI4NzEuMjMsOTM2LjkgQzI5MTQuOTUsOTYzLjA0IDI5NTguOTQsOTkyLjM5IDI5OTcuNSwxMDI0IEMzMDYyLjE2LDEwNzcuMDEgMzExOC40NDY1LDExNDguMjk5IDMxNTkuMDM2NSwxMTk4LjkxOSAiIGZpbGw9Im5vbmUiIGlkPSJCYXR0bGVTeXN0ZW0tdG8tTWVzc2FnZU1hbmFnZXIiIHN0eWxlPSJzdHJva2U6IzE4MTgxODtzdHJva2Utd2lkdGg6MS4wOyIvPjxwb2x5Z29uIGZpbGw9IiMxODE4MTgiIHBvaW50cz0iMzE2Mi43OSwxMjAzLjYsMzE2MC4yODA0LDExOTQuMDc2MiwzMTU5LjY2MjEsMTE5OS42OTkyLDMxNTQuMDM5MiwxMTk5LjA4MDksMzE2Mi43OSwxMjAzLjYiIHN0eWxlPSJzdHJva2U6IzE4MTgxODtzdHJva2Utd2lkdGg6MS4wOyIvPjwvZz48IS0tbGluayBNZXNzYWdlTWFuYWdlciB0byBCYXR0bGVTeXN0ZW0tLT48ZyBpZD0ibGlua19NZXNzYWdlTWFuYWdlcl9CYXR0bGVTeXN0ZW0iPjxwYXRoIGNvZGVMaW5lPSIyNzYiIGQ9Ik0zMTg5LjY0LDEyMDMuNiBDMzE1Ny4yLDExNTIuOTggMzA5Ny4xNiwxMDc3LjAxIDMwMzIuNSwxMDI0IEMyOTgzLjksOTg0LjE2IDI5MzEuOTMxNiw5NTAuODExOCAyODc2LjI2MTYsOTIwLjA1MTggIiBmaWxsPSJub25lIiBpZD0iTWVzc2FnZU1hbmFnZXItdG8tQmF0dGxlU3lzdGVtIiBzdHlsZT0ic3Ryb2tlOiMxODE4MTg7c3Ryb2tlLXdpZHRoOjEuMDsiLz48cG9seWdvbiBmaWxsPSIjMTgxODE4IiBwb2ludHM9IjI4NzEuMDEsOTE3LjE1LDI4NzYuOTUzLDkyNS4wMDM3LDI4NzUuMzg2NCw5MTkuNTY4MSwyODgwLjgyMiw5MTguMDAxNSwyODcxLjAxLDkxNy4xNSIgc3R5bGU9InN0cm9rZTojMTgxODE4O3N0cm9rZS13aWR0aDoxLjA7Ii8+PC9nPjwhLS1saW5rIEdhbWVNZW51IHRvIFBsYXllci0tPjxnIGlkPSJsaW5rX0dhbWVNZW51X1BsYXllciI+PHBhdGggY29kZUxpbmU9IjI3MSIgZD0iTTIwNDMuOTYsMzQ2LjU3IEMyMDAzLjk2LDM3Ny4zMSAxOTU5Ljc4LDQxMi45OSAxOTIxLjUsNDQ4IEMxODUyLjgyLDUxMC44MiAxODQyLjMzLDUzMy4yNiAxNzc4LjUsNjAxIEMxNzQxLjMzLDY0MC40NCAxNzA0LjI1NTksNjc5LjUyMzMgMTY2OC45MzU5LDcxNi42NDMzICIgZmlsbD0ibm9uZSIgaWQ9IkdhbWVNZW51LXRvLVBsYXllciIgc3R5bGU9InN0cm9rZTojMTgxODE4O3N0cm9rZS13aWR0aDoxLjA7Ii8+PHBvbHlnb24gZmlsbD0iIzE4MTgxOCIgcG9pbnRzPSIxNjY0LjgsNzIwLjk5LDE2NzMuOTAxNyw3MTcuMjI3MiwxNjY4LjI0NjYsNzE3LjM2NzcsMTY2OC4xMDYxLDcxMS43MTI2LDE2NjQuOCw3MjAuOTkiIHN0eWxlPSJzdHJva2U6IzE4MTgxODtzdHJva2Utd2lkdGg6MS4wOyIvPjwvZz48IS0tbGluayBHYW1lTWVudSB0byBCYXR0bGVNYW5hZ2VyLS0+PGcgaWQ9ImxpbmtfR2FtZU1lbnVfQmF0dGxlTWFuYWdlciI+PHBhdGggY29kZUxpbmU9IjI3MiIgZD0iTTIyODEuMjYsMzMwLjk2IEMyMzU0LjczLDM3NC44NiAyNDQyLjM1OTQsNDI3LjIxMjQgMjUwOS40Njk0LDQ2Ny4zMTI0ICIgZmlsbD0ibm9uZSIgaWQ9IkdhbWVNZW51LXRvLUJhdHRsZU1hbmFnZXIiIHN0eWxlPSJzdHJva2U6IzE4MTgxODtzdHJva2Utd2lkdGg6MS4wOyIvPjxwb2x5Z29uIGZpbGw9IiMxODE4MTgiIHBvaW50cz0iMjUxNC42Miw0NzAuMzksMjUwOC45NDU5LDQ2Mi4zMzk5LDI1MTAuMzI3OSw0NjcuODI1MywyNTA0Ljg0MjQsNDY5LjIwNzMsMjUxNC42Miw0NzAuMzkiIHN0eWxlPSJzdHJva2U6IzE4MTgxODtzdHJva2Utd2lkdGg6MS4wOyIvPjwvZz48IS0tbGluayBHYW1lTWVudSB0byBSZWNydWl0U3lzdGVtLS0+PGcgaWQ9ImxpbmtfR2FtZU1lbnVfUmVjcnVpdFN5c3RlbSI+PHBhdGggY29kZUxpbmU9IjI3MyIgZD0iTTIwNDMuODksMzExLjc0IEMxOTU0LjkxLDM1MC41NiAxODM3LjIzOTUsNDAxLjkwMDkgMTczNy4yNDk1LDQ0NS41MjA5ICIgZmlsbD0ibm9uZSIgaWQ9IkdhbWVNZW51LXRvLVJlY3J1aXRTeXN0ZW0iIHN0eWxlPSJzdHJva2U6IzE4MTgxODtzdHJva2Utd2lkdGg6MS4wOyIvPjxwb2x5Z29uIGZpbGw9IiMxODE4MTgiIHBvaW50cz0iMTczMS43NSw0NDcuOTIsMTc0MS41OTg2LDQ0Ny45ODc3LDE3MzYuMzMyOSw0NDUuOTIwNywxNzM4LjM5OTgsNDQwLjY1NSwxNzMxLjc1LDQ0Ny45MiIgc3R5bGU9InN0cm9rZTojMTgxODE4O3N0cm9rZS13aWR0aDoxLjA7Ii8+PC9nPjwhLS1saW5rIEdhbWVNZW51IHRvIEltYWdlTWFuYWdlci0tPjxnIGlkPSJsaW5rX0dhbWVNZW51X0ltYWdlTWFuYWdlciI+PHBhdGggY29kZUxpbmU9IjI3NCIgZD0iTTIxNjIuNSwzODguMjggQzIxNjIuNSw0MjAuMzQgMjE2Mi41LDQ0Ni42OCAyMTYyLjUsNDcxLjY5ICIgZmlsbD0ibm9uZSIgaWQ9IkdhbWVNZW51LXRvLUltYWdlTWFuYWdlciIgc3R5bGU9InN0cm9rZTojMTgxODE4O3N0cm9rZS13aWR0aDoxLjA7Ii8+PHBvbHlnb24gZmlsbD0iIzE4MTgxOCIgcG9pbnRzPSIyMTYyLjUsNDc3LjY5LDIxNjYuNSw0NjguNjksMjE2Mi41LDQ3Mi42OSwyMTU4LjUsNDY4LjY5LDIxNjIuNSw0NzcuNjkiIHN0eWxlPSJzdHJva2U6IzE4MTgxODtzdHJva2Utd2lkdGg6MS4wOyIvPjwvZz48IS0tbGluayBHYW1lTWVudSB0byBNZXNzYWdlTWFuYWdlci0tPjxnIGlkPSJsaW5rX0dhbWVNZW51X01lc3NhZ2VNYW5hZ2VyIj48cGF0aCBjb2RlTGluZT0iMjc1IiBkPSJNMjI4MS4xNSwyNjYuODUgQzI0MjAuNzIsMjgwLjY4IDI2NTIuNTEsMzIyLjM2IDI4MDMuNSw0NDggQzMwNTQuODMsNjU3LjEzIDMxNjYuMjQwNCwxMDUzLjc2NjEgMzE5OS44MTA0LDExOTguMDU2MSAiIGZpbGw9Im5vbmUiIGlkPSJHYW1lTWVudS10by1NZXNzYWdlTWFuYWdlciIgc3R5bGU9InN0cm9rZTojMTgxODE4O3N0cm9rZS13aWR0aDoxLjA7Ii8+PHBvbHlnb24gZmlsbD0iIzE4MTgxOCIgcG9pbnRzPSIzMjAxLjE3LDEyMDMuOSwzMjAzLjAyNjUsMTE5NC4yMjc3LDMyMDAuMDM3LDExOTkuMDMwMSwzMTk1LjIzNDYsMTE5Ni4wNDA1LDMyMDEuMTcsMTIwMy45IiBzdHlsZT0ic3Ryb2tlOiMxODE4MTg7c3Ryb2tlLXdpZHRoOjEuMDsiLz48L2c+PCEtLWxpbmsgSW5wdXRIYW5kbGVyIHRvIEdhbWVNZW51LS0+PGcgaWQ9ImxpbmtfSW5wdXRIYW5kbGVyX0dhbWVNZW51Ij48cGF0aCBjb2RlTGluZT0iMjc3IiBkPSJNMjE2Mi41LDcwLjM0IEMyMTYyLjUsODYuNTggMjE2Mi41LDEwMS42OSAyMTYyLjUsMTIzLjg4ICIgZmlsbD0ibm9uZSIgaWQ9IklucHV0SGFuZGxlci10by1HYW1lTWVudSIgc3R5bGU9InN0cm9rZTojMTgxODE4O3N0cm9rZS13aWR0aDoxLjA7Ii8+PHBvbHlnb24gZmlsbD0iIzE4MTgxOCIgcG9pbnRzPSIyMTYyLjUsMTI5Ljg4LDIxNjYuNSwxMjAuODgsMjE2Mi41LDEyNC44OCwyMTU4LjUsMTIwLjg4LDIxNjIuNSwxMjkuODgiIHN0eWxlPSJzdHJva2U6IzE4MTgxODtzdHJva2Utd2lkdGg6MS4wOyIvPjwvZz48IS0tbGluayBCYXR0bGVTeXN0ZW0gdG8gQ2hhcmFjdGVyLS0+PGcgaWQ9ImxpbmtfQmF0dGxlU3lzdGVtX0NoYXJhY3RlciI+PHBhdGggY29kZUxpbmU9IjI3OCIgZD0iTTIzOTkuODcsOTEyLjA4IEMyMzQ3LjQyLDkzMS40MSAyMjkxLjYsOTUwLjAxIDIyMzguNSw5NjQgQzIwNjkuMzQsMTAwOC41OCAyMDA4LjM5LDk1MC44MiAxODQ5LjUsMTAyNCBDMTg0My41OCwxMDI2LjczIDE4NDMuMDE0LDEwMjYuODUzMyAxODM3LjE2NCwxMDI5Ljg5MzMgIiBmaWxsPSJub25lIiBpZD0iQmF0dGxlU3lzdGVtLXRvLUNoYXJhY3RlciIgc3R5bGU9InN0cm9rZTojMTgxODE4O3N0cm9rZS13aWR0aDoxLjA7Ii8+PHBvbHlnb24gZmlsbD0iIzE4MTgxOCIgcG9pbnRzPSIxODMxLjg0LDEwMzIuNjYsMTg0MS42NzA1LDEwMzIuMDU5MywxODM2LjI3NjcsMTAzMC4zNTQ0LDE4MzcuOTgxNiwxMDI0Ljk2MDYsMTgzMS44NCwxMDMyLjY2IiBzdHlsZT0ic3Ryb2tlOiMxODE4MTg7c3Ryb2tlLXdpZHRoOjEuMDsiLz48L2c+PCEtLWxpbmsgSW1hZ2VNYW5hZ2VyIHRvIENoYXJhY3Rlci0tPjxnIGlkPSJsaW5rX0ltYWdlTWFuYWdlcl9DaGFyYWN0ZXIiPjxwYXRoIGNvZGVMaW5lPSIyNzkiIGQ9Ik0yMTgxLjc1LDU3MS4yNCBDMjIxNS4xNiw2NTguNjkgMjI3MS43Niw4NTAuOTMgMjE3Ny41LDk2NCBDMjA4Mi42LDEwNzcuODMgMTk4My4yMyw5NjAuMTQgMTg0OS41LDEwMjQgQzE4NDMuNDgsMTAyNi44NyAxODQyLjc3OTksMTAyNy4wODg2IDE4MzYuODE5OSwxMDMwLjI3ODYgIiBmaWxsPSJub25lIiBpZD0iSW1hZ2VNYW5hZ2VyLXRvLUNoYXJhY3RlciIgc3R5bGU9InN0cm9rZTojMTgxODE4O3N0cm9rZS13aWR0aDoxLjA7Ii8+PHBvbHlnb24gZmlsbD0iIzE4MTgxOCIgcG9pbnRzPSIxODMxLjUzLDEwMzMuMTEsMTg0MS4zNTI1LDEwMzIuMzg5NiwxODM1LjkzODMsMTAzMC43NTA1LDE4MzcuNTc3MywxMDI1LjMzNjMsMTgzMS41MywxMDMzLjExIiBzdHlsZT0ic3Ryb2tlOiMxODE4MTg7c3Ryb2tlLXdpZHRoOjEuMDsiLz48L2c+PCEtLVNSQz1bbkxYQlJ6aXU0QnhoTG1ZdmhEdE9YeFF0ODMxV25xYmc4RWE2VGhlNVVaNWVVTW1KYktJM2Vmb3VIVl94M2Z5WTlKY25pemxUNzY5b2RmbmxYa0hHVnlKM0hJNHVJS0h5YlBBWVk4WVQ5ZDhRTnNzOGQwNkZWcU9uX2xMWlBERHk3U3pwYWU0WHFMcDR5b3J4MGt1SkRhMUlpVjRmNk5kLXYxRWpnTThCMklOZlM0NUpBbFFINVNUcnZDTUF5T204b2xBeE5IZnZYa3ZXMXVmV1pLWDF0bmRhbURUeEdyYW1iaVBwTWVuSWJkbjd5VVl5WWduWkJDWTBVYWZOWFFBN0VlWVV6SEFrajhqY0ZnRE1WN2N2dk1tQk5FbTdXX1oyMjJGcEdIZ2dTejRpaVpHR3hSbnhZckN4VW5PaXVnM3BubjAtWVRUMVR0TGtCeFBydUNkVGVBczN0Z3VMdEVxRTlXeHRFYl9jSFFOZUY1T1lkUXdQcEdKUk1ZTDdkRUc5MXJBMHpqTUgtSTRQQXREWDFRUEdXMzFTSV9pcDd2VlJiMlA0bTFHSU5iODFvcXVONXhBWk45R2E3R21hZjIxMms2TzJ2SmtKNWM4aWNaSFAyQ2d0Slhsd19YTDVVV0ZUaWt5YnhmcnBEVVhxcy01TU1CMFRTNHdOTzQweGk2dkZSaVZlaWRCcTV3bjE0RUxBM3QtQkNubEtYa0djQVhwekhheXRkQzhGN1BLVTdrX0JjaFkyRDVLNnZFMXF6TDZmeXVVX1JyMUVJVjlUUVNsMUFWZi0gLVMycFc3cGY3U1BYb1ctblRQT0VTR3NvWHpXQWpLRENZU2IxZGVvcVhIalhOQzFOOTg2dVRMbHpERmxyNHljTkFOSWdZb1VuOHN6TnBLZTRSYVJlZGtKbExOUFVyY2VlVk5ZQnFpVXRBRHNvdkxsS0hjYTlILWp6SUdOREQ4UDdBdDBvb0dqMVN4cGZKekF3TmhFWjVLUHVNMXpabFlzZkREa2NhNDRrWWpQb1FLbGZvSWVWWnJIbi05eGlHTVJfUDJNTC13RE52WU5vMTFzUG5rRjRUSDlWYXVyZ3hVOERfY1R5eHRScjVMeFMwWGV6Ym9rM25fcU1rWFZVU1U2Z3VZNGJVd196TEJ0VDN5WWZjVF9IR2Jtd2pLNHl2X1BNU1NIMlRjQkFZWmcwbHc1b1V2eW9SUWhNMU1sa0o3SjN2TDlRUlViOG5oMGk0dDYwWU1mRGItc1JIMmxTV2NYSHlGaE5UV1lEcGNuVjJDWXlIWHhwYnpJT1N1aDVIRjg0ZVdRcTUtdE96a0NmUmN3NmdicHpJZTlsNFo3bG91S0ZUdUljUDk1TUhMMXFKNnd0d2dUeDJEdE1YS3hDRVpqTHh3Vk9VWjRMRUE2QjFZUk9qUE1mRmdEYThQVFhtWS1TS3lOcE5tcXJrRzFyb0NpaXIzSVduXzVkWGxxZkF6VVJSeGc0RnhDTU4yR1RkanBTZkhwZlpkWXpPLWFFX0Z3RmZZY1gtTjNZNFptbmYxZGtUbTdPZEN5QkN2OHplWEx0MDB1SmtQc3p5ampmYVB1TmpDa0tMTFN3YzYxaWVBc1Jlb211YzA5M1BrY2d5TFVaZUgzT0pRMm1ycHBLZXQ5N3A4UW4wbHYxNTB4QUNRbThMYU5KS1FGTV9uTWxza2JtbFVQRzU3Rzdfd3JWMzFSb195TGo2eVItRkxGWmxPaEp3eGU3T3RyOXJUdzNIOFdLeGFiRXJqdnJQOHdOa094TTRCeklIRWlmZFotZnQtaGlkYTRBWUNyb0o1U2hjYzNxLTRmckpzWnh4WUxTUTVTVWw4TEhUOUhBeExVdWxZeUpiUlZRMmwwaW83M1BUbDVwd2l0YXV5SWVUZW9RcmtnNUlod0VsNFFEUkVyLXI1SGFacGJ2cWRSckt4ZlU2N3dmY0VmblRvUWd3ZVZxWTcxclJKeGhacDV4X1BFS2Q2RWdGZmJGQ3ZCYWxZb1hNUE9vN1l5OExtRnR2S1JUWmZ1M19QTldIR1RRbjNjbXF6MTFqdnUxVHlpc1RleWtaWWhpaTZXeWtpNzNDNW5Zdm1pcENlbnh0MFAtTGhEV1JlSWdReTZRN0t3WVN0LWZPVE9qSFlfZHBlMndUOE1DMU1kdzQ4TU5rVkVEeXo3VWdfV3NyVWhzcjhrLVZlUWE1RjFPeWpuU0pvdUdHLWtSOXVOVVZfZ1FROTNqOW9MQmpMWktmVXFvZFZXS0xkWjZSMnBvTndkT1owNURzYnZjMmEtNEJ1RW1rZ1FCaDV4a003M3RVQ05QZ3hfUWI3WkViNlFWczhSTUw5cDNPUDhsdUxib056WXRCUVNGb2tWUktrWWVmQm10WXJtZkVOQ0JWbmd6TmI3ZEJnWHdNc0xRaTU5XzJmQnhvbWpibkpod0ktY0VoaDZTeGMwYjBpQUtoWlVZdGlUTDdMbk9hVnd0akcwU1VvQUZnUmZlMkR6VnNlQnFJOFhzQm52SGFQNGpkYlRwcnM0aEt4QjF5c3JzbEJ4eEFmMWlSVDhsWkU1Z1dKS3lWX2ZsNWhpSDNDUXVJZUpZYU1PR3VzQ0prV0U3VmM2cVJmWWliMU4taHZ1Rm5hN0RiZF9FNk9hWW1DcWxhbDJ4b3BxaDJ4WEFBTXc0MXVQV1ZIWjdjSUd6aTg5QTM3akxOU2lvTGFPaEJGaHpULXRGbXlReGlEeVZVQmxVTERGUC1wRGJ1a3BUY1NTQy10d2ZnQ01aaThNTlo0MnFISjdpdldfaFF0dnJUQWd1d2RyMWVuNkw1aTljbnhUR3Z1THhLVkJ6R3hjNVJROEVSWGRWeEFKOWlXVE9hbkRNUGtJSXdaYUFRQzVvR2JPOFVpM29EckY4Z1ZjbFJQRzY2YTc1SWd1cnJlb2lBZnBXVTBYT1ZtQzBdLS0+PC9nPjwvc3ZnPg==;" parent="1" vertex="1">
            <mxGeometry x="-510" y="-530" width="4153" height="1789" as="geometry" />
          </mxCell>
        </UserObject>
      </root>
    </mxGraphModel>
  </diagram>
</mxfile>
